<svg width="19" height="19" viewBox="0 0 19 19" fill="none" xmlns="http://www.w3.org/2000/svg">
<path d="M17.5477 7.42402H11.4735V1.34982C11.4735 0.604467 10.869 0 10.1237 0H8.77384C8.02849 0 7.42402 0.604467 7.42402 1.34982V7.42402H1.34982C0.604467 7.42402 0 8.02849 0 8.77384V10.1237C0 10.869 0.604467 11.4735 1.34982 11.4735H7.42402V17.5477C7.42402 18.293 8.02849 18.8975 8.77384 18.8975H10.1237C10.869 18.8975 11.4735 18.293 11.4735 17.5477V11.4735H17.5477C18.293 11.4735 18.8975 10.869 18.8975 10.1237V8.77384C18.8975 8.02849 18.293 7.42402 17.5477 7.42402Z" fill="white"/>
</svg>
