<?xml version="1.0" encoding="utf-8"?>
<!-- Generator: Adobe Illustrator 24.2.1, SVG Export Plug-In . SVG Version: 6.00 Build 0)  -->
<svg version="1.1" id="Capa_1" xmlns="http://www.w3.org/2000/svg" xmlns:xlink="http://www.w3.org/1999/xlink" x="0px" y="0px"
	 viewBox="0 0 49 49" style="enable-background:new 0 0 49 49;" xml:space="preserve">
<style type="text/css">
	.st0{fill:#0E24C6;}
	.st1{fill-rule:evenodd;clip-rule:evenodd;fill:#FFFFFF;}
</style>
<circle class="st0" cx="24.7" cy="24.3" r="24.3"/>
<path class="st1" d="M22.7,18.8H27v2.2c0.6-1.2,2.2-2.4,4.6-2.4c4.6,0,5.7,2.5,5.7,7V34h-4.7v-7.4c0-2.6-0.6-4-2.2-4
	c-2.2,0-3.1,1.6-3.1,4V34h-4.7V18.8z M14.7,33.8h4.7V18.6h-4.7V33.8z M20,13.6c0,0.4-0.1,0.8-0.2,1.1c-0.2,0.4-0.4,0.7-0.6,1
	c-0.6,0.6-1.3,0.9-2.1,0.9c-0.8,0-1.6-0.3-2.1-0.9c-0.3-0.3-0.5-0.6-0.6-1C14.1,14.4,14,14,14,13.6c0-0.8,0.3-1.5,0.9-2.1
	c0.6-0.6,1.3-0.9,2.1-0.9c0.8,0,1.6,0.3,2.1,0.9C19.7,12.1,20,12.9,20,13.6z"/>
</svg>
