<svg width="61" height="60" viewBox="0 0 61 60" fill="none" xmlns="http://www.w3.org/2000/svg">
<path d="M30.5 60C47.0685 60 60.5 46.5685 60.5 30C60.5 13.4315 47.0685 0 30.5 0C13.9315 0 0.5 13.4315 0.5 30C0.5 46.5685 13.9315 60 30.5 60Z" fill="white"/>
<path d="M14.5812 25.6687C12.5208 25.7085 11.2863 28.1275 11.8201 31.0763C12.3554 34.0234 14.458 36.3785 16.5187 36.3334C18.5744 36.2955 19.8115 33.8731 19.275 30.9278C18.7384 27.9825 16.6372 25.6255 14.5812 25.6687Z" stroke="#04654D" stroke-width="2.5"/>
<path d="M41.3794 30.0554C40.6736 32.8533 41.7185 35.3438 43.7126 35.6217C45.7025 35.8964 47.8925 33.8631 48.5951 31.0645C49.3005 28.2719 48.2566 25.7832 46.2639 25.5024C44.2729 25.2257 42.0835 27.2659 41.3794 30.0554Z" stroke="#04654D" stroke-width="2.5"/>
<path d="M24.7861 29.3629C27.1154 29.1826 28.8003 26.0664 28.5473 22.4025C28.3004 18.7394 26.208 15.9157 23.8787 16.0958C21.551 16.2806 19.8681 19.3971 20.1149 23.0602C20.3687 26.7201 22.459 29.5435 24.7861 29.3629Z" stroke="#04654D" stroke-width="2.5"/>
<path d="M36.6704 15.4747C34.3469 15.2563 32.2116 18.0455 31.9012 21.7046C31.5908 25.3638 33.2226 28.5073 35.5503 28.725C37.8715 28.9436 40.0091 26.1542 40.32 22.4993C40.6326 18.84 38.9944 15.6973 36.6704 15.4747Z" stroke="#04654D" stroke-width="2.5"/>
<path d="M30.5 31.575C23.9312 31.575 19 39.8795 19 42.627C19 49.3825 23.9312 42.4134 30.5 42.4134C37.0715 42.4134 42 49.3825 42 42.627C42 39.8795 37.0715 31.575 30.5 31.575Z" stroke="#04654D" stroke-width="2.5"/>
</svg>
