<?xml version="1.0" encoding="UTF-8" standalone="no"?>
<!DOCTYPE svg PUBLIC "-//W3C//DTD SVG 1.1//EN" "http://www.w3.org/Graphics/SVG/1.1/DTD/svg11.dtd">
<svg width="100%" height="100%" viewBox="0 0 290 290" version="1.1" xmlns="http://www.w3.org/2000/svg" xmlns:xlink="http://www.w3.org/1999/xlink" xml:space="preserve" xmlns:serif="http://www.serif.com/" style="fill-rule:evenodd;clip-rule:evenodd;stroke-linejoin:round;stroke-miterlimit:2;">
    <g transform="matrix(-4.16667,0,0,4.16667,438.717,-3035.23)">
        <rect x="35.85" y="728.456" width="69.442" height="69.445" style="fill:rgb(25,54,103);"/>
    </g>
    <g transform="matrix(4.16667,0,0,4.16667,43.2663,82.0092)">
        <path d="M0,-14.004L0,0L-2.348,0L-2.348,-10.72L-2.369,-10.72L-4.017,-9.006L-4.037,-9.006L-4.037,-11.463L-1.874,-14.004L0,-14.004Z" style="fill:white;fill-rule:nonzero;"/>
    </g>
    <g transform="matrix(4.16667,0,0,4.16667,47.7313,82.0092)">
        <path d="M0,-14.004L5.892,-14.004L5.892,-11.835L2.822,0L0.493,0L3.625,-12.084L0,-12.084L0,-14.004Z" style="fill:white;fill-rule:nonzero;"/>
    </g>
    <g transform="matrix(4.16667,0,0,4.16667,168.92,194.438)">
        <path d="M0,-2.152C1.587,-3.629 2.584,-5.737 2.584,-8.075C2.584,-8.425 2.559,-8.77 2.517,-9.108C5.743,-8.761 8.265,-6.017 8.265,-2.69C8.265,-0.801 7.446,0.897 6.15,2.078C4.936,-0.201 2.667,-1.831 0,-2.152M5.472,5.871C5.472,9.429 2.584,12.325 -0.966,12.325C-2.121,12.325 -3.202,12.014 -4.14,11.478C-2.771,10.029 -1.927,8.074 -1.927,5.924C-1.927,5.396 -1.98,4.879 -2.077,4.378C-0.919,5.023 0.411,5.392 1.827,5.392C3.086,5.392 4.28,5.1 5.342,4.581C5.427,4.998 5.472,5.429 5.472,5.871M-16.426,5.924C-16.426,5.466 -16.377,5.019 -16.285,4.587C-15.225,5.102 -14.036,5.392 -12.781,5.392C-11.369,5.392 -10.043,5.026 -8.888,4.384C-8.978,4.866 -9.027,5.363 -9.027,5.871C-9.027,8.054 -8.157,10.036 -6.749,11.492C-7.702,12.052 -8.807,12.378 -9.988,12.378C-13.538,12.378 -16.426,9.483 -16.426,5.924M-19.219,-2.69C-19.219,-6.017 -16.697,-8.761 -13.471,-9.108C-13.514,-8.77 -13.538,-8.425 -13.538,-8.075C-13.538,-5.713 -12.521,-3.583 -10.905,-2.104C-13.579,-1.799 -15.86,-0.179 -17.086,2.095C-18.391,0.914 -19.219,-0.792 -19.219,-2.69M-5.478,-14.53C-2.839,-14.53 -0.57,-12.93 0.424,-10.649C-2.195,-10.186 -4.381,-8.452 -5.478,-6.107C-6.572,-8.453 -8.76,-10.186 -11.378,-10.649C-10.384,-12.93 -8.115,-14.53 -5.478,-14.53M-3.944,0.153C-3.052,-0.316 -2.041,-0.585 -0.966,-0.585C1.565,-0.585 3.754,0.892 4.805,3.026C3.913,3.496 2.901,3.765 1.827,3.765C-0.705,3.765 -2.894,2.289 -3.944,0.153M-7.031,0.197C-8.09,2.309 -10.266,3.765 -12.781,3.765C-13.847,3.765 -14.852,3.498 -15.738,3.037C-14.679,0.925 -12.502,-0.531 -9.988,-0.531C-8.921,-0.531 -7.917,-0.265 -7.031,0.197M-11.831,-9.068C-8.731,-8.605 -6.342,-5.926 -6.342,-2.69C-6.342,-2.353 -6.377,-2.022 -6.427,-1.698C-9.527,-2.161 -11.915,-4.84 -11.915,-8.075C-11.915,-8.414 -11.882,-8.744 -11.831,-9.068M-5.447,10.494C-6.653,9.321 -7.404,7.683 -7.404,5.871C-7.404,4.087 -6.677,2.469 -5.507,1.299C-4.302,2.473 -3.55,4.111 -3.55,5.924C-3.55,7.708 -4.277,9.325 -5.447,10.494M0.961,-8.075C0.961,-4.84 -1.427,-2.161 -4.528,-1.698C-4.578,-2.022 -4.612,-2.353 -4.612,-2.69C-4.612,-5.926 -2.223,-8.605 0.877,-9.067C0.927,-8.744 0.961,-8.414 0.961,-8.075M9.888,-2.69C9.888,-7.048 6.43,-10.609 2.123,-10.766C1.015,-13.904 -1.973,-16.158 -5.478,-16.158C-8.981,-16.158 -11.969,-13.904 -13.078,-10.766C-17.385,-10.609 -20.841,-7.048 -20.841,-2.69C-20.841,-0.104 -19.622,2.201 -17.731,3.681C-17.936,4.394 -18.049,5.146 -18.049,5.924C-18.049,10.379 -14.433,14.006 -9.988,14.006C-8.301,14.006 -6.734,13.482 -5.438,12.59C-4.157,13.45 -2.619,13.952 -0.966,13.952C3.479,13.952 7.095,10.326 7.095,5.871C7.095,5.108 6.987,4.371 6.789,3.672C8.673,2.191 9.888,-0.11 9.888,-2.69" style="fill:white;fill-rule:nonzero;"/>
    </g>
    <g transform="matrix(4.16667,0,0,4.16667,95.735,31.1617)">
        <path d="M0,2.141L0.784,2.141L0.396,-0.208L0.387,-0.208L0,2.141ZM-1.232,3.998L-0.129,-1.857L0.99,-1.857L2.101,3.998L1.093,3.998L0.913,2.927L-0.129,2.927L-0.301,3.998L-1.232,3.998Z" style="fill:white;fill-rule:nonzero;"/>
    </g>
    <g transform="matrix(4.16667,0,0,4.16667,106.172,47.8171)">
        <path d="M0,-5.854L0.982,-5.854L0.982,-0.803L2.153,-0.803L2.153,0L0,0L0,-5.854Z" style="fill:white;fill-rule:nonzero;"/>
    </g>
    <g transform="matrix(4.16667,0,0,4.16667,-149.375,-3253.35)">
        <rect x="63.931" y="786.425" width="0.982" height="5.854" style="fill:white;"/>
    </g>
    <g transform="matrix(4.16667,0,0,4.16667,127.95,31.1617)">
        <path d="M0,2.141L0.783,2.141L0.396,-0.208L0.387,-0.208L0,2.141ZM-1.232,3.998L-0.13,-1.857L0.99,-1.857L2.101,3.998L1.093,3.998L0.913,2.927L-0.13,2.927L-0.301,3.998L-1.232,3.998Z" style="fill:white;fill-rule:nonzero;"/>
    </g>
    <g transform="matrix(4.16667,0,0,4.16667,141.832,38.75)">
        <path d="M0,-1.502L0,2.176L-0.827,2.176L-0.827,-3.678L0.138,-3.678L1.197,-0.319L1.197,-3.678L2.015,-3.678L2.015,2.176L1.154,2.176L0,-1.502Z" style="fill:white;fill-rule:nonzero;"/>
    </g>
    <g transform="matrix(4.16667,0,0,4.16667,156.539,26.7725)">
        <path d="M0,4.248L1.49,4.248L1.49,5.051L-1.025,5.051L-1.025,4.248L0.517,0L-0.87,0L-0.87,-0.803L1.55,-0.803L1.55,0L0,4.248Z" style="fill:white;fill-rule:nonzero;"/>
    </g>
    <g transform="matrix(4.16667,0,0,4.16667,169.453,31.1617)">
        <path d="M0,2.141L0.784,2.141L0.396,-0.208L0.387,-0.208L0,2.141ZM-1.232,3.998L-0.13,-1.857L0.99,-1.857L2.101,3.998L1.093,3.998L0.913,2.927L-0.13,2.927L-0.301,3.998L-1.232,3.998Z" style="fill:white;fill-rule:nonzero;"/>
    </g>
    <g transform="matrix(4.16667,0,0,4.16667,179.315,28.6775)">
        <path d="M0,3.333L0,2.547L0.913,2.547L0.913,3.35C0.913,3.678 1.059,3.868 1.395,3.868C1.705,3.868 1.843,3.661 1.843,3.35L1.843,3.126C1.843,2.789 1.705,2.582 1.404,2.297L0.827,1.718C0.267,1.166 0.009,0.829 0.009,0.155L0.009,-0.043C0.009,-0.769 0.431,-1.33 1.386,-1.33C2.368,-1.33 2.756,-0.846 2.756,-0L2.756,0.475L1.86,0.475L1.86,-0.034C1.86,-0.371 1.705,-0.535 1.395,-0.535C1.119,-0.535 0.93,-0.38 0.93,-0.052L0.93,0.069C0.93,0.397 1.111,0.587 1.395,0.863L2.024,1.485C2.558,2.029 2.816,2.357 2.816,3.005L2.816,3.29C2.816,4.093 2.385,4.663 1.386,4.663C0.388,4.663 0,4.101 0,3.333" style="fill:white;fill-rule:nonzero;"/>
    </g>
    <g transform="matrix(4.16667,0,0,4.16667,201.056,44.4717)">
        <path d="M0,-4.248L0,-1.943L0.362,-1.943C0.698,-1.943 0.844,-2.107 0.844,-2.426L0.844,-3.773C0.844,-4.092 0.698,-4.248 0.362,-4.248L0,-4.248ZM-0.982,-5.051L0.474,-5.051C1.464,-5.051 1.826,-4.559 1.826,-3.739L1.826,-2.504C1.826,-1.684 1.464,-1.183 0.474,-1.183L0,-1.183L0,0.803L-0.982,0.803L-0.982,-5.051Z" style="fill:white;fill-rule:nonzero;"/>
    </g>
    <g transform="matrix(4.16667,0,0,4.16667,213.827,31.1617)">
        <path d="M0,2.141L0.784,2.141L0.396,-0.208L0.387,-0.208L0,2.141ZM-1.232,3.998L-0.13,-1.857L0.99,-1.857L2.101,3.998L1.093,3.998L0.913,2.927L-0.13,2.927L-0.301,3.998L-1.232,3.998Z" style="fill:white;fill-rule:nonzero;"/>
    </g>
    <g transform="matrix(4.16667,0,0,4.16667,228.353,44.4717)">
        <path d="M0,-4.248L0,-2.426L0.328,-2.426C0.664,-2.426 0.81,-2.599 0.81,-2.91L0.81,-3.773C0.81,-4.092 0.664,-4.248 0.328,-4.248L0,-4.248ZM0,-1.882L0,0.803L-0.981,0.803L-0.981,-5.051L0.448,-5.051C1.438,-5.051 1.8,-4.559 1.8,-3.739L1.8,-2.987C1.8,-2.357 1.576,-1.986 1.016,-1.856L1.955,0.803L0.922,0.803L0,-1.882Z" style="fill:white;fill-rule:nonzero;"/>
    </g>
    <g transform="matrix(4.16667,0,0,4.16667,242.561,31.1617)">
        <path d="M0,2.141L0.784,2.141L0.396,-0.208L0.387,-0.208L0,2.141ZM-1.232,3.998L-0.13,-1.857L0.99,-1.857L2.101,3.998L1.093,3.998L0.913,2.927L-0.13,2.927L-0.301,3.998L-1.232,3.998Z" style="fill:white;fill-rule:nonzero;"/>
    </g>
    <g transform="matrix(4.16667,0,0,4.16667,91.25,80.1883)">
        <path d="M0,-5.854L0.981,-5.854L0.981,-0.803L2.153,-0.803L2.153,0L0,0L0,-5.854Z" style="fill:white;fill-rule:nonzero;"/>
    </g>
    <g transform="matrix(4.16667,0,0,4.16667,110.193,61.4421)">
        <path d="M0,3.144L0,0.001C0,-0.353 -0.155,-0.603 -0.508,-0.603C-0.853,-0.603 -1.008,-0.353 -1.008,0.001L-1.008,3.144C-1.008,3.498 -0.853,3.748 -0.508,3.748C-0.155,3.748 0,3.498 0,3.144M-1.989,2.988L-1.989,0.157C-1.989,-0.759 -1.541,-1.424 -0.508,-1.424C0.534,-1.424 0.982,-0.759 0.982,0.157L0.982,2.988C0.982,3.895 0.534,4.568 -0.508,4.568C-1.541,4.568 -1.989,3.895 -1.989,2.988" style="fill:white;fill-rule:nonzero;"/>
    </g>
    <g transform="matrix(4.16667,0,0,4.16667,122.783,68.8204)">
        <path d="M0,-0.397L1.395,-0.397L1.395,2.729L0.689,2.729L0.689,2.09C0.56,2.53 0.284,2.798 -0.25,2.798C-1.093,2.798 -1.481,2.124 -1.481,1.218L-1.481,-1.614C-1.481,-2.53 -1.042,-3.195 -0.009,-3.195C1.076,-3.195 1.395,-2.59 1.395,-1.727L1.395,-1.209L0.5,-1.209L0.5,-1.804C0.5,-2.167 0.362,-2.374 0.009,-2.374C-0.344,-2.374 -0.5,-2.124 -0.5,-1.77L-0.5,1.373C-0.5,1.727 -0.353,1.978 -0.017,1.978C0.301,1.978 0.465,1.796 0.465,1.416L0.465,0.38L0,0.38L0,-0.397Z" style="fill:white;fill-rule:nonzero;"/>
    </g>
    <g transform="matrix(4.16667,0,0,4.16667,135.016,76.8425)">
        <path d="M0,-4.248L0,-2.426L0.327,-2.426C0.663,-2.426 0.81,-2.599 0.81,-2.91L0.81,-3.773C0.81,-4.092 0.663,-4.248 0.327,-4.248L0,-4.248ZM0,-1.882L0,0.803L-0.982,0.803L-0.982,-5.051L0.448,-5.051C1.438,-5.051 1.8,-4.559 1.8,-3.738L1.8,-2.987C1.8,-2.357 1.576,-1.986 1.016,-1.856L1.955,0.803L0.922,0.803L0,-1.882Z" style="fill:white;fill-rule:nonzero;"/>
    </g>
    <g transform="matrix(4.16667,0,0,4.16667,149.223,63.53)">
        <path d="M0,2.142L0.784,2.142L0.396,-0.207L0.387,-0.207L0,2.142ZM-1.232,3.998L-0.13,-1.856L0.99,-1.856L2.101,3.998L1.093,3.998L0.913,2.928L-0.13,2.928L-0.301,3.998L-1.232,3.998Z" style="fill:white;fill-rule:nonzero;"/>
    </g>
    <g transform="matrix(4.16667,0,0,4.16667,163.748,76.8425)">
        <path d="M0,-4.248L0,-2.426L0.327,-2.426C0.663,-2.426 0.81,-2.599 0.81,-2.91L0.81,-3.773C0.81,-4.092 0.663,-4.248 0.327,-4.248L0,-4.248ZM0,-1.882L0,0.803L-0.982,0.803L-0.982,-5.051L0.448,-5.051C1.438,-5.051 1.8,-4.559 1.8,-3.738L1.8,-2.987C1.8,-2.357 1.576,-1.986 1.016,-1.856L1.955,0.803L0.922,0.803L0,-1.882Z" style="fill:white;fill-rule:nonzero;"/>
    </g>
    <g transform="matrix(4.16667,0,0,4.16667,91.25,112.561)">
        <path d="M0,-5.854L0.981,-5.854L0.981,-0.803L2.153,-0.803L2.153,0L0,0L0,-5.854Z" style="fill:white;fill-rule:nonzero;"/>
    </g>
    <g transform="matrix(4.16667,0,0,4.16667,110.193,93.8212)">
        <path d="M0,3.142L0,-0.001C0,-0.355 -0.155,-0.605 -0.508,-0.605C-0.853,-0.605 -1.008,-0.355 -1.008,-0.001L-1.008,3.142C-1.008,3.496 -0.853,3.746 -0.508,3.746C-0.155,3.746 0,3.496 0,3.142M-1.989,2.986L-1.989,0.155C-1.989,-0.761 -1.541,-1.425 -0.508,-1.425C0.534,-1.425 0.982,-0.761 0.982,0.155L0.982,2.986C0.982,3.893 0.534,4.567 -0.508,4.567C-1.541,4.567 -1.989,3.893 -1.989,2.986" style="fill:white;fill-rule:nonzero;"/>
    </g>
    <g transform="matrix(4.16667,0,0,4.16667,116.396,93.4254)">
        <path d="M0,3.332L0,2.546L0.913,2.546L0.913,3.35C0.913,3.677 1.059,3.867 1.395,3.867C1.705,3.867 1.843,3.66 1.843,3.35L1.843,3.125C1.843,2.788 1.705,2.581 1.404,2.296L0.827,1.717C0.267,1.165 0.009,0.828 0.009,0.155L0.009,-0.044C0.009,-0.769 0.431,-1.33 1.386,-1.33C2.368,-1.33 2.756,-0.847 2.756,-0.001L2.756,0.474L1.86,0.474L1.86,-0.035C1.86,-0.372 1.705,-0.536 1.395,-0.536C1.119,-0.536 0.93,-0.38 0.93,-0.053L0.93,0.068C0.93,0.397 1.111,0.587 1.395,0.862L2.024,1.484C2.558,2.028 2.816,2.356 2.816,3.004L2.816,3.289C2.816,4.092 2.385,4.662 1.386,4.662C0.387,4.662 0,4.101 0,3.332" style="fill:white;fill-rule:nonzero;"/>
    </g>
    <g transform="matrix(4.16667,0,0,4.16667,142.336,93.8212)">
        <path d="M0,3.142L0,-0.001C0,-0.355 -0.155,-0.605 -0.508,-0.605C-0.853,-0.605 -1.008,-0.355 -1.008,-0.001L-1.008,3.142C-1.008,3.496 -0.853,3.746 -0.508,3.746C-0.155,3.746 0,3.496 0,3.142M-1.989,2.986L-1.989,0.155C-1.989,-0.761 -1.541,-1.425 -0.508,-1.425C0.534,-1.425 0.982,-0.761 0.982,0.155L0.982,2.986C0.982,3.893 0.534,4.567 -0.508,4.567C-1.541,4.567 -1.989,3.893 -1.989,2.986" style="fill:white;fill-rule:nonzero;"/>
    </g>
    <g transform="matrix(4.16667,0,0,4.16667,152.844,99.1404)">
        <path d="M0,0.588L0,2.418L0.431,2.418C0.758,2.418 0.913,2.254 0.913,1.943L0.913,1.063C0.913,0.752 0.766,0.588 0.422,0.588L0,0.588ZM0,-0.163L0.345,-0.163C0.663,-0.163 0.81,-0.328 0.81,-0.638L0.81,-1.355C0.81,-1.674 0.663,-1.83 0.336,-1.83L0,-1.83L0,-0.163ZM-0.982,-2.633L0.44,-2.633C1.421,-2.633 1.749,-2.175 1.749,-1.346L1.749,-0.751C1.749,-0.258 1.567,0.052 1.163,0.182C1.654,0.294 1.895,0.622 1.895,1.157L1.895,1.935C1.895,2.763 1.524,3.221 0.543,3.221L-0.982,3.221L-0.982,-2.633Z" style="fill:white;fill-rule:nonzero;"/>
    </g>
    <g transform="matrix(4.16667,0,0,4.16667,173.653,112.848)">
        <path d="M0,-5.923L0,-1.399C0,-0.553 -0.37,0 -1.352,0C-2.368,0 -2.644,-0.561 -2.644,-1.304L-2.644,-2.469L-1.714,-2.469L-1.714,-1.286C-1.714,-0.993 -1.61,-0.82 -1.352,-0.82C-1.085,-0.82 -0.982,-0.993 -0.982,-1.295L-0.982,-5.923L0,-5.923Z" style="fill:white;fill-rule:nonzero;"/>
    </g>
    <g transform="matrix(4.16667,0,0,4.16667,175.946,112.561)">
        <path d="M0,-5.854L2.342,-5.854L2.342,-5.051L0.981,-5.051L0.981,-3.376L1.955,-3.376L1.955,-2.581L0.981,-2.581L0.981,-0.803L2.342,-0.803L2.342,0L0,0L0,-5.854Z" style="fill:white;fill-rule:nonzero;"/>
    </g>
    <g transform="matrix(4.16667,0,0,4.16667,187.425,112.561)">
        <path d="M0,-5.854L2.609,-5.854L2.609,-5.051L1.8,-5.051L1.8,0L0.809,0L0.809,-5.051L0,-5.051L0,-5.854Z" style="fill:white;fill-rule:nonzero;"/>
    </g>
    <g transform="matrix(4.16667,0,0,4.16667,-149.375,-3123.85)">
        <rect x="83.897" y="770.886" width="0.982" height="5.854" style="fill:white;"/>
    </g>
    <g transform="matrix(4.16667,0,0,4.16667,219.747,112.561)">
        <path d="M0,-5.854L-1.111,0L-2.179,0L-3.289,-5.854L-2.29,-5.854L-1.619,-1.77L-1.611,-1.77L-0.921,-5.854L0,-5.854Z" style="fill:white;fill-rule:nonzero;"/>
    </g>
    <g transform="matrix(4.16667,0,0,4.16667,229,93.8212)">
        <path d="M0,3.142L0,-0.001C0,-0.355 -0.155,-0.605 -0.508,-0.605C-0.853,-0.605 -1.008,-0.355 -1.008,-0.001L-1.008,3.142C-1.008,3.496 -0.853,3.746 -0.508,3.746C-0.155,3.746 0,3.496 0,3.142M-1.989,2.986L-1.989,0.155C-1.989,-0.761 -1.541,-1.425 -0.508,-1.425C0.534,-1.425 0.982,-0.761 0.982,0.155L0.982,2.986C0.982,3.893 0.534,4.567 -0.508,4.567C-1.541,4.567 -1.989,3.893 -1.989,2.986" style="fill:white;fill-rule:nonzero;"/>
    </g>
    <g transform="matrix(4.16667,0,0,4.16667,235.203,93.4254)">
        <path d="M0,3.332L0,2.546L0.913,2.546L0.913,3.35C0.913,3.677 1.059,3.867 1.395,3.867C1.705,3.867 1.843,3.66 1.843,3.35L1.843,3.125C1.843,2.788 1.705,2.581 1.404,2.296L0.827,1.717C0.267,1.165 0.009,0.828 0.009,0.155L0.009,-0.044C0.009,-0.769 0.431,-1.33 1.387,-1.33C2.368,-1.33 2.756,-0.847 2.756,-0.001L2.756,0.474L1.86,0.474L1.86,-0.035C1.86,-0.372 1.705,-0.536 1.395,-0.536C1.119,-0.536 0.931,-0.38 0.931,-0.053L0.931,0.068C0.931,0.397 1.111,0.587 1.395,0.862L2.024,1.484C2.558,2.028 2.816,2.356 2.816,3.004L2.816,3.289C2.816,4.092 2.385,4.662 1.387,4.662C0.387,4.662 0,4.101 0,3.332" style="fill:white;fill-rule:nonzero;"/>
    </g>
</svg>
