<?xml version="1.0" encoding="UTF-8" standalone="no"?>
<!DOCTYPE svg PUBLIC "-//W3C//DTD SVG 1.1//EN" "http://www.w3.org/Graphics/SVG/1.1/DTD/svg11.dtd">
<svg width="100%" height="100%" viewBox="0 0 287 288" version="1.1" xmlns="http://www.w3.org/2000/svg" xmlns:xlink="http://www.w3.org/1999/xlink" xml:space="preserve" xmlns:serif="http://www.serif.com/" style="fill-rule:evenodd;clip-rule:evenodd;stroke-linejoin:round;stroke-miterlimit:2;">
    <g transform="matrix(-4.16667,0,0,4.16667,438.654,-3035.37)">
        <rect x="36.608" y="728.488" width="68.669" height="69.024" style="fill:rgb(63,175,73);"/>
    </g>
    <g transform="matrix(4.16667,0,0,4.16667,20.4346,72.6738)">
        <path d="M0,-8.779L0,-6.361L0.02,-6.361L1.652,-8.047L1.673,-8.047L1.673,2.5L3.999,2.5L3.999,-11.279L2.142,-11.279L0,-8.779Z" style="fill:white;fill-rule:nonzero;"/>
    </g>
    <g transform="matrix(4.16667,0,0,4.16667,60.1379,65.5617)">
        <path d="M0,-5.202C-0.918,-5.202 -1.591,-4.878 -1.959,-4.247L-1.979,-4.247L-1.979,-7.682L2.021,-7.682L2.021,-9.572L-4.101,-9.572L-4.101,-1.808L-1.979,-1.808L-1.979,-2.114C-1.979,-2.926 -1.612,-3.373 -0.959,-3.373C-0.245,-3.373 0.042,-2.885 0.042,-2.133L0.042,1.2C0.042,1.931 -0.224,2.439 -0.938,2.439C-1.734,2.439 -2.019,1.911 -2.019,1.098L-2.019,-0.63L-4.142,-0.63L-4.142,0.936C-4.142,3.029 -3.305,4.37 -0.938,4.37C1.408,4.37 2.367,3.13 2.367,1.22L2.367,-2.154C2.367,-4.329 1.245,-5.202 0,-5.202" style="fill:white;fill-rule:nonzero;"/>
    </g>
    <g transform="matrix(4.16667,0,0,4.16667,119.933,223.028)">
        <path d="M0,-4.812C0.076,-4.812 0.138,-4.75 0.138,-4.674L0.138,-0.138C0.138,-0.06 0.076,0 0,0L-1.843,0C-1.92,0 -1.982,-0.06 -1.982,-0.138L-1.982,-4.674C-1.982,-4.75 -1.92,-4.812 -1.843,-4.812L0,-4.812Z" style="fill:white;fill-rule:nonzero;"/>
    </g>
    <g transform="matrix(4.16667,0,0,4.16667,204.28,240.013)">
        <path d="M0,-2.128L-30.377,-2.128C-30.453,-2.128 -30.516,-2.063 -30.516,-1.986L-30.516,-0.137C-30.516,-0.061 -30.453,0 -30.377,0L0,0C0.075,0 0.139,-0.061 0.139,-0.137L0.139,-1.986C0.139,-2.063 0.075,-2.128 0,-2.128" style="fill:white;fill-rule:nonzero;"/>
    </g>
    <g transform="matrix(4.16667,0,0,4.16667,204.28,255.324)">
        <path d="M0,-2.127L-30.377,-2.127C-30.453,-2.127 -30.516,-2.066 -30.516,-1.991L-30.516,-0.136C-30.516,-0.062 -30.453,0 -30.377,0L0,0C0.075,0 0.139,-0.062 0.139,-0.136L0.139,-1.991C0.139,-2.066 0.075,-2.127 0,-2.127" style="fill:white;fill-rule:nonzero;"/>
    </g>
    <g transform="matrix(4.16667,0,0,4.16667,180.194,185.175)">
        <path d="M0,-0.749C-0.379,-1.045 -1.393,-1.735 -2.627,-1.735C-3.511,-1.735 -4.332,-1.388 -5.067,-0.702C-5.119,-0.653 -5.148,-0.586 -5.148,-0.513L-5.148,-0.348C-5.148,-0.267 -5.121,-0.191 -5.062,-0.141C-4.996,-0.092 -4.926,-0.073 -4.848,-0.092C-4.83,-0.094 -4.809,-0.1 -4.791,-0.106C-4.734,-0.126 -4.682,-0.159 -4.639,-0.202C-4.48,-0.308 -4.044,-0.454 -3.422,-0.454C-2.779,-0.454 -1.514,-0.283 -0.292,0.852L-0.264,0.877C-0.195,0.948 -0.1,0.987 0,0.987C0.096,0.987 0.195,0.947 0.257,0.88L0.282,0.854C1.511,-0.283 2.773,-0.454 3.416,-0.454C4.043,-0.454 4.476,-0.308 4.636,-0.202C4.68,-0.159 4.733,-0.125 4.804,-0.1C4.831,-0.092 4.908,-0.076 4.982,-0.094C5.094,-0.126 5.173,-0.226 5.173,-0.343L5.173,-0.489C5.173,-0.558 5.143,-0.628 5.092,-0.676C4.35,-1.381 3.52,-1.736 2.622,-1.736C1.399,-1.736 0.391,-1.057 0,-0.749" style="fill:white;fill-rule:nonzero;"/>
    </g>
    <g transform="matrix(4.16667,0,0,4.16667,172.34,140.463)">
        <path d="M0,-2.076C-0.065,-2.046 -0.111,-1.988 -0.133,-1.917L-0.163,-1.816C-0.186,-1.737 -0.172,-1.653 -0.123,-1.589C-0.076,-1.527 -0.01,-1.49 0.064,-1.487C0.079,-1.485 0.092,-1.482 0.102,-1.485C0.155,-1.487 0.203,-1.498 0.249,-1.522C0.276,-1.528 0.332,-1.543 0.433,-1.543C0.569,-1.543 1.794,-1.502 2.604,-0.131L2.614,-0.112C2.658,-0.032 2.727,0.022 2.809,0.044C2.832,0.051 2.877,0.058 2.905,0.058C2.961,0.058 3.018,0.044 3.058,0.02L3.078,0.011C3.521,-0.21 3.98,-0.323 4.433,-0.323C5.201,-0.323 5.702,-0.011 5.819,0.119C5.843,0.163 5.879,0.201 5.921,0.231C5.946,0.246 5.992,0.269 6.019,0.279C6.033,0.282 6.049,0.284 6.064,0.285C6.072,0.287 6.082,0.287 6.091,0.287C6.132,0.287 6.172,0.277 6.212,0.257C6.274,0.226 6.32,0.169 6.341,0.102L6.366,0.013C6.374,-0.01 6.377,-0.035 6.377,-0.061C6.377,-0.108 6.364,-0.154 6.341,-0.191C5.752,-1.211 4.895,-1.425 4.281,-1.425C3.823,-1.425 3.423,-1.306 3.188,-1.22C2.909,-1.593 2.206,-2.363 1.139,-2.363C0.764,-2.363 0.381,-2.267 0,-2.076" style="fill:white;fill-rule:nonzero;"/>
    </g>
    <g transform="matrix(4.16667,0,0,4.16667,145.595,149.377)">
        <path d="M0,0.439L0.009,0.575C0.013,0.66 0.058,0.734 0.13,0.779C0.19,0.817 0.267,0.829 0.334,0.81C0.349,0.806 0.366,0.801 0.379,0.796C0.431,0.774 0.476,0.741 0.51,0.699C0.639,0.606 1.056,0.437 1.669,0.437C2.259,0.437 3.156,0.594 4.071,1.342L4.092,1.364C4.157,1.42 4.241,1.452 4.326,1.452L4.349,1.452C4.444,1.444 4.533,1.401 4.587,1.337L4.607,1.315C5.62,0.248 6.711,0.089 7.271,0.089C7.67,0.089 7.952,0.171 8.062,0.233C8.104,0.269 8.156,0.297 8.221,0.315C8.238,0.319 8.283,0.327 8.332,0.322C8.351,0.32 8.376,0.313 8.395,0.307C8.504,0.269 8.575,0.163 8.568,0.047L8.561,-0.071C8.557,-0.142 8.523,-0.206 8.47,-0.251C7.865,-0.758 7.213,-1.013 6.527,-1.013C5.458,-1.013 4.606,-0.385 4.253,-0.077C3.93,-0.296 3.146,-0.747 2.226,-0.747C1.417,-0.747 0.693,-0.412 0.071,0.245C0.022,0.297 -0.003,0.368 0,0.439" style="fill:white;fill-rule:nonzero;"/>
    </g>
    <g transform="matrix(4.16667,0,0,4.16667,81.5429,167.281)">
        <path d="M0,-1.429C0,-3.241 1.475,-4.709 3.293,-4.709C3.365,-4.709 3.434,-4.702 3.504,-4.699C3.678,-6.992 5.596,-8.799 7.943,-8.799C10.404,-8.799 12.399,-6.813 12.399,-4.362C12.399,-3.667 12.234,-3.013 11.949,-2.428C14.179,-1.936 15.848,0.042 15.848,2.41C15.848,5.149 13.619,7.37 10.869,7.37C10.668,7.37 4.223,7.331 4.223,7.331C2.276,7.331 0.697,5.759 0.697,3.819C0.697,2.888 1.064,2.044 1.658,1.416C0.669,0.85 0,-0.211 0,-1.429" style="fill:white;fill-rule:nonzero;"/>
    </g>
    <g transform="matrix(4.16667,0,0,4.16667,101.233,49.4771)">
        <path d="M0,-5.76L-1.101,0L-2.158,0L-3.258,-5.76L-2.269,-5.76L-1.604,-1.742L-1.595,-1.742L-0.913,-5.76L0,-5.76Z" style="fill:white;fill-rule:nonzero;"/>
    </g>
    <g transform="matrix(4.16667,0,0,4.16667,-152.533,-3248.01)">
        <rect x="61.176" y="785.637" width="0.972" height="5.76" style="fill:white;"/>
    </g>
    <g transform="matrix(4.16667,0,0,4.16667,113.987,28.7679)">
        <path d="M0,4.18C0.401,4.18 0.554,3.942 0.554,3.594L0.554,0.578C0.554,0.238 0.401,0 0,0L-0.41,0L-0.41,4.18L0,4.18ZM1.526,0.756L1.526,3.424C1.526,4.307 1.16,4.97 0.119,4.97L-1.382,4.97L-1.382,-0.79L0.119,-0.79C1.16,-0.79 1.526,-0.135 1.526,0.756" style="fill:white;fill-rule:nonzero;"/>
    </g>
    <g transform="matrix(4.16667,0,0,4.16667,126.031,33.0875)">
        <path d="M0,2.107L0.776,2.107L0.392,-0.204L0.383,-0.204L0,2.107ZM-1.22,3.933L-0.128,-1.826L0.981,-1.826L2.081,3.933L1.083,3.933L0.904,2.88L-0.128,2.88L-0.299,3.933L-1.22,3.933Z" style="fill:white;fill-rule:nonzero;"/>
    </g>
    <g transform="matrix(4.16667,0,0,4.16667,94.0192,60.6175)">
        <path d="M0,4.18C0.4,4.18 0.554,3.942 0.554,3.594L0.554,0.578C0.554,0.238 0.4,0 0,0L-0.41,0L-0.41,4.18L0,4.18ZM1.526,0.756L1.526,3.424C1.526,4.307 1.16,4.97 0.119,4.97L-1.382,4.97L-1.382,-0.79L0.119,-0.79C1.16,-0.79 1.526,-0.135 1.526,0.756" style="fill:white;fill-rule:nonzero;"/>
    </g>
    <g transform="matrix(4.16667,0,0,4.16667,102.155,81.3271)">
        <path d="M0,-5.76L2.32,-5.76L2.32,-4.97L0.972,-4.97L0.972,-3.322L1.936,-3.322L1.936,-2.54L0.972,-2.54L0.972,-0.79L2.32,-0.79L2.32,0L0,0L0,-5.76Z" style="fill:white;fill-rule:nonzero;"/>
    </g>
    <g transform="matrix(4.16667,0,0,4.16667,116.65,81.3271)">
        <path d="M0,-5.76L2.32,-5.76L2.32,-4.97L0.972,-4.97L0.972,-3.322L1.936,-3.322L1.936,-2.54L0.972,-2.54L0.972,-0.79L2.32,-0.79L2.32,0L0,0L0,-5.76Z" style="fill:white;fill-rule:nonzero;"/>
    </g>
    <g transform="matrix(4.16667,0,0,4.16667,127.595,63.5225)">
        <path d="M0,2.786L0,0C0,-0.901 0.426,-1.555 1.45,-1.555C2.525,-1.555 2.823,-0.96 2.823,-0.111L2.823,0.569L1.936,0.569L1.936,-0.187C1.936,-0.544 1.817,-0.748 1.467,-0.748C1.118,-0.748 0.972,-0.501 0.972,-0.153L0.972,2.939C0.972,3.288 1.118,3.534 1.467,3.534C1.817,3.534 1.936,3.313 1.936,2.973L1.936,1.911L2.823,1.911L2.823,2.905C2.823,3.729 2.482,4.341 1.45,4.341C0.426,4.341 0,3.678 0,2.786" style="fill:white;fill-rule:nonzero;"/>
    </g>
    <g transform="matrix(4.16667,0,0,4.16667,149.235,62.885)">
        <path d="M0,3.092L0,0C0,-0.348 -0.154,-0.595 -0.503,-0.595C-0.845,-0.595 -0.998,-0.348 -0.998,0L-0.998,3.092C-0.998,3.441 -0.845,3.687 -0.503,3.687C-0.154,3.687 0,3.441 0,3.092M-1.97,2.939L-1.97,0.153C-1.97,-0.748 -1.527,-1.402 -0.503,-1.402C0.529,-1.402 0.972,-0.748 0.972,0.153L0.972,2.939C0.972,3.831 0.529,4.494 -0.503,4.494C-1.527,4.494 -1.97,3.831 -1.97,2.939" style="fill:white;fill-rule:nonzero;"/>
    </g>
    <g transform="matrix(4.16667,0,0,4.16667,154.846,62.4958)">
        <path d="M0,3.279L0,2.506L0.904,2.506L0.904,3.296C0.904,3.619 1.049,3.806 1.382,3.806C1.689,3.806 1.826,3.602 1.826,3.296L1.826,3.075C1.826,2.744 1.689,2.54 1.39,2.26L0.819,1.69C0.264,1.147 0.009,0.816 0.009,0.153L0.009,-0.043C0.009,-0.756 0.426,-1.308 1.373,-1.308C2.345,-1.308 2.729,-0.832 2.729,-0L2.729,0.467L1.843,0.467L1.843,-0.034C1.843,-0.365 1.689,-0.527 1.382,-0.527C1.109,-0.527 0.921,-0.374 0.921,-0.051L0.921,0.068C0.921,0.391 1.101,0.577 1.382,0.849L2.004,1.461C2.533,1.996 2.789,2.319 2.789,2.956L2.789,3.236C2.789,4.026 2.363,4.587 1.373,4.587C0.384,4.587 0,4.035 0,3.279" style="fill:white;fill-rule:nonzero;"/>
    </g>
    <g transform="matrix(4.16667,0,0,4.16667,-152.533,-3184.31)">
        <rect x="76.944" y="777.993" width="0.972" height="5.76" style="fill:white;"/>
    </g>
    <g transform="matrix(4.16667,0,0,4.16667,173.714,62.4958)">
        <path d="M0,3.279L0,2.506L0.904,2.506L0.904,3.296C0.904,3.619 1.049,3.806 1.382,3.806C1.689,3.806 1.826,3.602 1.826,3.296L1.826,3.075C1.826,2.744 1.689,2.54 1.39,2.26L0.819,1.69C0.264,1.147 0.009,0.816 0.009,0.153L0.009,-0.043C0.009,-0.756 0.426,-1.308 1.373,-1.308C2.346,-1.308 2.729,-0.832 2.729,-0L2.729,0.467L1.843,0.467L1.843,-0.034C1.843,-0.365 1.689,-0.527 1.382,-0.527C1.109,-0.527 0.921,-0.374 0.921,-0.051L0.921,0.068C0.921,0.391 1.101,0.577 1.382,0.849L2.004,1.461C2.533,1.996 2.79,2.319 2.79,2.956L2.79,3.236C2.79,4.026 2.363,4.587 1.373,4.587C0.384,4.587 0,4.035 0,3.279" style="fill:white;fill-rule:nonzero;"/>
    </g>
    <g transform="matrix(4.16667,0,0,4.16667,185.939,81.3271)">
        <path d="M0,-5.76L2.584,-5.76L2.584,-4.97L1.783,-4.97L1.783,0L0.802,0L0.802,-4.97L0,-4.97L0,-5.76Z" style="fill:white;fill-rule:nonzero;"/>
    </g>
    <g transform="matrix(4.16667,0,0,4.16667,198.054,81.3271)">
        <path d="M0,-5.76L2.32,-5.76L2.32,-4.97L0.972,-4.97L0.972,-3.322L1.936,-3.322L1.936,-2.54L0.972,-2.54L0.972,-0.79L2.32,-0.79L2.32,0L0,0L0,-5.76Z" style="fill:white;fill-rule:nonzero;"/>
    </g>
    <g transform="matrix(4.16667,0,0,4.16667,220.512,72.9021)">
        <path d="M0,-1.716L-0.025,-1.716L-0.682,2.022L-1.134,2.022L-1.859,-1.716L-1.876,-1.716L-1.876,2.022L-2.678,2.022L-2.678,-3.738L-1.544,-3.738L-0.913,-0.493L-0.904,-0.493L-0.341,-3.738L0.887,-3.738L0.887,2.022L0,2.022L0,-1.716Z" style="fill:white;fill-rule:nonzero;"/>
    </g>
    <g transform="matrix(4.16667,0,0,4.16667,230.423,64.9375)">
        <path d="M0,2.107L0.776,2.107L0.392,-0.204L0.384,-0.204L0,2.107ZM-1.22,3.933L-0.128,-1.826L0.981,-1.826L2.081,3.933L1.083,3.933L0.904,2.88L-0.128,2.88L-0.298,3.933L-1.22,3.933Z" style="fill:white;fill-rule:nonzero;"/>
    </g>
    <g transform="matrix(4.16667,0,0,4.16667,239.659,62.4958)">
        <path d="M0,3.279L0,2.506L0.905,2.506L0.905,3.296C0.905,3.619 1.049,3.806 1.382,3.806C1.689,3.806 1.826,3.602 1.826,3.296L1.826,3.075C1.826,2.744 1.689,2.54 1.39,2.26L0.819,1.69C0.264,1.147 0.009,0.816 0.009,0.153L0.009,-0.043C0.009,-0.756 0.426,-1.308 1.373,-1.308C2.346,-1.308 2.729,-0.832 2.729,-0L2.729,0.467L1.843,0.467L1.843,-0.034C1.843,-0.365 1.689,-0.527 1.382,-0.527C1.109,-0.527 0.922,-0.374 0.922,-0.051L0.922,0.068C0.922,0.391 1.101,0.577 1.382,0.849L2.005,1.461C2.533,1.996 2.789,2.319 2.789,2.956L2.789,3.236C2.789,4.026 2.363,4.587 1.373,4.587C0.384,4.587 0,4.035 0,3.279" style="fill:white;fill-rule:nonzero;"/>
    </g>
    <g transform="matrix(4.16667,0,0,4.16667,87.7996,113.177)">
        <path d="M0,-5.76L2.584,-5.76L2.584,-4.97L1.783,-4.97L1.783,0L0.801,0L0.801,-4.97L0,-4.97L0,-5.76Z" style="fill:white;fill-rule:nonzero;"/>
    </g>
    <g transform="matrix(4.16667,0,0,4.16667,99.9146,113.177)">
        <path d="M0,-5.76L2.32,-5.76L2.32,-4.97L0.972,-4.97L0.972,-3.322L1.936,-3.322L1.936,-2.54L0.972,-2.54L0.972,-0.79L2.32,-0.79L2.32,0L0,0L0,-5.76Z" style="fill:white;fill-rule:nonzero;"/>
    </g>
    <g transform="matrix(4.16667,0,0,4.16667,115.265,109.885)">
        <path d="M0,-4.18L0,-2.387L0.324,-2.387C0.657,-2.387 0.802,-2.557 0.802,-2.863L0.802,-3.712C0.802,-4.027 0.657,-4.18 0.324,-4.18L0,-4.18ZM0,-1.852L0,0.79L-0.972,0.79L-0.972,-4.97L0.444,-4.97C1.424,-4.97 1.783,-4.486 1.783,-3.679L1.783,-2.94C1.783,-2.32 1.561,-1.954 1.007,-1.827L1.936,0.79L0.913,0.79L0,-1.852Z" style="fill:white;fill-rule:nonzero;"/>
    </g>
    <g transform="matrix(4.16667,0,0,4.16667,128.414,109.885)">
        <path d="M0,-4.18L0,-2.387L0.324,-2.387C0.657,-2.387 0.802,-2.557 0.802,-2.863L0.802,-3.712C0.802,-4.027 0.657,-4.18 0.324,-4.18L0,-4.18ZM0,-1.852L0,0.79L-0.972,0.79L-0.972,-4.97L0.444,-4.97C1.424,-4.97 1.783,-4.486 1.783,-3.679L1.783,-2.94C1.783,-2.32 1.561,-1.954 1.006,-1.827L1.936,0.79L0.913,0.79L0,-1.852Z" style="fill:white;fill-rule:nonzero;"/>
    </g>
    <g transform="matrix(4.16667,0,0,4.16667,137.51,113.177)">
        <path d="M0,-5.76L2.32,-5.76L2.32,-4.97L0.972,-4.97L0.972,-3.322L1.936,-3.322L1.936,-2.54L0.972,-2.54L0.972,-0.79L2.32,-0.79L2.32,0L0,0L0,-5.76Z" style="fill:white;fill-rule:nonzero;"/>
    </g>
    <g transform="matrix(4.16667,0,0,4.16667,148.418,94.3454)">
        <path d="M0,3.279L0,2.506L0.904,2.506L0.904,3.296C0.904,3.619 1.049,3.806 1.382,3.806C1.689,3.806 1.825,3.602 1.825,3.296L1.825,3.075C1.825,2.744 1.689,2.54 1.39,2.26L0.819,1.69C0.264,1.147 0.009,0.816 0.009,0.153L0.009,-0.043C0.009,-0.756 0.426,-1.308 1.373,-1.308C2.345,-1.308 2.729,-0.833 2.729,-0L2.729,0.467L1.842,0.467L1.842,-0.034C1.842,-0.365 1.689,-0.527 1.382,-0.527C1.109,-0.527 0.921,-0.374 0.921,-0.051L0.921,0.068C0.921,0.391 1.101,0.577 1.382,0.849L2.004,1.461C2.533,1.996 2.789,2.319 2.789,2.956L2.789,3.236C2.789,4.026 2.363,4.587 1.373,4.587C0.384,4.587 0,4.035 0,3.279" style="fill:white;fill-rule:nonzero;"/>
    </g>
    <g transform="matrix(4.16667,0,0,4.16667,160.642,113.177)">
        <path d="M0,-5.76L2.584,-5.76L2.584,-4.97L1.783,-4.97L1.783,0L0.801,0L0.801,-4.97L0,-4.97L0,-5.76Z" style="fill:white;fill-rule:nonzero;"/>
    </g>
    <g transform="matrix(4.16667,0,0,4.16667,176.81,109.885)">
        <path d="M0,-4.18L0,-2.387L0.324,-2.387C0.657,-2.387 0.802,-2.557 0.802,-2.863L0.802,-3.712C0.802,-4.027 0.657,-4.18 0.324,-4.18L0,-4.18ZM0,-1.852L0,0.79L-0.972,0.79L-0.972,-4.97L0.444,-4.97C1.424,-4.97 1.783,-4.486 1.783,-3.679L1.783,-2.94C1.783,-2.32 1.561,-1.954 1.006,-1.827L1.936,0.79L0.913,0.79L0,-1.852Z" style="fill:white;fill-rule:nonzero;"/>
    </g>
    <g transform="matrix(4.16667,0,0,4.16667,185.905,113.177)">
        <path d="M0,-5.76L2.32,-5.76L2.32,-4.97L0.972,-4.97L0.972,-3.322L1.936,-3.322L1.936,-2.54L0.972,-2.54L0.972,-0.79L2.32,-0.79L2.32,0L0,0L0,-5.76Z" style="fill:white;fill-rule:nonzero;"/>
    </g>
    <g transform="matrix(4.16667,0,0,4.16667,196.81,94.3454)">
        <path d="M0,3.279L0,2.506L0.904,2.506L0.904,3.296C0.904,3.619 1.049,3.806 1.382,3.806C1.689,3.806 1.825,3.602 1.825,3.296L1.825,3.075C1.825,2.744 1.689,2.54 1.39,2.26L0.819,1.69C0.264,1.147 0.009,0.816 0.009,0.153L0.009,-0.043C0.009,-0.756 0.426,-1.308 1.373,-1.308C2.345,-1.308 2.729,-0.833 2.729,-0L2.729,0.467L1.842,0.467L1.842,-0.034C1.842,-0.365 1.689,-0.527 1.382,-0.527C1.109,-0.527 0.921,-0.374 0.921,-0.051L0.921,0.068C0.921,0.391 1.101,0.577 1.382,0.849L2.004,1.461C2.533,1.996 2.789,2.319 2.789,2.956L2.789,3.236C2.789,4.026 2.363,4.587 1.373,4.587C0.384,4.587 0,4.035 0,3.279" style="fill:white;fill-rule:nonzero;"/>
    </g>
</svg>
