<?xml version="1.0" encoding="utf-8"?>
<!-- Generator: Adobe Illustrator 24.2.1, SVG Export Plug-In . SVG Version: 6.00 Build 0)  -->
<svg version="1.1" id="Capa_1" xmlns:serif="http://www.serif.com/"
	 xmlns="http://www.w3.org/2000/svg" xmlns:xlink="http://www.w3.org/1999/xlink" x="0px" y="0px" viewBox="0 0 595.3 593.5"
	 style="enable-background:new 0 0 595.3 593.5;" xml:space="preserve">
<style type="text/css">
	.st0{fill:#FFFFFF;}
	.st1{fill-rule:evenodd;clip-rule:evenodd;fill:#193667;}
</style>
<g>
	<polygon class="st0" points="54.3,70.5 54.3,91.5 54.5,91.5 68.5,76.8 68.7,76.8 68.7,168.5 88.8,168.5 88.8,48.8 72.8,48.8 	"/>
	<polygon class="st0" points="98,65.2 129,65.2 102.2,168.5 122.1,168.5 148.4,67.3 148.4,48.8 98,48.8 	"/>
	<path class="st0" d="M364.9,307.2c-9.5-26.8-35-46.1-65-46.1c-30,0-55.5,19.3-65,46.1c-36.8,1.3-66.4,31.8-66.4,69.1
		c0,22.1,10.4,41.8,26.6,54.5c-1.8,6.1-2.7,12.5-2.7,19.2c0,38.1,30.9,69.1,68.9,69.1c14.4,0,27.8-4.5,38.9-12.1
		c11,7.4,24.1,11.6,38.2,11.6c38,0,68.9-31,68.9-69.1c0-6.5-0.9-12.8-2.6-18.8c16.1-12.7,26.5-32.3,26.5-54.4
		C431.3,339,401.7,308.6,364.9,307.2z M355,330.2c0,27.7-20.4,50.6-46.9,54.5c-0.4-2.8-0.7-5.6-0.7-8.5c0-27.7,20.4-50.6,46.9-54.5
		C354.7,324.5,355,327.3,355,330.2z M338.5,394.3c21.6,0,40.4,12.6,49.4,30.9c-7.6,4-16.3,6.3-25.5,6.3c-21.7,0-40.4-12.6-49.4-30.9
		C320.6,396.6,329.3,394.3,338.5,394.3z M299.9,275c22.6,0,42,13.7,50.5,33.2c-22.4,4-41.1,18.8-50.5,38.8
		c-9.4-20.1-28.1-34.9-50.5-38.8C257.9,288.7,277.3,275,299.9,275z M245.5,321.7c26.5,4,46.9,26.9,46.9,54.5c0,2.9-0.3,5.7-0.7,8.5
		c-26.5-4-46.9-26.9-46.9-54.5C244.8,327.3,245.1,324.5,245.5,321.7z M286.6,401c-9.1,18.1-27.7,30.5-49.2,30.5
		c-9.1,0-17.7-2.3-25.3-6.2c9.1-18.1,27.7-30.5,49.2-30.5C270.4,394.8,279,397,286.6,401z M182.4,376.3c0-28.5,21.6-51.9,49.2-54.9
		c-0.4,2.9-0.6,5.8-0.6,8.8c0,20.2,8.7,38.4,22.5,51.1c-22.9,2.6-42.4,16.5-52.9,35.9C189.4,407.1,182.4,392.5,182.4,376.3z
		 M261.3,505.2c-30.4,0-55.1-24.8-55.1-55.2c0-3.9,0.4-7.7,1.2-11.4c9.1,4.4,19.2,6.9,30,6.9c12.1,0,23.4-3.1,33.3-8.6
		c-0.8,4.1-1.2,8.4-1.2,12.7c0,18.7,7.4,35.6,19.5,48.1C280.9,502.4,271.4,505.2,261.3,505.2z M300.2,489.1
		c-10.3-10-16.7-24-16.7-39.5c0-15.3,6.2-29.1,16.2-39.1c10.3,10,16.7,24.1,16.7,39.6C316.4,465.2,310.2,479.1,300.2,489.1z
		 M338.5,504.7c-9.9,0-19.1-2.7-27.1-7.2c11.7-12.4,18.9-29.1,18.9-47.5c0-4.5-0.5-8.9-1.3-13.2c9.9,5.5,21.3,8.7,33.4,8.7
		c10.8,0,21-2.5,30.1-6.9c0.7,3.6,1.1,7.3,1.1,11C393.5,479.9,368.8,504.7,338.5,504.7z M399.3,417.1
		c-10.4-19.5-29.8-33.4-52.6-36.2c13.6-12.6,22.1-30.7,22.1-50.7c0-3-0.2-5.9-0.6-8.8c27.6,3,49.2,26.4,49.2,54.9
		C417.4,392.5,410.4,407,399.3,417.1z"/>
	<path class="st0" d="M197.7,86h10.2l2,11.1h7.8l-9.7-50h-9.8l-9.9,50h7.4L197.7,86z M202.6,56.8L202.6,56.8l3.7,21.6h-7.1
		L202.6,56.8z"/>
	<polygon class="st0" points="239.9,88.8 228.7,88.8 228.7,47.2 221.3,47.2 221.3,97.1 239.9,97.1 	"/>
	<polygon class="st0" points="261.8,88.8 250.7,88.8 250.7,47.2 243.2,47.2 243.2,97.1 261.8,97.1 	"/>
	<rect x="265.1" y="47.2" class="st0" width="7.5" height="50"/>
	<path class="st0" d="M285.4,86h10.2l2,11.1h7.8l-9.7-50h-9.8l-9.9,50h7.4L285.4,86z M290.3,56.8L290.3,56.8l3.7,21.6h-7.1
		L290.3,56.8z"/>
	<polygon class="st0" points="316,60.6 316.1,60.6 325.8,97.1 335.6,97.1 335.6,47.2 328.6,47.2 328.6,81.8 328.5,81.8 319.1,47.2 
		309,47.2 309,97.1 316,97.1 	"/>
	<path class="st0" d="M353.8,97.9c7,0,10.8-4.3,10.8-17.6h-7.4c-0.1,3.9,0,10.2-3.4,10.2c-4.2,0-4.7-5.5-4.7-18.3
		c0-12.8,0.5-18.3,4.7-18.3c2.2,0,3.1,2.5,3.1,9.1h7.3c0.3-10.7-2.8-16.6-10.4-16.6c-12.3,0-12.3,12.6-12.3,25.8
		C341.5,85.2,341.5,97.9,353.8,97.9z"/>
	<polygon class="st0" points="389.2,89.4 376.8,89.4 376.8,74.8 387.8,74.8 387.8,67.2 376.8,67.2 376.8,54.8 388.8,54.8 
		388.8,47.2 369.3,47.2 369.3,97.1 389.2,97.1 	"/>
	<path class="st0" d="M403.7,97.9c5.7,0,12.4-1.5,12.4-14.5c0-15.7-15-14.9-15-24.4c0-3.5,1.4-5.3,3.9-5.3c3,0,3.5,3.8,3.5,7.5h7.3
		c0.5-10.5-3.1-15-10.4-15c-9.1,0-11.7,6.2-11.7,14c0,14.9,15,15.4,15,24.4c0,3.4-1.2,5.7-3.8,5.7c-4.1,0-4.2-4-4.2-8.8h-7.5
		C392.7,90.3,394.4,97.9,403.7,97.9z"/>
	<polygon class="st0" points="437.9,97.1 445.3,97.1 445.3,55.5 453.6,55.5 453.6,47.2 429.6,47.2 429.6,55.5 437.9,55.5 	"/>
	<path class="st0" d="M469,46.3c-12.3,0-12.3,12.6-12.3,25.8c0,13.1,0,25.8,12.3,25.8c12.3,0,12.3-12.7,12.3-25.8
		C481.3,58.9,481.3,46.3,469,46.3z M469,90.5c-4.2,0-4.7-5.5-4.7-18.3c0-12.8,0.5-18.3,4.7-18.3c4.2,0,4.7,5.5,4.7,18.3
		C473.8,84.9,473.2,90.5,469,90.5z"/>
	<path class="st0" d="M197.7,154.3h10.2l2,11.1h7.8l-9.7-50h-9.8l-9.9,50h7.4L197.7,154.3z M202.6,125L202.6,125l3.7,21.6h-7.1
		L202.6,125z"/>
	<path class="st0" d="M233.2,166.2c7,0,10.8-4.3,10.8-17.6h-7.4c-0.1,3.9,0,10.2-3.4,10.2c-4.2,0-4.7-5.5-4.7-18.3
		s0.5-18.3,4.7-18.3c2.2,0,3.1,2.5,3.1,9.1h7.3c0.3-10.7-2.8-16.6-10.4-16.6c-12.3,0-12.3,12.6-12.3,25.8
		C220.9,153.5,220.9,166.2,233.2,166.2z"/>
	<polygon class="st0" points="256.4,115.4 248.9,115.4 248.9,165.4 256.4,165.4 256.4,143.1 264.9,143.1 264.9,165.4 272.4,165.4 
		272.4,115.4 264.9,115.4 264.9,135.4 256.4,135.4 	"/>
	<rect x="278.8" y="115.4" class="st0" width="7.5" height="50"/>
	<polygon class="st0" points="312.4,157.7 300,157.7 300,143.1 311.1,143.1 311.1,135.4 300,135.4 300,123.1 312,123.1 312,115.4 
		292.6,115.4 292.6,165.4 312.4,165.4 	"/>
	<polygon class="st0" points="327.8,151.7 327.7,151.7 322.1,115.4 314.4,115.4 323.2,165.4 331.9,165.4 341.3,115.4 334,115.4 	"/>
	<polygon class="st0" points="364.5,157.7 352.1,157.7 352.1,143.1 363.2,143.1 363.2,135.4 352.1,135.4 352.1,123.1 364.1,123.1 
		364.1,115.4 344.7,115.4 344.7,165.4 364.5,165.4 	"/>
	<polygon class="st0" points="393.2,123.7 401.5,123.7 401.5,115.4 377.5,115.4 377.5,123.7 385.8,123.7 385.8,165.4 393.2,165.4 	
		"/>
	<polygon class="st0" points="412.7,115.4 405.2,115.4 405.2,165.4 412.7,165.4 412.7,143.1 421.2,143.1 421.2,165.4 428.7,165.4 
		428.7,115.4 421.2,115.4 421.2,135.4 412.7,135.4 	"/>
	<polygon class="st0" points="442.6,143.1 453.7,143.1 453.7,135.4 442.6,135.4 442.6,123.1 454.6,123.1 454.6,115.4 435.2,115.4 
		435.2,165.4 455,165.4 455,157.7 442.6,157.7 	"/>
	<path class="st0" d="M190.7,208.6c0,13.1,0,25.8,12.3,25.8c12.3,0,12.3-12.7,12.3-25.8c0-13.2,0-25.8-12.3-25.8
		C190.7,182.8,190.7,195.4,190.7,208.6z M207.8,208.6c0,12.8-0.5,18.3-4.7,18.3s-4.7-5.5-4.7-18.3s0.5-18.3,4.7-18.3
		S207.8,195.8,207.8,208.6z"/>
	<path class="st0" d="M244.9,196.6c0-10.7-4.7-12.9-10.4-12.9h-13.2v50h13.2c3.2,0,11-0.6,11-13.2c0-6.9-1.4-11.6-6.7-12.7v-0.1
		C242.9,206.5,244.9,202.3,244.9,196.6z M228.8,191.3h4.6c2.5,0,4.3,2.7,4.3,6.4c0,4.8-2.3,6.4-3.9,6.4h-5V191.3z M232.9,225.9h-4.1
		v-14.2h4.3c3.8,0,4.9,2.7,4.9,7.1C238.1,225.8,234.5,225.9,232.9,225.9z"/>
	<path class="st0" d="M249,217c0,11.3,0.4,17.4,10.9,17.4c5.3,0,10.3-3.7,10.3-12.5v-38.3h-7.5v39c0,2.1-1.2,4.3-2.9,4.3
		c-3.9,0-3.3-6-3.3-10H249z"/>
	<polygon class="st0" points="276.1,233.6 295.9,233.6 295.9,225.9 283.5,225.9 283.5,211.3 294.6,211.3 294.6,203.6 283.5,203.6 
		283.5,191.3 295.5,191.3 295.5,183.6 276.1,183.6 	"/>
	<path class="st0" d="M312.7,234.4c7,0,10.8-4.3,10.8-17.6h-7.4c-0.1,3.9,0,10.2-3.4,10.2c-4.2,0-4.7-5.5-4.7-18.3
		s0.5-18.3,4.7-18.3c2.2,0,3.1,2.5,3.1,9.1h7.3c0.3-10.7-2.8-16.6-10.4-16.6c-12.3,0-12.3,12.6-12.3,25.8
		C300.4,221.7,300.4,234.4,312.7,234.4z"/>
	<polygon class="st0" points="341.1,233.6 341.1,191.9 349.4,191.9 349.4,183.6 325.4,183.6 325.4,191.9 333.7,191.9 333.7,233.6 	
		"/>
	<rect x="352.9" y="183.6" class="st0" width="7.5" height="50"/>
	<polygon class="st0" points="381.3,233.6 390.7,183.6 383.3,183.6 377.1,220 377,220 371.5,183.6 363.7,183.6 372.5,233.6 	"/>
	<polygon class="st0" points="413.9,225.9 401.5,225.9 401.5,211.3 412.5,211.3 412.5,203.6 401.5,203.6 401.5,191.3 413.5,191.3 
		413.5,183.6 394,183.6 394,233.6 413.9,233.6 	"/>
	<path class="st0" d="M425.8,195.6c0-3.5,1.4-5.3,3.9-5.3c3,0,3.5,3.8,3.5,7.5h7.3c0.5-10.5-3.1-15-10.4-15c-9.1,0-11.7,6.2-11.7,14
		c0,14.9,15,15.4,15,24.4c0,3.4-1.2,5.7-3.8,5.7c-4.1,0-4.2-4-4.2-8.8h-7.5c-0.4,8.7,1.3,16.3,10.6,16.3c5.7,0,12.4-1.5,12.4-14.5
		C440.8,204.3,425.8,205.1,425.8,195.6z"/>
</g>
<g>
	<path class="st1" d="M307.3,376.3c0,2.9,0.3,5.7,0.7,8.5c26.5-4,46.9-26.9,46.9-54.5c0-2.9-0.3-5.7-0.7-8.5
		C327.7,325.7,307.3,348.6,307.3,376.3z"/>
	<ellipse class="st1" cx="203" cy="208.6" rx="4.7" ry="18.3"/>
	<path class="st1" d="M291.8,384.8c0.4-2.8,0.7-5.6,0.7-8.5c0-27.7-20.4-50.6-46.9-54.5c-0.4,2.8-0.7,5.6-0.7,8.5
		C244.8,357.9,265.3,380.8,291.8,384.8z"/>
	<path class="st1" d="M362.4,431.5c9.2,0,17.8-2.3,25.5-6.3c-9-18.3-27.7-30.9-49.4-30.9c-9.2,0-17.8,2.3-25.5,6.3
		C322,418.9,340.7,431.5,362.4,431.5z"/>
	<path class="st1" d="M299.9,347.1c9.4-20.1,28.1-34.9,50.5-38.8c-8.5-19.5-27.9-33.2-50.5-33.2c-22.6,0-42,13.7-50.5,33.2
		C271.8,312.2,290.5,327,299.9,347.1z"/>
	<path class="st1" d="M233.1,211.7h-4.3v14.2h4.1c1.6,0,5.1-0.1,5.1-7.1C238.1,214.4,236.9,211.7,233.1,211.7z"/>
	<polygon class="st1" points="202.7,56.8 202.6,56.8 199.2,78.4 206.3,78.4 	"/>
	<path class="st1" d="M237.7,197.7c0-3.7-1.8-6.4-4.3-6.4h-4.6V204h5C235.4,204,237.7,202.5,237.7,197.7z"/>
	<polygon class="st1" points="290.4,56.8 290.3,56.8 286.9,78.4 294,78.4 	"/>
	<path class="st1" d="M212.1,425.3c7.6,3.9,16.2,6.2,25.3,6.2c21.5,0,40.1-12.5,49.2-30.5c-7.6-4-16.2-6.2-25.3-6.2
		C239.8,394.8,221.2,407.2,212.1,425.3z"/>
	<polygon class="st1" points="202.7,125 202.6,125 199.2,146.6 206.3,146.6 	"/>
	<path class="st1" d="M368.3,321.4c0.4,2.9,0.6,5.8,0.6,8.8c0,20-8.5,38-22.1,50.7c22.8,2.7,42.2,16.7,52.6,36.2
		c11.1-10.1,18.1-24.6,18.1-40.8C417.4,347.8,395.9,324.4,368.3,321.4z"/>
	<path class="st1" d="M0,0.2v594h593.9V0.2H0z M429.6,47.2h24v8.3h-8.3v41.7h-7.5V55.5h-8.3V47.2z M421.2,115.4h7.5v50h-7.5v-22.3
		h-8.5v22.3h-7.5v-50h7.5v20h8.5V115.4z M344.7,165.4v-50h19.4v7.7h-12v12.3h11.1v7.7h-11.1v14.6h12.4v7.7H344.7z M360.3,183.6v50
		h-7.5v-50H360.3z M325.4,191.9v-8.3h24v8.3h-8.3v41.7h-7.5v-41.7H325.4z M371.5,183.6L377,220h0.1l6.2-36.3h7.4l-9.4,50h-8.7
		l-8.8-50H371.5z M385.8,165.4v-41.7h-8.3v-8.3h24v8.3h-8.3v41.7H385.8z M394,183.6h19.4v7.7h-12v12.3h11.1v7.7h-11.1v14.6h12.4v7.7
		H394V183.6z M393.1,81.7h7.5c0,4.8,0.1,8.8,4.2,8.8c2.5,0,3.8-2.3,3.8-5.7c0-9-15-9.6-15-24.4c0-7.8,2.7-14,11.7-14
		c7.3,0,10.9,4.6,10.4,15h-7.3c0-3.7-0.4-7.5-3.5-7.5c-2.4,0-3.9,1.9-3.9,5.3c0,9.5,15,8.7,15,24.4c0,12.9-6.8,14.5-12.4,14.5
		C394.4,97.9,392.7,90.3,393.1,81.7z M369.3,47.2h19.4v7.7h-12v12.3h11.1v7.7h-11.1v14.6h12.4v7.7h-19.8V47.2z M353.8,46.3
		c7.6,0,10.7,5.9,10.4,16.6h-7.3c0-6.6-0.8-9.1-3.1-9.1c-4.2,0-4.7,5.5-4.7,18.3c0,12.8,0.5,18.3,4.7,18.3c3.5,0,3.3-6.2,3.4-10.2
		h7.4c0,13.4-3.8,17.6-10.8,17.6c-12.3,0-12.3-12.7-12.3-25.8C341.5,58.9,341.5,46.3,353.8,46.3z M331.9,165.4h-8.7l-8.8-50h7.7
		l5.5,36.3h0.1l6.2-36.3h7.4L331.9,165.4z M295.5,183.6v7.7h-12v12.3h11.1v7.7h-11.1v14.6h12.4v7.7h-19.8v-50H295.5z M278.8,165.4
		v-50h7.5v50H278.8z M292.6,165.4v-50H312v7.7h-12v12.3h11.1v7.7H300v14.6h12.4v7.7H292.6z M312.7,182.8c7.6,0,10.7,5.9,10.4,16.6
		h-7.3c0-6.6-0.8-9.1-3.1-9.1c-4.2,0-4.7,5.5-4.7,18.3s0.5,18.3,4.7,18.3c3.5,0,3.3-6.2,3.4-10.2h7.4c0,13.4-3.8,17.6-10.8,17.6
		c-12.3,0-12.3-12.7-12.3-25.8C300.4,195.4,300.4,182.8,312.7,182.8z M309,47.2h10.1l9.5,34.6h0.1V47.2h7v50h-9.8l-9.7-36.5H316
		v36.5h-7V47.2z M285.9,47.2h9.8l9.7,50h-7.8l-2-11.1h-10.2l-2,11.1h-7.4L285.9,47.2z M265.1,47.2h7.5v50h-7.5V47.2z M264.9,115.4
		h7.5v50h-7.5v-22.3h-8.5v22.3h-7.5v-50h7.5v20h8.5V115.4z M259.9,227c1.7,0,2.9-2.1,2.9-4.3v-39h7.5V222c0,8.7-5,12.5-10.3,12.5
		c-10.4,0-10.9-6.1-10.9-17.4h7.6C256.6,221,256,227,259.9,227z M243.2,47.2h7.5v41.7h11.2v8.3h-18.6V47.2z M245.5,220.4
		c0,12.7-7.8,13.2-11,13.2h-13.2v-50h13.2c5.7,0,10.4,2.3,10.4,12.9c0,5.7-2,9.9-6.1,11v0.1C244.1,208.8,245.5,213.5,245.5,220.4z
		 M221.3,47.2h7.5v41.7h11.2v8.3h-18.6V47.2z M233.2,114.6c7.6,0,10.7,5.9,10.4,16.6h-7.3c0-6.6-0.8-9.1-3.1-9.1
		c-4.2,0-4.7,5.5-4.7,18.3s0.5,18.3,4.7,18.3c3.5,0,3.3-6.2,3.4-10.2h7.4c0,13.4-3.8,17.6-10.8,17.6c-12.3,0-12.3-12.7-12.3-25.8
		C220.9,127.2,220.9,114.6,233.2,114.6z M198.2,47.2h9.8l9.7,50h-7.8l-2-11.1h-10.2l-2,11.1h-7.4L198.2,47.2z M198.2,115.4h9.8
		l9.7,50h-7.8l-2-11.1h-10.2l-2,11.1h-7.4L198.2,115.4z M215.3,208.6c0,13.1,0,25.8-12.3,25.8c-12.3,0-12.3-12.7-12.3-25.8
		c0-13.2,0-25.8,12.3-25.8C215.3,182.8,215.3,195.4,215.3,208.6z M88.8,168.5H68.7V76.8h-0.2L54.5,91.5h-0.2v-21l18.5-21.7h16V168.5
		z M148.4,67.3l-26.3,101.2h-19.9L129,65.2H98V48.8h50.4V67.3z M404.8,430.7c1.7,6,2.6,12.3,2.6,18.8c0,38.1-30.9,69.1-68.9,69.1
		c-14.1,0-27.3-4.3-38.2-11.6c-11.1,7.6-24.5,12.1-38.9,12.1c-38,0-68.9-31-68.9-69.1c0-6.7,1-13.1,2.7-19.2
		c-16.2-12.7-26.6-32.4-26.6-54.5c0-37.3,29.6-67.7,66.4-69.1c9.5-26.8,35-46.1,65-46.1c30,0,55.5,19.3,65,46.1
		c36.8,1.3,66.4,31.8,66.4,69.1C431.3,398.4,420.9,418,404.8,430.7z M428.4,234.4c-9.2,0-11-7.6-10.6-16.3h7.5
		c0,4.8,0.1,8.8,4.2,8.8c2.5,0,3.8-2.3,3.8-5.7c0-9-15-9.6-15-24.4c0-7.8,2.7-14,11.7-14c7.3,0,10.9,4.6,10.4,15h-7.3
		c0-3.7-0.4-7.5-3.5-7.5c-2.4,0-3.9,1.9-3.9,5.3c0,9.5,15,8.7,15,24.4C440.8,232.9,434.1,234.4,428.4,234.4z M455,165.4h-19.8v-50
		h19.4v7.7h-12v12.3h11.1v7.7h-11.1v14.6H455V165.4z M469,97.9c-12.3,0-12.3-12.7-12.3-25.8c0-13.2,0-25.8,12.3-25.8
		c12.3,0,12.3,12.6,12.3,25.8C481.3,85.2,481.3,97.9,469,97.9z"/>
	<path class="st1" d="M253.5,381.3c-13.8-12.6-22.5-30.9-22.5-51.1c0-3,0.2-5.9,0.6-8.8c-27.6,3-49.2,26.4-49.2,54.9
		c0,16.2,7.1,30.8,18.2,40.9C211.1,397.8,230.6,383.9,253.5,381.3z"/>
	<path class="st1" d="M362.4,445.4c-12.1,0-23.5-3.2-33.4-8.7c0.8,4.3,1.3,8.7,1.3,13.2c0,18.4-7.2,35.1-18.9,47.5
		c8,4.6,17.3,7.2,27.1,7.2c30.4,0,55.1-24.8,55.1-55.2c0-3.8-0.4-7.5-1.1-11C383.3,442.9,373.1,445.4,362.4,445.4z"/>
	<path class="st1" d="M469,53.8c-4.2,0-4.7,5.5-4.7,18.3c0,12.8,0.5,18.3,4.7,18.3c4.2,0,4.7-5.5,4.7-18.3
		C473.8,59.3,473.2,53.8,469,53.8z"/>
	<path class="st1" d="M299.6,410.4c-10,10-16.2,23.8-16.2,39.1c0,15.5,6.4,29.5,16.7,39.5c10-10,16.2-23.8,16.2-39.1
		C316.4,434.5,309.9,420.5,299.6,410.4z"/>
	<path class="st1" d="M270.7,436.8c-9.9,5.5-21.2,8.6-33.3,8.6c-10.7,0-20.9-2.5-30-6.9c-0.8,3.7-1.2,7.5-1.2,11.4
		c0,30.4,24.7,55.2,55.1,55.2c10.1,0,19.6-2.8,27.7-7.6c-12-12.5-19.5-29.4-19.5-48.1C269.5,445.2,270,440.9,270.7,436.8z"/>
</g>
</svg>
