<?xml version="1.0" encoding="UTF-8" standalone="no"?>
<!DOCTYPE svg PUBLIC "-//W3C//DTD SVG 1.1//EN" "http://www.w3.org/Graphics/SVG/1.1/DTD/svg11.dtd">
<svg width="100%" height="100%" viewBox="0 0 290 290" version="1.1" xmlns="http://www.w3.org/2000/svg" xmlns:xlink="http://www.w3.org/1999/xlink" xml:space="preserve" xmlns:serif="http://www.serif.com/" style="fill-rule:evenodd;clip-rule:evenodd;stroke-linecap:round;stroke-miterlimit:10;">
    <g transform="matrix(-4.16667,0,0,4.16667,441.438,-2890.05)">
        <rect x="36.573" y="693.613" width="69.372" height="69.403" style="fill:rgb(229,36,60);"/>
    </g>
    <g transform="matrix(4.16667,0,0,4.16667,40.3579,68.9904)">
        <path d="M0,-7.43L0.021,-7.43L0.021,3.282L2.372,3.282L2.372,-10.712L0.494,-10.712L-1.671,-8.173L-1.671,-5.718L-1.651,-5.718L0,-7.43Z" style="fill:white;fill-rule:nonzero;"/>
    </g>
    <g transform="matrix(0,4.16667,4.16667,0,230.602,129.965)">
        <path d="M1.92,-1.919C0.858,-1.919 -0.002,-1.058 -0.002,0.003C-0.002,1.062 0.858,1.92 1.92,1.92C2.981,1.92 3.841,1.062 3.841,0.003C3.841,-1.058 2.981,-1.919 1.92,-1.919" style="fill:white;fill-rule:nonzero;"/>
    </g>
    <g transform="matrix(4.16667,0,0,4.16667,239.955,224.241)">
        <path d="M0,-18.044C1.303,-17.926 2.324,-16.83 2.324,-15.492L2.324,-10.166C2.324,-9.757 1.991,-9.422 1.581,-9.422C1.168,-9.422 0.836,-9.757 0.836,-10.166L0.836,-14.741C0.836,-14.912 0.786,-15.144 0.472,-15.144C0.255,-15.144 0.21,-14.915 0.202,-14.768L0.202,-1.058C0.202,-0.469 -0.275,0.012 -0.866,0.012C-1.459,0.012 -1.938,-0.469 -1.938,-1.058L-1.938,-8.959C-1.941,-9.046 -1.97,-9.273 -2.242,-9.273L-2.243,-9.273C-2.516,-9.273 -2.549,-9.046 -2.552,-8.959L-2.552,-1.058C-2.552,-0.469 -3.029,0.012 -3.621,0.012C-4.214,0.012 -4.691,-0.469 -4.691,-1.058L-4.691,-14.768C-4.698,-14.915 -4.744,-15.144 -4.96,-15.144C-5.275,-15.144 -5.322,-14.912 -5.322,-14.741L-5.322,-10.166C-5.322,-9.757 -5.656,-9.422 -6.068,-9.422C-6.479,-9.422 -6.811,-9.757 -6.811,-10.166L-6.811,-15.492C-6.811,-16.83 -5.789,-17.926 -4.484,-18.044C-4.441,-18.049 -4.395,-18.056 -4.343,-18.056L-0.146,-18.056C-0.091,-18.056 -0.046,-18.049 0,-18.044" style="fill:white;fill-rule:nonzero;"/>
    </g>
    <g transform="matrix(0,-4.16667,-4.16667,0,167.448,134.592)">
        <path d="M-1.818,-1.817C-0.813,-1.817 0.003,-1.005 0.003,-0C0.003,1.004 -0.813,1.818 -1.818,1.818C-2.823,1.818 -3.638,1.004 -3.638,-0C-3.638,-1.005 -2.823,-1.817 -1.818,-1.817" style="fill:white;fill-rule:nonzero;"/>
    </g>
    <g transform="matrix(4.16667,0,0,4.16667,152.181,218.445)">
        <path d="M0,-14.185L-1.512,-9.261C-1.512,-9.261 -1.781,-8.359 -1.016,-8.134C-0.254,-7.908 -0.023,-8.789 -0.023,-8.789L1.196,-12.898C1.196,-12.898 1.262,-13.214 1.499,-13.146C1.737,-13.078 1.648,-12.74 1.648,-12.74L-0.474,-5.039L1.499,-5.039L1.499,0.476C1.499,0.998 1.924,1.423 2.448,1.423C2.971,1.423 3.394,0.998 3.394,0.476L3.394,-5.039L3.932,-5.039L3.932,0.476C3.932,0.998 4.355,1.423 4.879,1.423C5.404,1.423 5.828,0.998 5.828,0.476L5.828,-5.039L7.8,-5.039L5.68,-12.74C5.68,-12.74 5.591,-13.078 5.828,-13.146C6.066,-13.214 6.132,-12.898 6.132,-12.898L7.351,-8.789C7.351,-8.789 7.583,-7.908 8.343,-8.134C9.11,-8.359 8.839,-9.261 8.839,-9.261L7.328,-14.185C7.328,-14.185 6.787,-15.608 5.591,-15.608L1.737,-15.608C0.541,-15.608 0,-14.185 0,-14.185" style="fill:white;fill-rule:nonzero;"/>
    </g>
    <g transform="matrix(0,-4.16667,-4.16667,0,122.062,134.59)">
        <path d="M-1.819,-1.818C-0.814,-1.818 0.002,-1.005 0.002,0C0.002,1.005 -0.814,1.819 -1.819,1.819C-2.824,1.819 -3.639,1.005 -3.639,0C-3.639,-1.005 -2.824,-1.818 -1.819,-1.818" style="fill:white;fill-rule:nonzero;"/>
    </g>
    <g transform="matrix(4.16667,0,0,4.16667,106.793,218.445)">
        <path d="M0,-14.185L-1.511,-9.261C-1.511,-9.261 -1.781,-8.359 -1.016,-8.134C-0.254,-7.908 -0.023,-8.789 -0.023,-8.789L1.196,-12.898C1.196,-12.898 1.262,-13.214 1.499,-13.146C1.738,-13.078 1.648,-12.74 1.648,-12.74L-0.473,-5.039L1.499,-5.039L1.499,0.476C1.499,0.998 1.926,1.423 2.448,1.423C2.972,1.423 3.395,0.998 3.395,0.476L3.395,-5.039L3.933,-5.039L3.933,0.476C3.933,0.998 4.355,1.423 4.88,1.423C5.405,1.423 5.828,0.998 5.828,0.476L5.828,-5.039L7.801,-5.039L5.682,-12.74C5.682,-12.74 5.591,-13.078 5.828,-13.146C6.066,-13.214 6.132,-12.898 6.132,-12.898L7.35,-8.789C7.35,-8.789 7.582,-7.908 8.343,-8.134C9.11,-8.359 8.839,-9.261 8.839,-9.261L7.327,-14.185C7.327,-14.185 6.788,-15.608 5.591,-15.608L1.738,-15.608C0.542,-15.608 0,-14.185 0,-14.185" style="fill:white;fill-rule:nonzero;"/>
    </g>
    <g transform="matrix(4.16667,0,0,4.16667,200.47,171.976)">
        <path d="M0,3.029C0.837,3.029 1.513,2.351 1.513,1.513C1.513,0.676 0.837,0 0,0C-0.837,0 -1.514,0.676 -1.514,1.513C-1.514,2.351 -0.837,3.029 0,3.029" style="fill:white;fill-rule:nonzero;"/>
    </g>
    <g transform="matrix(4.16667,0,0,4.16667,185.347,207.203)">
        <path d="M0,-0.721C-0.074,-0.544 -0.135,-0.168 0.221,-0.005C0.637,0.187 0.869,-0.216 0.869,-0.216L1.692,-2.841C1.692,-2.841 1.835,-3.017 1.835,-2.835L1.835,3.345L1.839,3.345C1.839,3.775 2.185,4.122 2.616,4.122C3.045,4.122 3.392,3.775 3.392,3.345L3.392,0.906C3.392,0.906 3.347,0.561 3.625,0.561C3.903,0.561 3.86,0.906 3.86,0.906L3.86,3.345C3.86,3.775 4.208,4.122 4.638,4.122C5.066,4.122 5.416,3.775 5.416,3.345L5.416,-2.835C5.416,-3.017 5.512,-2.887 5.512,-2.887L6.157,-1.09C6.157,-1.09 6.437,-0.286 6.523,-0.251C6.814,-0.129 7.15,-0.268 7.273,-0.561C7.354,-0.753 7.323,-0.959 7.212,-1.114L7.217,-1.12C7.199,-1.178 6.253,-3.497 6.142,-3.823C5.801,-4.82 5.179,-4.811 4.581,-4.828C3.983,-4.842 3.625,-4.828 3.625,-4.828C3.625,-4.828 3.242,-4.843 2.452,-4.82C1.664,-4.795 1.414,-4.391 0.544,-2.151C0.42,-1.828 0,-0.785 -0.005,-0.722L0,-0.721Z" style="fill:white;fill-rule:nonzero;"/>
    </g>
    <g transform="matrix(0,-4.16667,-4.16667,0,53.9654,129.963)">
        <path d="M-1.921,-1.919C-0.859,-1.919 0.001,-1.057 0.001,0.003C0.001,1.063 -0.859,1.921 -1.921,1.921C-2.982,1.921 -3.842,1.063 -3.842,0.003C-3.842,-1.057 -2.982,-1.919 -1.921,-1.919" style="fill:white;fill-rule:nonzero;"/>
    </g>
    <g transform="matrix(4.16667,0,0,4.16667,44.6112,224.241)">
        <path d="M0,-18.044C-1.302,-17.926 -2.325,-16.83 -2.325,-15.492L-2.325,-10.166C-2.325,-9.757 -1.991,-9.422 -1.58,-9.422C-1.168,-9.422 -0.835,-9.757 -0.835,-10.166L-0.835,-14.741C-0.835,-14.912 -0.785,-15.144 -0.472,-15.144C-0.255,-15.144 -0.21,-14.915 -0.201,-14.768L-0.201,-1.058C-0.201,-0.469 0.275,0.012 0.867,0.012C1.459,0.012 1.937,-0.469 1.937,-1.058L1.937,-8.959C1.942,-9.046 1.97,-9.273 2.242,-9.273L2.243,-9.273C2.516,-9.273 2.549,-9.046 2.552,-8.959L2.552,-1.058C2.552,-0.469 3.029,0.012 3.621,0.012C4.213,0.012 4.69,-0.469 4.69,-1.058L4.69,-14.768C4.697,-14.915 4.745,-15.144 4.96,-15.144C5.275,-15.144 5.323,-14.912 5.323,-14.741L5.323,-10.166C5.323,-9.757 5.656,-9.422 6.068,-9.422C6.479,-9.422 6.812,-9.757 6.812,-10.166L6.812,-15.492C6.812,-16.83 5.79,-17.926 4.485,-18.044C4.441,-18.049 4.396,-18.056 4.344,-18.056L0.147,-18.056C0.092,-18.056 0.046,-18.049 0,-18.044" style="fill:white;fill-rule:nonzero;"/>
    </g>
    <g transform="matrix(-0.771997,4.09452,4.09452,0.771997,51.9369,210.927)">
        <path d="M-5.454,-4.521L3.749,-4.521" style="fill:none;fill-rule:nonzero;stroke:white;stroke-width:1.31px;"/>
    </g>
    <g transform="matrix(4.16667,0,0,4.16667,76.7929,223.295)">
        <path d="M0,-10.081C-0.099,-10.236 -0.27,-10.34 -0.467,-10.34C-0.771,-10.34 -1.019,-10.092 -1.019,-9.789C-1.019,-9.701 -0.965,-9.547 -0.965,-9.547L0.561,-6.785C0.561,-6.785 0.655,-6.594 0.655,-6.42L0.655,-0.487L0.657,-0.487C0.657,-0.074 0.991,0.259 1.404,0.259C1.816,0.259 2.148,-0.074 2.148,-0.487L2.148,-2.829C2.148,-2.829 2.106,-3.16 2.373,-3.16C2.64,-3.16 2.598,-2.829 2.598,-2.829L2.598,-0.487C2.598,-0.074 2.933,0.259 3.345,0.259C3.757,0.259 4.092,-0.074 4.092,-0.487L4.092,-6.42C4.092,-6.594 4.184,-6.785 4.184,-6.785L5.595,-9.335C5.595,-9.335 5.767,-9.701 5.767,-9.789C5.767,-10.092 5.521,-10.34 5.216,-10.34C5.016,-10.34 4.845,-10.236 4.749,-10.081L4.742,-10.084C4.698,-10.046 3.992,-8.788 3.758,-8.554C3.512,-8.306 3.291,-8.333 3.291,-8.333L1.457,-8.333C1.457,-8.333 1.235,-8.306 0.989,-8.554C0.753,-8.788 0.05,-10.046 0.004,-10.084L0,-10.081Z" style="fill:white;fill-rule:nonzero;"/>
    </g>
    <g transform="matrix(4.16667,0,0,4.16667,86.6808,171.976)">
        <path d="M0,3.029C0.837,3.029 1.513,2.351 1.513,1.513C1.513,0.676 0.837,0 0,0C-0.837,0 -1.513,0.676 -1.513,1.513C-1.513,2.351 -0.837,3.029 0,3.029" style="fill:white;fill-rule:nonzero;"/>
    </g>
    <g transform="matrix(4.16667,0,0,4.16667,86.6908,211.133)">
        <path d="M0,-4.243L1.711,-2.995L2.524,0L-2.526,0L-1.711,-2.995L0,-4.243Z" style="fill:white;fill-rule:nonzero;"/>
    </g>
    <g transform="matrix(4.16667,0,0,4.16667,77.305,47.9117)">
        <path d="M0,-5.849L2.302,-5.849L2.302,-5.047L0.983,-5.047L0.983,-3.373L1.966,-3.373L1.966,-2.579L0.983,-2.579L0.983,0L0,0L0,-5.849Z" style="fill:white;fill-rule:nonzero;"/>
    </g>
    <g transform="matrix(4.16667,0,0,4.16667,-152.388,-3107.78)">
        <rect x="57.859" y="751.517" width="0.983" height="5.849" style="fill:white;"/>
    </g>
    <g transform="matrix(4.16667,0,0,4.16667,98.6087,38.8529)">
        <path d="M0,-1.501L0,2.174L-0.828,2.174L-0.828,-3.675L0.138,-3.675L1.199,-0.319L1.199,-3.675L2.018,-3.675L2.018,2.174L1.156,2.174L0,-1.501Z" style="fill:white;fill-rule:nonzero;"/>
    </g>
    <g transform="matrix(4.16667,0,0,4.16667,83.1267,61.0242)">
        <path d="M0,4.245C0.405,4.245 0.56,4.004 0.56,3.65L0.56,0.587C0.56,0.242 0.405,0 0,0L-0.414,0L-0.414,4.245L0,4.245ZM1.543,0.768L1.543,3.477C1.543,4.374 1.172,5.047 0.12,5.047L-1.397,5.047L-1.397,-0.802L0.12,-0.802C1.172,-0.802 1.543,-0.138 1.543,0.768" style="fill:white;fill-rule:nonzero;"/>
    </g>
    <g transform="matrix(4.16667,0,0,4.16667,91.8904,82.0533)">
        <path d="M0,-5.849L2.346,-5.849L2.346,-5.047L0.983,-5.047L0.983,-3.373L1.958,-3.373L1.958,-2.579L0.983,-2.579L0.983,-0.802L2.346,-0.802L2.346,0L0,0L0,-5.849Z" style="fill:white;fill-rule:nonzero;"/>
    </g>
    <g transform="matrix(4.16667,0,0,4.16667,107.624,82.0533)">
        <path d="M0,-5.849L0.983,-5.849L0.983,-0.802L2.156,-0.802L2.156,0L0,0L0,-5.849Z" style="fill:white;fill-rule:nonzero;"/>
    </g>
    <g transform="matrix(4.16667,0,0,4.16667,122.964,65.4096)">
        <path d="M0,2.14L0.785,2.14L0.396,-0.207L0.388,-0.207L0,2.14ZM-1.233,3.995L-0.13,-1.855L0.991,-1.855L2.104,3.995L1.095,3.995L0.914,2.925L-0.13,2.925L-0.302,3.995L-1.233,3.995Z" style="fill:white;fill-rule:nonzero;"/>
    </g>
    <g transform="matrix(4.16667,0,0,4.16667,141.282,78.7129)">
        <path d="M0,-4.245L0,-1.941L0.363,-1.941C0.699,-1.941 0.845,-2.105 0.845,-2.425L0.845,-3.77C0.845,-4.09 0.699,-4.245 0.363,-4.245L0,-4.245ZM-0.983,-5.047L0.475,-5.047C1.466,-5.047 1.829,-4.556 1.829,-3.736L1.829,-2.502C1.829,-1.683 1.466,-1.182 0.475,-1.182L0,-1.182L0,0.802L-0.983,0.802L-0.983,-5.047Z" style="fill:white;fill-rule:nonzero;"/>
    </g>
    <g transform="matrix(4.16667,0,0,4.16667,159.316,63.3275)">
        <path d="M0,3.14L0,-0C0,-0.354 -0.155,-0.604 -0.509,-0.604C-0.854,-0.604 -1.009,-0.354 -1.009,-0L-1.009,3.14C-1.009,3.494 -0.854,3.744 -0.509,3.744C-0.155,3.744 0,3.494 0,3.14M-1.992,2.985L-1.992,0.155C-1.992,-0.76 -1.544,-1.424 -0.509,-1.424C0.535,-1.424 0.983,-0.76 0.983,0.155L0.983,2.985C0.983,3.89 0.535,4.564 -0.509,4.564C-1.544,4.564 -1.992,3.89 -1.992,2.985" style="fill:white;fill-rule:nonzero;"/>
    </g>
    <g transform="matrix(4.16667,0,0,4.16667,169.841,68.6454)">
        <path d="M0,0.587L0,2.416L0.432,2.416C0.759,2.416 0.914,2.252 0.914,1.941L0.914,1.061C0.914,0.751 0.768,0.587 0.423,0.587L0,0.587ZM0,-0.164L0.345,-0.164C0.664,-0.164 0.811,-0.328 0.811,-0.638L0.811,-1.354C0.811,-1.673 0.664,-1.829 0.336,-1.829L0,-1.829L0,-0.164ZM-0.983,-2.631L0.44,-2.631C1.423,-2.631 1.751,-2.174 1.751,-1.345L1.751,-0.75C1.751,-0.258 1.569,0.052 1.164,0.181C1.656,0.294 1.897,0.621 1.897,1.156L1.897,1.933C1.897,2.761 1.527,3.218 0.544,3.218L-0.983,3.218L-0.983,-2.631Z" style="fill:white;fill-rule:nonzero;"/>
    </g>
    <g transform="matrix(4.16667,0,0,4.16667,183.886,78.7129)">
        <path d="M0,-4.245L0,-2.425L0.328,-2.425C0.664,-2.425 0.811,-2.597 0.811,-2.908L0.811,-3.77C0.811,-4.09 0.664,-4.245 0.328,-4.245L0,-4.245ZM0,-1.881L0,0.802L-0.983,0.802L-0.983,-5.047L0.449,-5.047C1.44,-5.047 1.803,-4.556 1.803,-3.736L1.803,-2.985C1.803,-2.356 1.578,-1.985 1.018,-1.855L1.958,0.802L0.923,0.802L0,-1.881Z" style="fill:white;fill-rule:nonzero;"/>
    </g>
    <g transform="matrix(4.16667,0,0,4.16667,193.62,82.0533)">
        <path d="M0,-5.849L2.346,-5.849L2.346,-5.047L0.983,-5.047L0.983,-3.373L1.958,-3.373L1.958,-2.579L0.983,-2.579L0.983,-0.802L2.346,-0.802L2.346,0L0,0L0,-5.849Z" style="fill:white;fill-rule:nonzero;"/>
    </g>
    <g transform="matrix(4.16667,0,0,4.16667,209.57,61.0242)">
        <path d="M0,4.245L1.492,4.245L1.492,5.047L-1.026,5.047L-1.026,4.245L0.517,0L-0.871,0L-0.871,-0.802L1.552,-0.802L1.552,0L0,4.245Z" style="fill:white;fill-rule:nonzero;"/>
    </g>
    <g transform="matrix(4.16667,0,0,4.16667,222.503,65.4096)">
        <path d="M0,2.14L0.785,2.14L0.397,-0.207L0.388,-0.207L0,2.14ZM-1.233,3.995L-0.13,-1.855L0.992,-1.855L2.104,3.995L1.095,3.995L0.914,2.925L-0.13,2.925L-0.302,3.995L-1.233,3.995Z" style="fill:white;fill-rule:nonzero;"/>
    </g>
</svg>
