<?xml version="1.0" encoding="utf-8"?>
<!-- Generator: Adobe Illustrator 24.2.1, SVG Export Plug-In . SVG Version: 6.00 Build 0)  -->
<svg version="1.1" id="Capa_1" xmlns:serif="http://www.serif.com/"
	 xmlns="http://www.w3.org/2000/svg" xmlns:xlink="http://www.w3.org/1999/xlink" x="0px" y="0px" viewBox="0 0 595.3 594.9"
	 style="enable-background:new 0 0 595.3 594.9;" xml:space="preserve">
<style type="text/css">
	.st0{fill-rule:evenodd;clip-rule:evenodd;fill:#E5243C;}
	.st1{fill:#FFFFFF;}
</style>
<g transform="matrix(-4.16667,0,0,4.16667,441.438,-2890.05)">
	<polygon class="st0" points="-36.7,836.5 105.7,836.5 105.7,836.5 	"/>
</g>
<g transform="matrix(-4.16667,0,0,4.16667,441.438,-2890.05)">
	<polygon class="st0" points="-36.5,836.4 105.9,836.4 105.9,836.4 	"/>
</g>
<g transform="matrix(4.16667,0,0,4.16667,40.3579,68.9904)">
	<path class="st1" d="M12.1,2.3L12.1,2.3v22h4.8V-4.4H13L8.7,0.8v5l0,0L12.1,2.3z"/>
</g>
<g transform="matrix(0,4.16667,4.16667,0,230.602,129.965)">
	<path class="st1" d="M36.9,56.2c-2.2,0-3.9,1.8-3.9,3.9c0,2.2,1.8,3.9,3.9,3.9c2.2,0,3.9-1.8,3.9-3.9C40.8,58,39.1,56.2,36.9,56.2"
		/>
</g>
<g transform="matrix(4.16667,0,0,4.16667,239.955,224.241)">
	<path class="st1" d="M62.5,19.7c2.7,0.2,4.8,2.5,4.8,5.2v10.9c0,0.8-0.7,1.5-1.5,1.5s-1.5-0.7-1.5-1.5v-9.4c0-0.4-0.1-0.8-0.7-0.8
		c-0.4,0-0.5,0.5-0.6,0.8v28.1c0,1.2-1,2.2-2.2,2.2c-1.2,0-2.2-1-2.2-2.2V38.4c0-0.2-0.1-0.6-0.6-0.6l0,0c-0.6,0-0.6,0.5-0.6,0.6
		v16.2c0,1.2-1,2.2-2.2,2.2c-1.3,0-2.3-1-2.3-2.2V26.5c0-0.3-0.1-0.8-0.6-0.8c-0.6,0-0.7,0.5-0.7,0.8v9.4c0,0.8-0.7,1.5-1.5,1.5
		s-1.5-0.7-1.5-1.5V25c0-2.7,2.1-5,4.8-5.2c0.1,0,0.2,0,0.3,0h8.6C62.3,19.7,62.4,19.7,62.5,19.7"/>
</g>
<g transform="matrix(0,-4.16667,-4.16667,0,167.448,134.592)">
	<path class="st1" d="M-37.8-47.9c2.1,0,3.7,1.7,3.7,3.7c0,2.1-1.7,3.7-3.7,3.7c-2.1,0-3.7-1.7-3.7-3.7
		C-41.6-46.3-39.9-47.9-37.8-47.9"/>
</g>
<g transform="matrix(4.16667,0,0,4.16667,152.181,218.445)">
	<path class="st1" d="M40.3,26.2l-3.1,10.1c0,0-0.6,1.9,1,2.3c1.6,0.5,2-1.3,2-1.3l2.5-8.4c0,0,0.1-0.6,0.6-0.5s0.3,0.8,0.3,0.8
		L39.2,45h4v11.3c0,1.1,0.9,1.9,1.9,1.9c1.1,0,1.9-0.9,1.9-1.9V45h1.1v11.3c0,1.1,0.9,1.9,1.9,1.9c1.1,0,1.9-0.9,1.9-1.9V45h4
		l-4.4-15.8c0,0-0.2-0.7,0.3-0.8c1-0.2,1.1,0.4,1.1,0.4l2.5,8.4c0,0,0.5,1.8,2,1.3c1.6-0.5,1-2.3,1-2.3l-3.1-10.1
		c0,0-1.1-2.9-3.6-2.9h-7.8C41.5,23.3,40.3,26.2,40.3,26.2"/>
</g>
<g transform="matrix(0,-4.16667,-4.16667,0,122.062,134.59)">
	<path class="st1" d="M-37.9-36.5c2.1,0,3.7,1.7,3.7,3.7s-1.7,3.7-3.7,3.7c-2.1,0-3.7-1.7-3.7-3.7S-39.9-36.5-37.9-36.5"/>
</g>
<g transform="matrix(4.16667,0,0,4.16667,106.793,218.445)">
	<path class="st1" d="M28.9,26.2l-3.1,10.1c0,0-0.6,1.9,1,2.3c1.6,0.5,2-1.3,2-1.3l2.5-8.4c0,0,0.1-0.6,0.6-0.5s0.3,0.8,0.3,0.8
		L27.9,45h4v11.3c0,1.1,0.9,1.9,1.9,1.9c1.1,0,1.9-0.9,1.9-1.9V45h1.1v11.3c0,1.1,0.9,1.9,1.9,1.9c1.1,0,1.9-0.9,1.9-1.9V45h4
		l-4.3-15.8c0,0-0.2-0.7,0.3-0.8c0.5-0.1,0.6,0.5,0.6,0.5l2.5,8.4c0,0,0.5,1.8,2,1.3c1.6-0.5,1-2.3,1-2.3l-2.8-10.1
		c0,0-1.1-2.9-3.6-2.9h-7.9C30,23.3,28.9,26.2,28.9,26.2"/>
</g>
<g transform="matrix(4.16667,0,0,4.16667,200.47,171.976)">
	<path class="st1" d="M52.5,49.8c1.7,0,3.1-1.4,3.1-3.1c0-1.7-1.4-3.1-3.1-3.1c-1.7,0-3.1,1.4-3.1,3.1S50.8,49.8,52.5,49.8"/>
</g>
<g transform="matrix(4.16667,0,0,4.16667,185.347,207.203)">
	<path class="st1" d="M48.7,51c-0.2,0.4-0.3,1.1,0.5,1.5c0.9,0.4,1.3-0.4,1.3-0.4l1.7-5.4c0,0,0.3-0.4,0.3,0v12.7l0,0
		c0,0.9,0.7,1.6,1.6,1.6c0.9,0,1.6-0.7,1.6-1.6v-5c0,0-0.1-0.7,0.5-0.7s0.5,0.7,0.5,0.7v5c0,0.9,0.7,1.6,1.6,1.6
		c0.9,0,1.6-0.7,1.6-1.6V46.6c0-0.4,0.2-0.1,0.2-0.1l1.3,3.7c0,0,0.6,1.7,0.8,1.7c0.6,0.3,1.3,0,1.5-0.6c0.2-0.4,0.1-0.8-0.1-1.1
		l0,0c0-0.1-2-4.9-2.2-5.5c-0.7-2-2-2-3.2-2.1c-1.2,0-2,0-2,0s-0.8,0-2.4,0c-1.6,0.1-2.1,0.9-3.9,5.5C49.6,48.7,48.7,50.9,48.7,51
		L48.7,51z"/>
</g>
<g transform="matrix(0,-4.16667,-4.16667,0,53.9654,129.963)">
	<path class="st1" d="M-36.9-19.5c2.2,0,3.9,1.8,3.9,3.9s-1.8,3.9-3.9,3.9c-2.2,0-3.9-1.8-3.9-3.9S-39.1-19.5-36.9-19.5"/>
</g>
<g transform="matrix(4.16667,0,0,4.16667,76.7929,223.295)">
	<path class="st1" d="M21.3,35.8c-0.2-0.3-0.6-0.5-1-0.5c-0.6,0-1.1,0.5-1.1,1.1c0,0.2,0.1,0.5,0.1,0.5l3.1,5.7c0,0,0.2,0.4,0.2,0.7
		v12.2l0,0c0,0.8,0.7,1.5,1.5,1.5s1.5-0.7,1.5-1.5v-4.8c0,0-0.1-0.7,0.5-0.7c0.5,0,0.5,0.7,0.5,0.7v4.8c0,0.8,0.7,1.5,1.5,1.5
		s1.5-0.7,1.5-1.5V43.3c0-0.4,0.2-0.7,0.2-0.7l2.9-5.2c0,0,0.4-0.8,0.4-0.9c0-0.6-0.5-1.1-1.1-1.1c-0.4,0-0.8,0.2-1,0.5l0,0
		c-0.1,0.1-1.5,2.7-2,3.1c-0.5,0.5-1,0.5-1,0.5h-3.8c0,0-0.5,0.1-1-0.5C22.8,38.5,21.4,35.9,21.3,35.8L21.3,35.8z"/>
</g>
<g transform="matrix(4.16667,0,0,4.16667,86.6808,171.976)">
	<path class="st1" d="M23.8,49.8c1.7,0,3.1-1.4,3.1-3.1c0-1.7-1.4-3.1-3.1-3.1s-3.1,1.4-3.1,3.1S22.1,49.8,23.8,49.8"/>
</g>
<g transform="matrix(4.16667,0,0,4.16667,86.6908,211.133)">
	<path class="st1" d="M23.8,44.7l3.5,2.6l1.7,6.1H18.6l1.7-6.1L23.8,44.7z"/>
</g>
<g>
	<path class="st1" d="M152.6,100.3V50.1h19.9v7.7h-12.3v12.4h11.3v7.7h-11.3v14.7h12.7v7.7L152.6,100.3L152.6,100.3z"/>
	<path class="st1" d="M177.9,100.3V50.1h10.3l9.7,34.7h0.1V50.1h7.1v50.2H195l-9.9-36.7H185v36.7H177.9z"/>
	<path class="st1" d="M211.7,50.1h12.7c10,0,11.9,9.2,11.9,24.8c0,7.7,0.9,25.4-12.2,25.4h-12.4V50.1z M219.3,92.6h3.7
		c4.6,0,5.6-4.8,5.6-17.4c0-9.2,0-17.4-5.3-17.4h-3.9v34.8C219.4,92.6,219.3,92.6,219.3,92.6z"/>
	<path class="st1" d="M152.2,145.6c0-13.3,0-25.9,12.6-25.9s12.6,12.6,12.6,25.9c0,13.1,0,25.9-12.6,25.9S152.2,158.8,152.2,145.6z
		 M169.7,145.6c0-12.9-0.6-18.4-4.8-18.4c-4.3,0-4.8,5.6-4.8,18.4s0.6,18.4,4.8,18.4C169.1,164,169.7,158.5,169.7,145.6z"/>
	<path class="st1" d="M183.3,170.7v-50.2h18.9v7.7h-11.3v12.9h10.8v7.7h-10.8v21.9L183.3,170.7L183.3,170.7z"/>
	<path class="st1" d="M217.1,120.5h13.7c7,0,9.7,5.8,9.7,15c0,5.7-1.2,14.7-10.2,14.7h-5.7v20.4H217v-50.1
		C217,120.5,217.1,120.5,217.1,120.5z M224.8,142.6h4.2c2.3,0,3.8-3.4,3.8-6.7c0-4.1-0.8-7.6-4.2-7.6h-3.8V142.6z"/>
	<path class="st1" d="M244.8,145.6c0-13.3,0-25.9,12.6-25.9c12.6,0,12.6,12.6,12.6,25.9c0,13.1,0,25.9-12.6,25.9
		C244.8,171.5,244.8,158.8,244.8,145.6z M262.2,145.6c0-12.9-0.6-18.4-4.8-18.4c-4.3,0-4.8,5.6-4.8,18.4s0.6,18.4,4.8,18.4
		C261.7,164,262.2,158.5,262.2,145.6z"/>
	<path class="st1" d="M273.1,120.5h7.9l5.7,36.5h0.1l6.4-36.5h7.5l-9.6,50.2h-8.9L273.1,120.5z"/>
	<path class="st1" d="M304.1,170.7v-50.2H324v7.7h-12.3v12.4H323v7.7h-11.3V163h12.7v7.7H304.1z"/>
	<path class="st1" d="M336.8,170.7h-7.6v-50.2h14.1c5.2,0,8.5,4.6,8.5,13.1c0,6.4-1.8,11.2-6.8,12.3v0.1c1.7,0.3,6.6,0.8,6.6,9.9
		c0,3.2,0.2,12.6,0.9,14.7H345c-1-3.1-0.8-6.5-0.8-9.7c0-6,0.4-11-5.5-11h-2L336.8,170.7L336.8,170.7z M336.8,142.2h3.4
		c3,0,3.9-4.2,3.9-7.4c0-4.8-1.5-6.6-3.9-6.6h-3.4V142.2z"/>
	<path class="st1" d="M379.2,120.5v8.3h-8.5v41.8H363v-41.8h-8.5v-8.3H379.2z"/>
	<path class="st1" d="M389.4,153.3l-9.5-32.8h8.3l5.5,21.2l5.8-21.2h7.8L397,153.3v17.4h-7.6V153.3z"/>
</g>
<path class="st1" d="M136.8,307.5c-0.4,0-0.8,0-1.2,0H99.7c0.4-0.4,0-0.4-0.4,0c-11.3,0.8-20,10.4-20,21.7v45.4c0,1,0.3,2,0.8,2.9
	l-0.6-0.1l-13.2,78.8l7.6,1.3l12.9-76.7c2.8-0.6,5-3.2,5-6.1v-39.2c0-1.7,0.4-3.3,2.9-3.3c1.7,0,2.1,2.1,2.5,3.3v117.1
	c0,5,4.2,9.2,9.2,9.2s9.2-4.2,9.2-9.2V385c0-0.8,0.4-2.5,2.5-2.5c2.5,0,2.5,2.1,2.5,2.5v67.5c0,5,4.2,9.2,9.2,9.2
	c5,0,9.2-4.2,9.2-9.2V335.4c0-1.3,0.4-3.3,2.5-3.3c2.5,0,2.9,2.1,2.9,3.3v39.2c0,3.3,2.9,6.3,6.3,6.3c3.3,0,6.3-2.9,6.3-6.3v-45.4
	C156.8,317.9,148,308.3,136.8,307.5z"/>
<g>
	<ellipse class="st0" cx="165" cy="144.6" rx="4.8" ry="18.4"/>
	<path class="st0" d="M224.9,127.3v14.3h4.2c2.3,0,3.8-3.4,3.8-6.7c0-4.1-0.8-7.6-4.2-7.6H224.9z"/>
	<ellipse class="st0" cx="257.5" cy="144.6" rx="4.8" ry="18.4"/>
	<path class="st0" d="M344.2,133.8c0-4.8-1.5-6.6-3.9-6.6h-3.4v14h3.4C343.3,141.2,344.2,137,344.2,133.8z"/>
	<path class="st0" d="M228.7,74.2c0-9.2,0-17.4-5.3-17.4h-3.9v34.8h3.6C227.7,91.6,228.7,86.8,228.7,74.2z"/>
	<path class="st0" d="M0.4,0.6v593.6h596.2V0.6H0.4z M481.2,266.3c9.2,0,16.3,7.5,16.3,16.3c0,9.2-7.5,16.3-16.3,16.3
		s-16.3-7.1-16.3-16.3C464.9,273.3,472.4,266.3,481.2,266.3z M419.4,352.4c7.1,0,12.9,5.8,12.9,12.9s-5.8,12.9-12.9,12.9
		s-12.9-5.8-12.9-12.9S412.3,352.4,419.4,352.4z M388.3,119.5l5.5,21.2l5.8-21.2h7.8l-10.3,32.8v17.4h-7.6v-17.4l-9.5-32.8H388.3z
		 M354.6,119.5h24.7v8.3h-8.5v41.8h-7.7v-41.8h-8.5V119.5z M367.2,290.9c0,8.8-6.7,15.8-15.4,15.4c-8.3,0-15.4-6.7-15.4-15.4
		c0-8.3,6.7-15.4,15.4-15.4C360.1,275.5,367.2,282.1,367.2,290.9z M329.3,119.5h14.1c5.2,0,8.5,4.6,8.5,13.1
		c0,6.4-1.8,11.2-6.8,12.3v0.1c1.7,0.3,6.6,0.8,6.6,9.9c0,3.2,0.2,12.6,0.9,14.7h-7.5c-1-3.1-0.8-6.5-0.8-9.7c0-6,0.4-11-5.5-11h-2
		l0.1,20.8h-7.6L329.3,119.5L329.3,119.5z M281.1,119.5l5.7,36.5h0.1l6.4-36.5h7.5l-9.6,50.2h-8.9l-9.1-50.2H281.1z M257.5,118.7
		c12.6,0,12.6,12.6,12.6,25.9c0,13.1,0,25.9-12.6,25.9s-12.6-12.7-12.6-25.9C244.9,131.3,244.9,118.7,257.5,118.7z M258.9,275.9
		c8.3,0,15.4,6.7,15.4,15.4c0,8.3-7.1,15.4-15.4,15.4c-8.3,0-15.4-6.7-15.4-15.4C243.4,283,250.5,275.9,258.9,275.9z M240.6,134.5
		c0,5.7-1.2,14.7-10.2,14.7h-5.7v20.4h-7.6v-50.1h0.1h13.7C237.9,119.5,240.6,125.3,240.6,134.5z M211.8,49.1h12.7
		c10,0,11.9,9.2,11.9,24.8c0,7.7,0.9,25.4-12.2,25.4h-12.4V49.1z M178,49.1h10.3l9.7,34.7h0.1V49.1h7.1v50.2h-10.1l-9.9-36.7h-0.1
		v36.7H178V49.1z M201.8,140.1v7.7H191v21.9h-7.6v-50.2h18.9v7.7H191v12.9L201.8,140.1L201.8,140.1z M198.9,365.4
		c0,7.1-5.8,12.9-12.9,12.9c-7.1,0-12.9-5.8-12.9-12.9s5.8-12.9,12.9-12.9C193.1,352.4,198.9,358.3,198.9,365.4z M152.7,49.1h19.9
		v7.7h-12.3v12.4h11.3v7.7h-11.3v14.7H173v7.7h-20.3V49.1z M164.9,118.7c12.6,0,12.6,12.6,12.6,25.9c0,13.1,0,25.9-12.6,25.9
		s-12.6-12.7-12.6-25.9C152.3,131.3,152.3,118.7,164.9,118.7z M135.4,282.5c0,9.2-7.5,16.3-16.3,16.3s-16.3-7.1-16.3-16.3
		c0-8.8,7.5-16.3,16.3-16.3C127.9,266.3,135.4,273.3,135.4,282.5z M76.7,71.1l17.9-21.7h16.3V169h-20V77.4L76.7,91.9V71.1z
		 M156.8,373.6c0,3.3-2.9,6.3-6.3,6.3c-3.3,0-6.3-2.9-6.3-6.3v-39.2c0-1.3-0.4-3.3-2.9-3.3c-2.1,0-2.5,2.1-2.5,3.3v117.1
		c0,5-4.2,9.2-9.2,9.2s-9.2-4.2-9.2-9.2V384c0-0.4,0-2.5-2.5-2.5c-2.1,0-2.5,1.7-2.5,2.5v67.5c0,5-4.2,9.2-9.2,9.2s-9.2-4.2-9.2-9.2
		V334.4c-0.4-1.3-0.8-3.3-2.5-3.3c-2.5,0-2.9,1.7-2.9,3.3v39.2c0,2.9-2.2,5.5-5,6.1l-12.9,76.7l-7.6-1.3l13.2-78.8l0.6,0.1
		c-0.5-0.9-0.8-1.9-0.8-2.9v-45.4c0-11.3,8.8-20.8,20-21.7c0.4-0.4,0.8-0.4,0.4,0h35.8c0.4,0,0.8,0,1.2,0c11.3,0.8,20,10.4,20,21.7
		v45.5H156.8z M297.3,378.1c-6.3,2.1-8.3-5.4-8.3-5.4l-10.4-35c0,0-0.4-2.5-2.5-2.1s-1.3,3.3-1.3,3.3l17.9,65.8H276v47.1
		c0,4.2-3.3,7.9-7.9,7.9c-4.2,0-7.9-3.3-7.9-7.9v-47.1h-4.6v47.1c0,4.2-3.3,7.9-7.9,7.9c-4.2,0-7.9-3.3-7.9-7.9v-47.1h-16.7
		l17.9-65.8c0,0,0.8-2.9-1.3-3.3s-2.5,2.1-2.5,2.1l-10.4,35c0,0-1.7,7.5-8.3,5.4c-2.2-0.5-3.4-1.8-4-3.2c-0.5,1.1-1.4,3-1.4,3
		L201,399.6c0,0-0.8,1.3-0.8,2.9v4.3l0.3,0.2l7.1,25.4h-7.4v20.9c0,3.3-2.9,6.3-6.3,6.3c-3.3,0-6.3-2.9-6.3-6.3v-20
		c0,0,0-0.4-0.1-0.9h-4.1c-0.1,0.5,0,0.9,0,0.9v20c0,3.3-2.9,6.3-6.3,6.3c-3.3,0-6.3-2.9-6.3-6.3v-20.9H164l6.8-24.3v-5.6
		c0-1.2-0.8-2.9-0.8-2.9l-12.9-23.8c0,0-0.4-1.3-0.4-2.1c0-2.5,2.1-4.6,4.6-4.6c1.7,0,3.3,0.8,4.2,2.1c0.4,0.4,6.3,11.3,7.9,13.3
		c2.1,2.5,4.2,2.1,4.2,2.1h15.8c0,0,2.1,0,4.2-2.1c2.1-1.7,7.9-12.5,8.3-12.9c0.8-1.3,2.5-2.1,4.2-2.1c1.5,0,2.9,0.8,3.7,1.9
		c0-1.7,0.5-3,0.5-3l12.9-42.1c0,0,4.6-12.1,14.6-12.1h32.9c10.4,0,15,12.1,15,12.1l11.7,42.1C301.5,368.5,304,376,297.3,378.1z
		 M304.2,119.5h19.9v7.7h-12.3v12.4h11.3v7.7h-11.3V162h12.7v7.7h-20.3L304.2,119.5L304.2,119.5z M366.9,338.9l18.3,65.8h-16.7v47.1
		c0,4.2-3.3,7.9-7.9,7.9c-4.2,0-7.9-3.3-7.9-7.9v-47.1h-4.6v47.1c0,4.2-3.3,7.9-7.9,7.9c-4.2,0-7.9-3.3-7.9-7.9v-47.1h-16.7
		l18.3-65.8c0,0,0.8-2.9-1.3-3.3s-2.5,2.1-2.5,2.1l-10.4,35c0,0-1.7,7.5-8.3,5.4c-6.7-1.7-4.2-9.6-4.2-9.6l12.9-42.1
		c0,0,5-12.1,15-12.5h32.5c10.4,0,15,12.1,15,12.1l12.9,42.1c0,0,2.5,7.5-4.2,9.6c-6.3,2.1-8.3-5.4-8.3-5.4l-10.4-35
		c0,0-0.4-2.5-4.6-1.7C366.1,336,366.9,338.9,366.9,338.9z M450.9,419.7c-0.8,2.5-3.8,3.8-6.3,2.5c-0.8,0-3.3-7.1-3.3-7.1l-5.4-15.4
		c0,0-0.8-1.3-0.8,0.4v53.3c0,3.8-2.9,6.7-6.7,6.7s-6.7-2.9-6.7-6.7v-20.8c0,0,0.4-2.9-2.1-2.9s-2.1,2.9-2.1,2.9v20.8
		c0,3.8-2.9,6.7-6.7,6.7s-6.7-2.9-6.7-6.7v-52.9c0-1.7-1.3,0-1.3,0l-7.1,22.5c0,0-1.7,3.3-5.4,1.7c-3.3-1.7-2.9-4.6-2.1-6.3
		c0-0.4,3.8-9.6,5-12.1c7.5-19.2,9.6-22.5,16.3-22.9c6.7,0,10,0,10,0s3.3,0,8.3,0c5,0.4,10.4,0.4,13.3,8.8
		c0.8,2.5,9.2,22.5,9.2,22.9C451.3,416.4,451.7,418.1,450.9,419.7z M520.5,372.2c0,3.3-2.9,6.3-6.3,6.3c-3.3,0-6.3-2.9-6.3-6.3V333
		c0-1.7-0.4-3.3-2.9-3.3c-1.7,0-2.1,2.1-2.5,3.3v117.1c0,5-4.2,9.2-9.2,9.2s-9.2-4.2-9.2-9.2V383c0-0.8-0.4-2.5-2.5-2.5
		c-2.5,0-2.5,2.1-2.5,2.5v67.5c0,5-4.2,9.2-9.2,9.2c-5.4,0-9.6-4.2-9.6-9.2v-117c0-1.3-0.4-3.3-2.5-3.3c-2.5,0-2.9,2.1-2.9,3.3v39.2
		c0,3.3-2.9,6.3-6.3,6.3s-6.3-2.9-6.3-6.3v-45.4c0-11.3,8.8-20.8,20-21.7c0.4,0,0.8,0,1.3,0h35.8c0-0.4,0.4-0.4,0.8-0.4
		c11.3,0.8,20,10.4,20,21.7v45.3H520.5z"/>
</g>
</svg>
