<?xml version="1.0" encoding="utf-8"?>
<!-- Generator: Adobe Illustrator 24.2.1, SVG Export Plug-In . SVG Version: 6.00 Build 0)  -->
<svg version="1.1" id="Capa_1" xmlns:serif="http://www.serif.com/"
	 xmlns="http://www.w3.org/2000/svg" xmlns:xlink="http://www.w3.org/1999/xlink" x="0px" y="0px" viewBox="0 0 595.3 597.9"
	 style="enable-background:new 0 0 595.3 597.9;" xml:space="preserve">
<style type="text/css">
	.st0{fill:#FFFFFF;}
	.st1{fill-rule:evenodd;clip-rule:evenodd;fill:#48773D;}
</style>
<g>
	<polygon class="st0" points="38.4,70.4 38.3,91.3 38.5,91.3 52.6,76.8 52.8,76.8 52.3,168 72.4,168.1 72.9,48.9 56.9,48.8 	"/>
	<path class="st0" d="M110.5,169.7c20.2,0.1,29.1-10.6,29.1-27.1l0.1-17.6c0.1-10.9-4.7-18-14.7-20.3c8.3-2.6,13.7-9.3,13.8-19.3
		l0.1-10.4c0.1-16.9-7.9-27.3-26.4-27.4c-20.7-0.1-28,12.2-28.1,29.8L84.3,88l18.3,0.1l0.1-12.1c0-7.4,2.4-11.6,8.7-11.6
		c6.3,0,8.6,4.3,8.5,10.8L119.8,88c0,6.3-4.3,9.6-10.8,9.6l-7.6,0l-0.1,15.3l8.4,0c7,0,9.8,3.4,9.8,9.7l-0.1,19.7
		c0,6.3-2.9,10.7-9,10.7c-6.9,0-9.3-4.6-9.3-11.6l0.1-17.1l-18.3-0.1L83,139.9C82.9,158,90.1,169.6,110.5,169.7z"/>
	<path class="st0" d="M513.8,371.8c-15.5-21.9-85.5-109.6-216.5-110.2c-131-0.6-201.8,86.3-217.6,108.1c-0.7,0.9-1.2,1.7-1.7,2.4
		c0.5,0.7,1,1.5,1.7,2.5c15.5,21.9,85.5,109.6,216.5,110.2c131,0.7,201.9-86.3,217.5-108.1c0.7-0.9,1.3-1.7,1.7-2.4
		C515,373.6,514.4,372.8,513.8,371.8z M224,316.5c1.2-1.7,5.1-6.7,5.6-7.3c1-1.3,3-1.5,4.4-1.8c1.4-0.3,3.2,0.5,3.5,1.6
		c0.2,1.1-0.6,5.1-1.3,5.8c-1.9,2-7,4.8-9.7,4.3C224.4,318.7,223.5,317.1,224,316.5z M219.2,325.7c0.2-0.2,0.4-0.4,0.5-0.5
		c1.7-1.9,4.9-2.3,7.2-2.6c2.3-0.4,5.3,0.8,5.7,2.3c0.4,1.5-5.7,4.2-6.8,5.3c-3.2,2.9-8.1,8.8-11,9.4c-0.9,0.2-1.7,0.1-2.4-0.3
		C214.3,334.6,216.6,330,219.2,325.7z M262.1,438.3c-1.8,2.2-8.3,5-12.5,4.7c-4.2-0.3-4.7-11.4-4.7-17.1c0-2-2.8,3.9-4.2-8
		c-0.9-7.6-5.8,0.8-6.1-4.3c-0.3-5.1-2.8-4.1-5.3-7.2c-2.5-3.2-5.7,0.3-9.3,1.9c-3.6,1.6-2.1,2.4-7.1,0.8c-0.1,0-0.2-0.1-0.3-0.1
		c-4.6-10.9-7.1-23-7-35.6c0-3.1,0.2-6.1,0.5-9.1c0.2-0.3,0.4-0.6,0.6-0.8c4.9-5.7,4.8-7,4.8-7l5.3-1.8c0,0,8.5,1.4,14.9,3.8
		c5.3,2,13.6,6.5,18.4,4.6c3.5-1.4,6.3-3.3,5.9-6.2c-0.4-3.7-3.3-4.5-6.8-2.1c-1.3,0.9-4-5.5-6.2-5.2c-2.2,0.3,2.6,7.6,0.8,7.9
		c-1.8,0.3-5.5-7.6-6.1-8.8c-0.6-1.3-3.4-4.4-6-2c-5.4,5.1-14.1,4.7-15.9,6c-5.4,4-6.7-1.3-6.6-4.6c0.2-0.7,0.4-1.5,0.7-2.2
		c1.8-1.9,8-2.5,10.2-1.1c2.4,1.6,4.1-0.4,5-1.3c0.9-0.9,0.6-2.5,0-3.7c-0.6-1.3,1.2-2.2,2.4-2.5c1.2-0.3,5.3-3.1,6.9-4.1
		c1.6-0.9,10.1-1.9,13.9,0c3.8,1.9,7.2,0.4,9.1-1.8c2.3-2.8,5.3-4.8,6.6-5.5c1.3-0.6-3.2-4.9-7-0.3c-3.8,4.6-5.7,5-7.5,5
		c-1.8,0-12.3-2.7-13.6-6c-1.3-3.3,3.3-5.8,7.2-7.7c3.9-1.8,14.5-1.8,17.3-2.4c5.5-1.2,12.6-3.9,16.2-1.5c3.5,2.4-14.9,6.5-8.9,9.8
		c2.1,1.2,11.9-5.5,15.3-7.3c7.9-4-7.6-5.4-5.5-13.6c2.3-9.3-18.9-5.8-29.5-5.1c14.2-9,31.1-14.2,49.2-14.1
		c43,0.2,79,30.2,88.4,70.4c0.1,2-0.3,3.4-0.5,4.2c-0.8,3.3-7.1,6.1-10.7,0.8c-0.9-1.3-4.8-5.1-4.7,1.3c0.1,6.3,6.1,7,0.3,10.8
		c-5.8,3.8-6.9,2.8-9.6,3.8c-2.7,0.9-5.3,7.4-4.7,10.9c0.6,3.5,8.9,13,2.7,12.6c-1.5-0.1-12.3-7.6-14.1-12.4
		c-1.9-5.1-3.9-10-5.4-13.8c-1.5-3.8-5.3-4.8-8.6-2.6c-3.3,2.2,0.9,4.4-1.5,9.2c-2.4,4.7-4,9-7.4,5c-8.9-10.3-21.8-5.3-23.8-16.6
		c-1.1-6.2-6.4-5.6-10.8-9.1c-4.4-3.5-6.9-5.4-7.7-2.9c-0.7,2.2,13.9,13.9,14.9,16.8c1.5,4.4-4.4,8.3-8.8,9.3
		c-4.3,1-6.2-2.5-10.4-6.9c-4.2-4.4-6.1-7.6-6.4-4.1c-0.5,5,4,12.4,8.3,15.2c3.7,2.4,7.8,3.4,6.6,7.2c-1.2,3.8,0,1.6-4.2,5.7
		c-4.2,4.1-5,5.4-4.7,11.1c0.3,5.7-1.2,6-2.1,10.8c-0.9,4.7-2.9,0.6-4.8,7.6C265.9,433.6,263.9,436.1,262.1,438.3z M365.8,390.7
		c3.1-0.2,7.7,4,5.8,5.7c-1.8,1.6-6.4,1-8.7-0.8C360.7,393.7,364.4,390.8,365.8,390.7z M361.9,387.8c-1-0.4-1.8-1.3-2.6-3.6
		c-0.7-2.2,1.2-3.5,3-2.6c1.9,1,4.3,3.8,4.3,5.3C366.6,388.4,363,388.2,361.9,387.8z M321.7,387.5c-1.8,1.6-6.4,1-8.7-0.8
		c-2.3-1.8,1.5-4.7,2.8-4.8C318.9,381.6,323.5,385.9,321.7,387.5z M284.3,405.4c-1.3,2.1-4.8,17.4-7.1,15.6c-2.3-1.8,1-17.8,1.7-19
		C282.6,395.4,290.4,395.8,284.3,405.4z M296.4,465c-8.9,0-17.5-1.4-25.6-3.8c-1.2-1-1.8-2.6-1.1-4.5c2.9-7.3,11.3-10.2,17.9-10.8
		c14.8-1.4,34.2,9.8,37.3,8c3.1-1.8,9.4-9.9,18.6-9.5c6.3,0.3,6.2,1.3,8.3,2.1C336.4,458.2,317.2,465.1,296.4,465z M360.9,438.7
		c-0.9-0.3-1.8-0.6-2.9-1.1c-5-2.6-4.4,1.5-6.8,0.6c-2.5-0.9,2.8-6.6-4.6-1.8c-7.3,4.8-5.3-0.8-8.5-8.9c-3.2-8.1,3.8-17.4,9.5-19.5
		c7.9-2.8,12.9-3.4,16.6-4.3c11-2.7,13.3-9.2,15.3-5.2c0.4,0.7,0.7,1.5,1.1,2.1c0.6,1.2,1.4,3.6,1.4,6
		C377.3,418.8,370,429.7,360.9,438.7z M386.1,392.8c-2.4-0.7-12.6-14.9-4.5-24.2c1.3-1.5-2.7-6.1-1.6-6.1c4.4-0.3,6.8,2.4,7.9,6.4
		c0.1,1.8,0.1,3.5,0.1,5.3C388.1,380.5,387.4,386.8,386.1,392.8z"/>
	<path class="st0" d="M192.9,98.7c7.2,0,11.1-4.3,11.1-17.6h-7.6c-0.1,3.9,0.1,10.2-3.5,10.2c-4.3,0-4.9-5.5-4.9-18.3
		s0.6-18.3,4.9-18.3c2.3,0,3.2,2.5,3.2,9.1h7.6c0.3-10.7-2.9-16.6-10.7-16.6c-12.7,0-12.7,12.6-12.7,25.8
		C180.2,86,180.2,98.7,192.9,98.7z"/>
	<polygon class="st0" points="228.3,89.5 216.7,89.5 216.7,47.9 209,47.9 209,97.8 228.3,97.8 	"/>
	<rect x="231.7" y="47.9" class="st0" width="7.7" height="49.9"/>
	<polygon class="st0" points="253.2,59.3 253.3,59.3 260.1,97.8 267.4,97.8 274.5,59.3 274.6,59.3 274.6,97.8 282.2,97.8 
		282.2,47.9 270.1,47.9 264,81.9 263.9,81.9 258.1,47.9 245.7,47.9 245.7,97.8 253.2,97.8 	"/>
	<path class="st0" d="M295.3,86.8h10.5l2,11.1h8.1l-10-49.9h-10.2l-10.2,49.9h7.6L295.3,86.8z M300.4,57.5h0.1l3.7,21.6h-7.4
		L300.4,57.5z"/>
	<polygon class="st0" points="322.3,97.8 330,97.8 330,56.2 338.6,56.2 338.6,47.9 313.7,47.9 313.7,56.2 322.3,56.2 	"/>
	<polygon class="st0" points="362.7,90.2 349.9,90.2 349.9,75.6 361.3,75.6 361.3,67.9 349.9,67.9 349.9,55.6 362.3,55.6 
		362.3,47.9 342.2,47.9 342.2,97.8 362.7,97.8 	"/>
	<path class="st0" d="M187.4,154.9H198l2,11.1h8.1l-10-49.9h-10.2L177.7,166h7.6L187.4,154.9z M192.5,125.7h0.1l3.7,21.6H189
		L192.5,125.7z"/>
	<path class="st0" d="M211.4,141c0,13.1,0,25.8,12.7,25.8c7.2,0,11.1-4.3,11.1-17.6h-7.6c-0.1,3.9,0.1,10.2-3.5,10.2
		c-4.3,0-4.9-5.5-4.9-18.3s0.6-18.3,4.9-18.3c2.3,0,3.2,2.5,3.2,9.1h7.6c0.3-10.7-2.9-16.6-10.7-16.6
		C211.4,115.3,211.4,127.8,211.4,141z"/>
	<polygon class="st0" points="253.6,166 253.6,124.4 262.2,124.4 262.2,116.1 237.3,116.1 237.3,124.4 245.9,124.4 245.9,166 	"/>
	<rect x="265.8" y="116.1" class="st0" width="7.7" height="49.9"/>
	<path class="st0" d="M292.3,166.8c12.7,0,12.7-12.7,12.7-25.8c0-13.2,0-25.8-12.7-25.8c-12.7,0-12.7,12.6-12.7,25.8
		C279.6,154.1,279.6,166.8,292.3,166.8z M292.3,122.7c4.3,0,4.9,5.5,4.9,18.3s-0.6,18.3-4.9,18.3c-4.3,0-4.9-5.5-4.9-18.3
		S288,122.7,292.3,122.7z"/>
	<polygon class="st0" points="331.6,150.7 331.5,150.7 321.7,116.1 311.2,116.1 311.2,166 318.5,166 318.5,129.5 318.6,129.5 
		328.6,166 338.8,166 338.8,116.1 331.6,116.1 	"/>
</g>
<g>
	<path class="st1" d="M363,395.5c2.3,1.8,6.9,2.4,8.7,0.8c1.8-1.6-2.8-5.9-5.8-5.7C364.4,390.8,360.7,393.7,363,395.5z"/>
	<path class="st1" d="M272.5,419c0.9-4.7,2.4-5.1,2.1-10.8c-0.3-5.7,0.5-7,4.7-11.1c4.2-4.1,3-1.9,4.2-5.7c1.2-3.8-2.9-4.9-6.6-7.2
		c-4.3-2.8-8.7-10.2-8.3-15.2c0.3-3.5,2.2-0.3,6.4,4.1c4.2,4.5,6.1,7.9,10.4,6.9c4.3-1,10.3-4.9,8.8-9.3c-1-3-15.6-14.6-14.9-16.8
		c0.8-2.5,3.2-0.6,7.7,2.9c4.4,3.5,9.7,2.9,10.8,9.1c2,11.4,14.9,6.4,23.8,16.6c3.4,3.9,5.1-0.3,7.4-5c2.4-4.7-1.8-7,1.5-9.2
		c3.3-2.2,7.1-1.2,8.6,2.6c1.5,3.8,3.5,8.8,5.4,13.8c1.8,4.8,12.6,12.3,14.1,12.4c6.2,0.4-2.1-9.1-2.7-12.6c-0.6-3.5,2-10,4.7-10.9
		c2.7-0.9,3.8,0,9.6-3.8c5.9-3.8-0.2-4.5-0.3-10.8c-0.1-6.3,3.8-2.6,4.7-1.3c3.6,5.3,9.8,2.5,10.7-0.8c0.2-0.8,0.5-2.2,0.5-4.2
		c-9.4-40.2-45.3-70.2-88.4-70.4c-18.1-0.1-35,5.1-49.2,14.1c10.6-0.7,31.8-4.2,29.5,5.1c-2.1,8.2,13.4,9.6,5.5,13.6
		c-3.3,1.7-13.1,8.5-15.3,7.3c-6-3.3,12.4-7.4,8.9-9.8c-3.5-2.4-10.6,0.3-16.2,1.5c-2.7,0.6-13.4,0.5-17.3,2.4
		c-3.9,1.9-8.5,4.3-7.2,7.7c1.3,3.3,11.8,6,13.6,6c1.8,0,3.7-0.4,7.5-5c3.8-4.6,8.3-0.3,7,0.3c-1.3,0.6-4.3,2.7-6.6,5.5
		c-1.9,2.2-5.3,3.7-9.1,1.8c-3.8-1.9-12.2-0.9-13.9,0c-1.6,0.9-5.7,3.8-6.9,4.1c-1.2,0.3-3,1.2-2.4,2.5c0.6,1.3,0.9,2.8,0,3.7
		c-0.9,1-2.6,2.9-5,1.3c-2.1-1.4-8.4-0.8-10.2,1.1c-0.2,0.7-0.5,1.5-0.7,2.2c-0.1,3.2,1.2,8.6,6.6,4.6c1.8-1.3,10.5-1,15.9-6
		c2.6-2.4,5.4,0.8,6,2c0.6,1.3,4.3,9.1,6.1,8.8c1.8-0.3-3-7.5-0.8-7.9c2.2-0.3,4.9,6.1,6.2,5.2c3.5-2.5,6.4-1.6,6.8,2.1
		c0.3,2.9-2.4,4.8-5.9,6.2c-4.8,2-13.2-2.6-18.4-4.6c-6.4-2.4-14.9-3.8-14.9-3.8l-5.3,1.8c0,0,0.1,1.3-4.8,7
		c-0.2,0.2-0.4,0.5-0.6,0.8c-0.3,3-0.5,6-0.5,9.1c-0.1,12.6,2.4,24.6,7,35.6c0.1,0.1,0.2,0.1,0.3,0.1c5,1.6,3.6,0.8,7.1-0.8
		c3.6-1.6,6.8-5,9.3-1.9c2.5,3.2,5,2.2,5.3,7.2c0.3,5.1,5.2-3.3,6.1,4.3c1.4,11.9,4.2,6,4.2,8c0,5.7,0.5,16.8,4.7,17.1
		c4.1,0.3,10.7-2.5,12.5-4.7c1.8-2.2,3.9-4.7,5.7-11.7C269.6,419.7,271.6,423.8,272.5,419z"/>
	<path class="st1" d="M214.7,339.5c2.9-0.6,7.8-6.5,11-9.4c1.1-1,7.2-3.8,6.8-5.3c-0.4-1.5-3.4-2.7-5.7-2.3
		c-2.3,0.3-5.5,0.7-7.2,2.6c-0.1,0.1-0.3,0.3-0.5,0.5c-2.7,4.3-4.9,8.8-6.9,13.5C213,339.6,213.8,339.8,214.7,339.5z"/>
	<polygon class="st1" points="192.6,125.7 192.5,125.7 189,147.3 196.3,147.3 	"/>
	<path class="st1" d="M226.5,319.1c2.7,0.5,7.8-2.3,9.7-4.3c0.7-0.7,1.5-4.7,1.3-5.8c-0.2-1-2.1-1.8-3.5-1.6
		c-1.4,0.2-3.4,0.5-4.4,1.8c-0.5,0.6-4.4,5.6-5.6,7.3C223.5,317.1,224.4,318.7,226.5,319.1z"/>
	<polygon class="st1" points="300.5,57.5 300.4,57.5 296.9,79.1 304.2,79.1 	"/>
	<path class="st1" d="M366.6,386.9c0-1.5-2.4-4.3-4.3-5.3c-1.8-0.9-3.7,0.4-3,2.6c0.7,2.2,1.6,3.2,2.6,3.6
		C363,388.2,366.6,388.4,366.6,386.9z"/>
	<path class="st1" d="M292.3,159.4c4.3,0,4.9-5.5,4.9-18.3s-0.6-18.3-4.9-18.3c-4.3,0-4.9,5.5-4.9,18.3S288,159.4,292.3,159.4z"/>
	<path class="st1" d="M-3.2-1.8l-2.9,600.6l605.7,0L599.4-0.8L-3.2-1.8z M342.2,47.9h20.1v7.7h-12.4v12.3h11.5v7.7h-11.5v14.6h12.8
		v7.7h-20.6V47.9z M313.7,47.9h24.9v8.3H330v41.6h-7.7V56.2h-8.6V47.9z M338.8,116.1V166h-10.2l-10.1-36.5h-0.1V166h-7.2v-49.9h10.4
		l9.8,34.6h0.1v-34.6H338.8z M295.9,47.9H306l10,49.9h-8.1l-2-11.1h-10.5l-2.1,11.1h-7.6L295.9,47.9z M292.3,115.3
		c12.7,0,12.7,12.6,12.7,25.8c0,13.1,0,25.8-12.7,25.8c-12.7,0-12.7-12.7-12.7-25.8C279.6,127.8,279.6,115.3,292.3,115.3z
		 M245.7,47.9h12.4l5.8,33.9h0.1l6.1-33.9h12v49.9h-7.5V59.3h-0.1l-7.1,38.5h-7.4l-6.7-38.5h-0.1v38.5h-7.5V47.9z M273.5,116.1V166
		h-7.7v-49.9H273.5z M237.3,124.4v-8.3h24.9v8.3h-8.6V166h-7.7v-41.6H237.3z M231.7,47.9h7.7v49.9h-7.7V47.9z M234.9,131.9h-7.6
		c0-6.6-0.9-9.1-3.2-9.1c-4.3,0-4.9,5.5-4.9,18.3s0.6,18.3,4.9,18.3c3.6,0,3.4-6.2,3.5-10.2h7.6c0,13.3-3.9,17.6-11.1,17.6
		c-12.7,0-12.7-12.7-12.7-25.8c0-13.2,0-25.8,12.7-25.8C232,115.3,235.2,121.1,234.9,131.9z M209,47.9h7.7v41.6h11.6v8.3H209V47.9z
		 M192.9,47.1c7.9,0,11,5.9,10.7,16.6h-7.6c0-6.6-0.9-9.1-3.2-9.1c-4.3,0-4.9,5.5-4.9,18.3s0.6,18.3,4.9,18.3
		c3.6,0,3.4-6.2,3.5-10.2h7.6c0,13.3-3.9,17.6-11.1,17.6c-12.7,0-12.7-12.7-12.7-25.8C180.2,59.7,180.2,47.1,192.9,47.1z
		 M187.9,116.1h10.2l10,49.9H200l-2-11.1h-10.5l-2.1,11.1h-7.6L187.9,116.1z M83.1,124.2l18.3,0.1l-0.1,17.1c0,7,2.4,11.6,9.3,11.6
		c6.1,0,9-4.4,9-10.7l0.1-19.7c0-6.3-2.8-9.7-9.8-9.7l-8.4,0l0.1-15.3l7.6,0c6.5,0,10.7-3.3,10.8-9.6l0.1-12.8
		c0-6.5-2.2-10.7-8.5-10.8c-6.3,0-8.6,4.2-8.7,11.6l-0.1,12.1L84.3,88l0.1-10.6c0.1-17.6,7.4-29.9,28.1-29.8
		c18.5,0.1,26.5,10.5,26.4,27.4l-0.1,10.4c-0.1,10-5.5,16.7-13.8,19.3c10,2.3,14.7,9.4,14.7,20.3l-0.1,17.6
		c-0.1,16.5-8.9,27.2-29.1,27.1C90.1,169.6,82.9,158,83,139.9L83.1,124.2z M72.4,168.1l-20-0.1l0.4-91.3h-0.2L38.5,91.3h-0.2
		l0.1-20.9l18.6-21.5l16,0.1L72.4,168.1z M513.7,376.7c-15.7,21.8-86.6,108.7-217.5,108.1c-131-0.6-201-88.3-216.5-110.2
		c-0.7-1-1.2-1.8-1.7-2.5c0.5-0.7,1-1.5,1.7-2.4c15.7-21.8,86.6-108.7,217.6-108.1c131,0.6,201,88.3,216.5,110.2
		c0.7,0.9,1.2,1.8,1.7,2.4C515,375,514.4,375.8,513.7,376.7z"/>
	<path class="st1" d="M380.1,362.4c-1.1,0.1,2.9,4.6,1.6,6.1c-8.2,9.3,2,23.5,4.5,24.2c1.3-6,2-12.2,2-18.6c0-1.8-0.1-3.5-0.1-5.3
		C386.9,364.9,384.5,362.1,380.1,362.4z"/>
	<path class="st1" d="M379.6,398.6c-2-4-4.3,2.5-15.3,5.2c-3.7,0.9-8.7,1.5-16.6,4.3c-5.8,2.1-12.7,11.3-9.5,19.5
		c3.2,8.1,1.2,13.7,8.5,8.9c7.4-4.8,2.1,0.9,4.6,1.8c2.4,0.9,1.9-3.1,6.8-0.6c1,0.5,1.9,0.8,2.9,1.1c9.1-9,16.4-19.9,21.1-32.1
		c0-2.4-0.7-4.8-1.4-6C380.3,400,379.9,399.3,379.6,398.6z"/>
	<path class="st1" d="M315.8,381.8c-1.4,0.1-5.1,3-2.8,4.8c2.3,1.8,6.9,2.4,8.7,0.8C323.5,385.9,318.9,381.6,315.8,381.8z"/>
	<path class="st1" d="M324.9,453.9c-3.1,1.8-22.5-9.4-37.3-8c-6.6,0.6-15.1,3.5-17.9,10.8c-0.7,1.9-0.1,3.5,1.1,4.5
		c8.1,2.4,16.7,3.8,25.6,3.8c20.8,0.1,40-6.8,55.4-18.4c-2.1-0.8-2-1.9-8.3-2.1C334.4,444.1,328.1,452.2,324.9,453.9z"/>
	<path class="st1" d="M279,402c-0.7,1.2-4,17.2-1.7,19c2.3,1.8,5.8-13.5,7.1-15.6C290.4,395.8,282.6,395.4,279,402z"/>
</g>
</svg>
