<?xml version="1.0" encoding="UTF-8" standalone="no"?>
<!DOCTYPE svg PUBLIC "-//W3C//DTD SVG 1.1//EN" "http://www.w3.org/Graphics/SVG/1.1/DTD/svg11.dtd">
<svg width="100%" height="100%" viewBox="0 0 289 289" version="1.1" xmlns="http://www.w3.org/2000/svg" xmlns:xlink="http://www.w3.org/1999/xlink" xml:space="preserve" xmlns:serif="http://www.serif.com/" style="fill-rule:evenodd;clip-rule:evenodd;stroke-linejoin:round;stroke-miterlimit:2;">
    <g transform="matrix(-4.268,-0.0210011,-0.020719,4.21066,-0.843704,-1.74275)">
        <rect x="-68.725" y="0.169" width="68.895" height="68.9" style="fill:rgb(72,119,61);"/>
    </g>
    <g transform="matrix(4.16667,0,0,4.16667,35.4105,81.4458)">
        <path d="M0,-13.883L-0.068,0.009L-2.403,-0.003L-2.351,-10.636L-2.371,-10.636L-4.017,-8.944L-4.038,-8.944L-4.026,-11.383L-1.864,-13.892L0,-13.883Z" style="fill:white;fill-rule:nonzero;"/>
    </g>
    <g transform="matrix(4.16667,0,0,4.16667,67.428,68.9571)">
        <path d="M0,-7.835L-0.006,-6.627C-0.012,-5.459 -0.65,-4.684 -1.614,-4.38C-0.449,-4.109 0.101,-3.287 0.094,-2.016L0.084,0.033C0.075,1.959 -0.955,3.204 -3.31,3.192C-5.686,3.18 -6.52,1.824 -6.509,-0.286L-6.5,-2.11L-4.369,-2.1L-4.379,-0.111C-4.383,0.708 -4.1,1.242 -3.301,1.246C-2.585,1.249 -2.255,0.739 -2.251,0.001L-2.24,-2.294C-2.236,-3.032 -2.562,-3.422 -3.38,-3.426L-4.363,-3.431L-4.354,-5.214L-3.473,-5.209C-2.716,-5.206 -2.224,-5.593 -2.22,-6.33L-2.213,-7.826C-2.209,-8.584 -2.472,-9.077 -3.209,-9.081C-3.945,-9.084 -4.214,-8.594 -4.219,-7.733L-4.226,-6.32L-6.356,-6.33L-6.35,-7.56C-6.34,-9.609 -5.493,-11.039 -3.077,-11.027C-0.926,-11.016 0.01,-9.802 0,-7.835" style="fill:white;fill-rule:nonzero;"/>
    </g>
    <g transform="matrix(4.16667,0,0,4.16667,187.467,171.535)">
        <path d="M0,4.561C-0.285,4.482 -1.471,2.824 -0.521,1.743C-0.364,1.565 -0.835,1.037 -0.705,1.027C-0.189,0.99 0.085,1.311 0.218,1.774C0.227,1.978 0.234,2.184 0.233,2.391C0.229,3.135 0.148,3.86 0,4.561M-2.939,9.917C-3.045,9.887 -3.154,9.852 -3.272,9.792C-3.851,9.494 -3.784,9.966 -4.068,9.861C-4.355,9.753 -3.743,9.094 -4.603,9.65C-5.459,10.204 -5.225,9.56 -5.593,8.612C-5.965,7.663 -5.154,6.585 -4.482,6.344C-3.557,6.014 -2.983,5.949 -2.549,5.844C-1.27,5.531 -0.996,4.774 -0.767,5.237C-0.724,5.323 -0.682,5.406 -0.644,5.483C-0.57,5.621 -0.486,5.901 -0.483,6.177C-1.032,7.596 -1.875,8.869 -2.939,9.917M-10.452,12.977C-11.491,12.972 -12.492,12.816 -13.438,12.534C-13.574,12.422 -13.65,12.236 -13.564,12.013C-13.231,11.157 -12.25,10.826 -11.476,10.755C-9.751,10.595 -7.492,11.894 -7.13,11.688C-6.768,11.483 -6.034,10.538 -4.965,10.583C-4.235,10.614 -4.241,10.737 -3.997,10.831C-5.792,12.187 -8.028,12.989 -10.452,12.977M-11.863,6.036C-12.011,6.275 -12.419,8.062 -12.687,7.853C-12.955,7.643 -12.568,5.778 -12.489,5.637C-12.066,4.868 -11.157,4.911 -11.863,6.036M-7.511,3.946C-7.722,4.132 -8.259,4.061 -8.527,3.849C-8.793,3.64 -8.354,3.297 -8.195,3.285C-7.837,3.255 -7.302,3.757 -7.511,3.946M-2.819,3.987C-2.933,3.944 -3.034,3.834 -3.12,3.573C-3.205,3.311 -2.985,3.163 -2.771,3.269C-2.553,3.381 -2.272,3.708 -2.273,3.882C-2.273,4.057 -2.702,4.033 -2.819,3.987M-2.369,4.316C-2.011,4.289 -1.477,4.787 -1.688,4.976C-1.898,5.164 -2.433,5.092 -2.701,4.881C-2.967,4.671 -2.529,4.329 -2.369,4.316M-13.794,8.502C-14.005,9.314 -14.247,9.606 -14.454,9.861C-14.661,10.12 -15.424,10.447 -15.906,10.409C-16.39,10.371 -16.451,9.079 -16.448,8.415C-16.446,8.186 -16.774,8.864 -16.937,7.482C-17.041,6.596 -17.613,7.57 -17.65,6.98C-17.688,6.391 -17.972,6.507 -18.268,6.137C-18.563,5.768 -18.935,6.17 -19.35,6.354C-19.764,6.535 -19.594,6.633 -20.18,6.445C-20.195,6.44 -20.202,6.436 -20.217,6.43C-20.749,5.155 -21.039,3.755 -21.032,2.286C-21.03,1.927 -21.009,1.574 -20.974,1.225C-20.954,1.189 -20.933,1.155 -20.908,1.126C-20.342,0.463 -20.354,0.307 -20.354,0.307L-19.731,0.095C-19.731,0.095 -18.738,0.253 -17.992,0.538C-17.376,0.773 -16.408,1.301 -15.843,1.073C-15.434,0.907 -15.114,0.685 -15.15,0.345C-15.194,-0.082 -15.529,-0.185 -15.937,0.101C-16.088,0.206 -16.403,-0.544 -16.654,-0.508C-16.905,-0.471 -16.349,0.374 -16.561,0.408C-16.775,0.444 -17.198,-0.473 -17.271,-0.622C-17.342,-0.769 -17.671,-1.137 -17.969,-0.859C-18.599,-0.266 -19.617,-0.308 -19.822,-0.155C-20.447,0.308 -20.608,-0.312 -20.592,-0.689C-20.567,-0.776 -20.541,-0.863 -20.513,-0.948C-20.309,-1.171 -19.579,-1.241 -19.329,-1.073C-19.055,-0.888 -18.857,-1.118 -18.749,-1.229C-18.639,-1.338 -18.677,-1.515 -18.745,-1.662C-18.814,-1.81 -18.606,-1.917 -18.463,-1.954C-18.32,-1.992 -17.844,-2.321 -17.655,-2.431C-17.464,-2.54 -16.48,-2.654 -16.04,-2.432C-15.601,-2.208 -15.196,-2.387 -14.978,-2.641C-14.705,-2.962 -14.358,-3.206 -14.204,-3.28C-14.05,-3.351 -14.581,-3.852 -15.022,-3.311C-15.464,-2.773 -15.688,-2.724 -15.895,-2.725C-16.101,-2.726 -17.327,-3.039 -17.477,-3.427C-17.624,-3.815 -17.09,-4.103 -16.635,-4.321C-16.181,-4.535 -14.942,-4.526 -14.625,-4.596C-13.98,-4.734 -13.155,-5.054 -12.742,-4.769C-12.33,-4.49 -14.478,-4.011 -13.774,-3.627C-13.524,-3.488 -12.386,-4.273 -11.996,-4.473C-11.08,-4.941 -12.88,-5.105 -12.641,-6.063C-12.372,-7.146 -14.847,-6.739 -16.08,-6.653C-14.422,-7.705 -12.455,-8.312 -10.347,-8.301C-5.331,-8.277 -1.147,-4.779 -0.05,-0.099C-0.043,0.133 -0.08,0.299 -0.104,0.394C-0.202,0.776 -0.931,1.102 -1.349,0.483C-1.456,0.327 -1.91,-0.106 -1.898,0.631C-1.887,1.368 -1.186,1.447 -1.868,1.887C-2.549,2.326 -2.673,2.218 -2.988,2.328C-3.301,2.437 -3.609,3.196 -3.536,3.602C-3.462,4.009 -2.498,5.122 -3.217,5.073C-3.386,5.06 -4.652,4.185 -4.859,3.626C-5.077,3.037 -5.316,2.461 -5.485,2.016C-5.657,1.574 -6.104,1.459 -6.486,1.717C-6.865,1.975 -6.382,2.235 -6.657,2.788C-6.931,3.34 -7.128,3.833 -7.525,3.374C-8.557,2.179 -10.067,2.759 -10.297,1.434C-10.421,0.715 -11.04,0.781 -11.554,0.372C-12.071,-0.035 -12.359,-0.256 -12.448,0.036C-12.526,0.293 -10.831,1.651 -10.711,1.998C-10.533,2.512 -11.226,2.962 -11.732,3.081C-12.235,3.199 -12.455,2.794 -12.948,2.275C-13.44,1.758 -13.656,1.388 -13.692,1.793C-13.745,2.378 -13.229,3.24 -12.726,3.564C-12.297,3.838 -11.816,3.964 -11.957,4.406C-12.099,4.849 -11.96,4.598 -12.445,5.073C-12.93,5.55 -13.023,5.704 -12.991,6.367C-12.959,7.031 -13.132,7.068 -13.239,7.62C-13.344,8.172 -13.582,7.693 -13.794,8.502M-19.448,-3.25C-19.423,-3.279 -19.402,-3.302 -19.392,-3.314C-19.199,-3.532 -18.817,-3.577 -18.553,-3.617C-18.288,-3.661 -17.936,-3.526 -17.894,-3.35C-17.849,-3.175 -18.56,-2.857 -18.69,-2.737C-19.059,-2.4 -19.637,-1.714 -19.973,-1.642C-20.083,-1.617 -20.173,-1.634 -20.248,-1.672C-20.024,-2.222 -19.757,-2.751 -19.448,-3.25M-18.897,-4.332C-18.759,-4.533 -18.299,-5.108 -18.243,-5.181C-18.125,-5.332 -17.892,-5.361 -17.727,-5.39C-17.565,-5.42 -17.35,-5.328 -17.324,-5.206C-17.297,-5.083 -17.39,-4.611 -17.47,-4.53C-17.695,-4.299 -18.28,-3.974 -18.6,-4.027C-18.849,-4.066 -18.945,-4.259 -18.897,-4.332M14.869,2.12C13.067,-0.436 4.908,-10.646 -10.353,-10.721C-25.615,-10.796 -33.872,-0.667 -35.703,1.871C-35.781,1.98 -35.847,2.074 -35.902,2.154C-35.848,2.236 -35.782,2.33 -35.706,2.441C-33.9,4.996 -25.743,15.206 -10.481,15.281C4.78,15.357 13.039,5.227 14.866,2.69C14.946,2.58 15.012,2.487 15.065,2.405C15.013,2.324 14.948,2.23 14.869,2.12" style="fill:white;fill-rule:nonzero;"/>
    </g>
    <g transform="matrix(4.16667,0,0,4.16667,92.1059,31.3404)">
        <path d="M0,2.116L0.779,2.12L0.405,-0.213L0.396,-0.213L0,2.116ZM-1.234,3.952L-0.109,-1.852L1.004,-1.847L2.08,3.968L1.078,3.963L0.904,2.9L-0.133,2.895L-0.309,3.957L-1.234,3.952Z" style="fill:white;fill-rule:nonzero;"/>
    </g>
    <g transform="matrix(4.16667,0,0,4.16667,101.942,29.9867)">
        <path d="M0,2.795L0.014,-0.015C0.018,-0.923 0.45,-1.581 1.477,-1.576C2.556,-1.571 2.853,-0.969 2.849,-0.113L2.845,0.573L1.955,0.568L1.959,-0.194C1.96,-0.554 1.842,-0.76 1.49,-0.762C1.139,-0.764 0.992,-0.516 0.991,-0.165L0.975,2.954C0.974,3.306 1.118,3.555 1.469,3.557C1.82,3.558 1.941,3.336 1.943,2.993L1.948,1.922L2.839,1.927L2.834,2.929C2.83,3.76 2.484,4.376 1.448,4.371C0.42,4.366 -0.004,3.695 0,2.795" style="fill:white;fill-rule:nonzero;"/>
    </g>
    <g transform="matrix(4.16667,0,0,4.16667,115.96,30.0558)">
        <path d="M0,2.795L0.014,-0.015C0.018,-0.923 0.45,-1.581 1.477,-1.576C2.556,-1.571 2.853,-0.969 2.849,-0.113L2.845,0.573L1.955,0.568L1.959,-0.195C1.961,-0.554 1.841,-0.76 1.49,-0.762C1.14,-0.764 0.993,-0.516 0.991,-0.165L0.975,2.954C0.974,3.306 1.118,3.555 1.469,3.557C1.82,3.558 1.941,3.336 1.943,2.993L1.948,1.922L2.839,1.927L2.834,2.929C2.83,3.76 2.484,4.376 1.448,4.371C0.42,4.365 -0.004,3.695 0,2.795" style="fill:white;fill-rule:nonzero;"/>
    </g>
    <g transform="matrix(4.16661,0.0213453,0.0213453,-4.16661,130.131,23.803)">
        <rect x="-0.015" y="-5.812" width="0.978" height="5.809" style="fill:white;"/>
    </g>
    <g transform="matrix(4.16667,0,0,4.16667,144.641,25.2613)">
        <path d="M0,4.134L0.015,1.015C0.017,0.664 -0.136,0.414 -0.487,0.413C-0.83,0.411 -0.985,0.659 -0.987,1.01L-1.002,4.129C-1.004,4.48 -0.851,4.73 -0.508,4.732C-0.157,4.733 -0.002,4.485 0,4.134M0.315,-0.74L-1.219,-0.55L-1.216,-1.099L0.318,-1.417L0.315,-0.74ZM-1.978,3.97L-1.964,1.16C-1.959,0.251 -1.511,-0.406 -0.483,-0.401C0.553,-0.396 0.995,0.266 0.991,1.174L0.977,3.984C0.972,4.884 0.524,5.551 -0.513,5.546C-1.54,5.541 -1.982,4.87 -1.978,3.97" style="fill:white;fill-rule:nonzero;"/>
    </g>
    <g transform="matrix(4.16667,0,0,4.16667,154.496,39.1646)">
        <path d="M0,-1.496L-0.018,2.154L-0.84,2.15L-0.812,-3.66L0.147,-3.655L1.184,-0.316L1.201,-3.65L2.014,-3.646L1.986,2.164L1.13,2.16L0,-1.496Z" style="fill:white;fill-rule:nonzero;"/>
    </g>
    <g transform="matrix(4.16667,0,0,4.16667,91.6105,78.3971)">
        <path d="M0,-4.21L-0.011,-1.922L0.349,-1.921C0.683,-1.919 0.829,-2.081 0.831,-2.398L0.837,-3.734C0.839,-4.052 0.694,-4.207 0.36,-4.208L0,-4.21ZM-0.972,-5.012L0.475,-5.005C1.46,-5 1.817,-4.51 1.813,-3.696L1.807,-2.47C1.803,-1.656 1.441,-1.161 0.456,-1.166L-0.015,-1.168L-0.025,0.802L-1.001,0.798L-0.972,-5.012Z" style="fill:white;fill-rule:nonzero;"/>
    </g>
    <g transform="matrix(4.16667,0,0,4.16667,109.444,63.2108)">
        <path d="M0,3.123L0.015,0.004C0.017,-0.347 -0.136,-0.597 -0.487,-0.598C-0.83,-0.6 -0.985,-0.352 -0.987,-0.001L-1.002,3.118C-1.004,3.469 -0.851,3.719 -0.508,3.721C-0.157,3.722 -0.002,3.474 0,3.123M-1.977,2.959L-1.964,0.149C-1.959,-0.76 -1.511,-1.417 -0.483,-1.412C0.553,-1.407 0.995,-0.745 0.991,0.163L0.977,2.973C0.972,3.873 0.524,4.54 -0.512,4.535C-1.54,4.529 -1.982,3.859 -1.977,2.959" style="fill:white;fill-rule:nonzero;"/>
    </g>
    <g transform="matrix(4.16667,0,0,4.16667,119.969,78.5783)">
        <path d="M0,-4.22L-0.009,-2.412L0.317,-2.41C0.651,-2.409 0.797,-2.579 0.799,-2.888L0.803,-3.745C0.804,-4.062 0.66,-4.217 0.326,-4.218L0,-4.22ZM-0.012,-1.872L-0.025,0.792L-1.001,0.788L-0.972,-5.022L0.45,-5.015C1.434,-5.01 1.792,-4.52 1.788,-3.706L1.784,-2.96C1.781,-2.335 1.556,-1.967 0.999,-1.841L1.919,0.802L0.892,0.797L-0.012,-1.872Z" style="fill:white;fill-rule:nonzero;"/>
    </g>
    <g transform="matrix(4.16667,0,0,4.16667,133.397,81.9938)">
        <path d="M0,-5.821L2.329,-5.81L2.326,-5.012L0.972,-5.019L0.964,-3.357L1.932,-3.352L1.928,-2.564L0.96,-2.569L0.952,-0.803L2.305,-0.797L2.301,0L-0.029,-0.012L0,-5.821Z" style="fill:white;fill-rule:nonzero;"/>
    </g>
    <g transform="matrix(4.16667,0,0,4.16667,145.277,82.0479)">
        <path d="M0,-5.82L0.976,-5.815L0.952,-0.802L2.116,-0.797L2.112,0L-0.029,-0.011L0,-5.82Z" style="fill:white;fill-rule:nonzero;"/>
    </g>
    <g transform="matrix(4.16667,0,0,4.16667,159.707,64.1817)">
        <path d="M0,2.795L0.014,-0.015C0.018,-0.923 0.45,-1.581 1.477,-1.576C2.556,-1.571 2.853,-0.969 2.849,-0.113L2.845,0.573L1.955,0.568L1.959,-0.194C1.96,-0.554 1.841,-0.76 1.49,-0.762C1.139,-0.764 0.992,-0.516 0.991,-0.165L0.975,2.954C0.974,3.306 1.118,3.555 1.469,3.557C1.82,3.558 1.941,3.336 1.943,2.993L1.948,1.922L2.839,1.927L2.834,2.929C2.83,3.76 2.484,4.376 1.448,4.371C0.42,4.365 -0.004,3.695 0,2.795" style="fill:white;fill-rule:nonzero;"/>
    </g>
    <g transform="matrix(4.16667,0,0,4.16667,173.815,82.1883)">
        <path d="M0,-5.82L0.976,-5.815L0.952,-0.802L2.116,-0.797L2.112,0L-0.029,-0.011L0,-5.82Z" style="fill:white;fill-rule:nonzero;"/>
    </g>
    <g transform="matrix(4.16661,0.0213453,0.0213453,-4.16661,184.65,57.9817)">
        <rect x="-0.015" y="-5.812" width="0.978" height="5.809" style="fill:white;"/>
    </g>
    <g transform="matrix(4.16667,0,0,4.16667,202.17,73.7475)">
        <path d="M0,-1.721L-0.025,-1.721L-0.704,2.046L-1.157,2.043L-1.866,-1.73L-1.884,-1.73L-1.902,2.04L-2.707,2.036L-2.679,-3.774L-1.54,-3.768L-0.922,-0.492L-0.914,-0.492L-0.332,-3.762L0.901,-3.756L0.872,2.053L-0.019,2.049L0,-1.721Z" style="fill:white;fill-rule:nonzero;"/>
    </g>
    <g transform="matrix(4.16667,0,0,4.16667,212.617,65.8446)">
        <path d="M0,2.116L0.779,2.12L0.405,-0.213L0.397,-0.213L0,2.116ZM-1.234,3.952L-0.109,-1.852L1.004,-1.847L2.08,3.968L1.078,3.963L0.904,2.9L-0.133,2.895L-0.309,3.957L-1.234,3.952Z" style="fill:white;fill-rule:nonzero;"/>
    </g>
</svg>
