<?xml version="1.0" encoding="utf-8"?>
<!-- Generator: Adobe Illustrator 24.2.1, SVG Export Plug-In . SVG Version: 6.00 Build 0)  -->
<svg version="1.1" id="Capa_1" xmlns:serif="http://www.serif.com/"
	 xmlns="http://www.w3.org/2000/svg" xmlns:xlink="http://www.w3.org/1999/xlink" x="0px" y="0px" viewBox="0 0 595.3 597.1"
	 style="enable-background:new 0 0 595.3 597.1;" xml:space="preserve">
<style type="text/css">
	.st0{fill:#FFFFFF;}
	.st1{fill-rule:evenodd;clip-rule:evenodd;fill:#3FAF49;}
</style>
<g>
	<polygon class="st0" points="39.6,76.2 39.6,97.1 39.7,97.1 53.8,82.5 54,82.5 54,173.7 74.1,173.7 74.1,54.6 58.1,54.6 	"/>
	<path class="st0" d="M121.9,92.3c-7.9,0-13.7,2.8-16.9,8.3h-0.2V70.9h34.6V54.6H86.5v67.1h18.3V119c0-7,3.2-10.9,8.8-10.9
		c6.2,0,8.7,4.2,8.7,10.7v28.8c0,6.3-2.3,10.7-8.5,10.7c-6.9,0-9.3-4.6-9.3-11.6v-14.9H86.1v13.5c0,18.1,7.2,29.7,27.7,29.7
		c20.3,0,28.6-10.7,28.6-27.2v-29.2C142.4,99.9,132.7,92.3,121.9,92.3z"/>
	<path class="st0" d="M230,422.3c-0.7,0-1.2,0.5-1.2,1.2v39.2c0,0.7,0.5,1.2,1.2,1.2h15.9c0.7,0,1.2-0.5,1.2-1.2v-39.2
		c0-0.7-0.5-1.2-1.2-1.2H230z"/>
	<path class="st0" d="M420.9,480.7H158.4c-0.7,0-1.2,0.6-1.2,1.2v16c0,0.7,0.5,1.2,1.2,1.2h262.5c0.6,0,1.2-0.5,1.2-1.2v-16
		C422.1,481.3,421.5,480.7,420.9,480.7z"/>
	<path class="st0" d="M420.9,512.5H158.4c-0.7,0-1.2,0.5-1.2,1.2v16c0,0.6,0.5,1.2,1.2,1.2h262.5c0.6,0,1.2-0.5,1.2-1.2v-16
		C422.1,513,421.5,512.5,420.9,512.5z"/>
	<path class="st0" d="M329,384.6c0.2,0,0.3-0.1,0.5-0.1c0.5-0.2,0.9-0.5,1.3-0.8c1.4-0.9,5.1-2.2,10.5-2.2c5.6,0,16.5,1.5,27.1,11.3
		l0.2,0.2c0.6,0.6,1.4,1,2.3,1c0.8,0,1.7-0.3,2.2-0.9l0.2-0.2c10.6-9.8,21.5-11.3,27.1-11.3c5.4,0,9.2,1.3,10.5,2.2
		c0.4,0.4,0.8,0.7,1.5,0.9c0.2,0.1,0.9,0.2,1.5,0.1c1-0.3,1.7-1.1,1.7-2.2v-1.3c0-0.6-0.3-1.2-0.7-1.6c-6.4-6.1-13.6-9.2-21.3-9.2
		c-10.6,0-19.3,5.9-22.7,8.5c-3.3-2.6-12-8.5-22.7-8.5c-7.6,0-14.7,3-21.1,8.9c-0.4,0.4-0.7,1-0.7,1.6v1.4c0,0.7,0.2,1.4,0.7,1.8
		C327.8,384.6,328.4,384.8,329,384.6z"/>
	<path class="st0" d="M391.6,280.3c-4,0-7.4,1-9.4,1.8c-2.4-3.2-8.5-9.9-17.7-9.9c-3.2,0-6.6,0.8-9.8,2.5c-0.6,0.3-1,0.8-1.1,1.4
		l-0.3,0.9c-0.2,0.7-0.1,1.4,0.3,2c0.4,0.5,1,0.9,1.6,0.9c0.1,0,0.2,0,0.3,0c0.5,0,0.9-0.1,1.3-0.3c0.2-0.1,0.7-0.2,1.6-0.2
		c1.2,0,11.8,0.4,18.8,12.2l0.1,0.2c0.4,0.7,1,1.2,1.7,1.3c0.2,0.1,0.6,0.1,0.8,0.1c0.5,0,1-0.1,1.3-0.3l0.2-0.1
		c3.8-1.9,7.8-2.9,11.7-2.9c6.6,0,11,2.7,12,3.8c0.2,0.4,0.5,0.7,0.9,1c0.2,0.1,0.6,0.3,0.8,0.4c0.1,0,0.3,0,0.4,0.1
		c0.1,0,0.2,0,0.2,0c0.4,0,0.7-0.1,1-0.3c0.5-0.3,0.9-0.8,1.1-1.3l0.2-0.8c0.1-0.2,0.1-0.4,0.1-0.6c0-0.4-0.1-0.8-0.3-1.1
		C404.4,282.2,396.9,280.3,391.6,280.3z"/>
	<path class="st0" d="M300.3,317.9c0.5,0.3,1.2,0.4,1.8,0.3c0.1,0,0.3-0.1,0.4-0.1c0.4-0.2,0.8-0.5,1.1-0.8c1.1-0.8,4.7-2.3,10-2.3
		c5.1,0,12.9,1.4,20.8,7.8l0.2,0.2c0.6,0.5,1.3,0.8,2,0.8h0.2c0.8-0.1,1.6-0.4,2.1-1l0.2-0.2c8.8-9.2,18.2-10.6,23-10.6
		c3.4,0,5.9,0.7,6.8,1.2c0.4,0.3,0.8,0.6,1.4,0.7c0.1,0,0.5,0.1,1,0.1c0.2,0,0.4-0.1,0.5-0.1c0.9-0.3,1.6-1.2,1.5-2.2l-0.1-1
		c0-0.6-0.3-1.2-0.8-1.6c-5.2-4.4-10.9-6.6-16.8-6.6c-9.2,0-16.6,5.4-19.7,8.1c-2.8-1.9-9.6-5.8-17.5-5.8c-7,0-13.2,2.9-18.6,8.6
		c-0.4,0.4-0.6,1.1-0.6,1.7l0.1,1.2C299.3,316.8,299.7,317.5,300.3,317.9z"/>
	<path class="st0" d="M180.6,360.5c-5.1,5.4-8.3,12.7-8.3,20.8c0,16.8,13.6,30.4,30.5,30.4c0,0,55.7,0.3,57.4,0.3
		c23.8,0,43-19.2,43-42.9c0-20.5-14.4-37.6-33.7-41.8c2.5-5.1,3.9-10.7,3.9-16.7c0-21.2-17.2-38.3-38.5-38.3
		c-20.3,0-36.9,15.6-38.4,35.4c-0.6,0-1.2-0.1-1.8-0.1c-15.7,0-28.5,12.7-28.5,28.3C166.3,346.4,172.1,355.6,180.6,360.5z"/>
	<polygon class="st0" points="199.6,92.8 188,92.8 188,51.3 180.3,51.3 180.3,101 199.6,101 	"/>
	<rect x="203" y="51.3" class="st0" width="7.7" height="49.7"/>
	<polygon class="st0" points="224.7,79.3 235.6,79.3 235.6,71.7 224.7,71.7 224.7,58.9 236.1,58.9 236.1,51.3 217,51.3 217,101 
		224.7,101 	"/>
	<polygon class="st0" points="260.3,93.4 247.5,93.4 247.5,78.8 259,78.8 259,71.2 247.5,71.2 247.5,58.9 259.9,58.9 259.9,51.3 
		239.8,51.3 239.8,101 260.3,101 	"/>
	<path class="st0" d="M289,101.8c12.7,0,12.7-12.7,12.7-25.7c0-13.2,0-25.7-12.7-25.7c-12.7,0-12.7,12.5-12.7,25.7
		C276.3,89.2,276.3,101.8,289,101.8z M289,57.9c4.3,0,4.9,5.5,4.9,18.3c0,12.7-0.6,18.3-4.9,18.3c-4.3,0-4.9-5.5-4.9-18.3
		C284.1,63.4,284.7,57.9,289,57.9z"/>
	<polygon class="st0" points="315.4,79.3 326.3,79.3 326.3,71.7 315.4,71.7 315.4,58.9 326.9,58.9 326.9,51.3 307.7,51.3 307.7,101 
		315.4,101 	"/>
	<polygon class="st0" points="186,168.9 193.7,168.9 193.7,127.5 202.2,127.5 202.2,119.2 177.4,119.2 177.4,127.5 186,127.5 	"/>
	<polygon class="st0" points="225.9,126.8 225.9,119.2 205.8,119.2 205.8,168.9 226.3,168.9 226.3,161.3 213.5,161.3 213.5,146.8 
		225,146.8 225,139.1 213.5,139.1 213.5,126.8 	"/>
	<path class="st0" d="M254.1,132.2c0-8.5-3.4-13-8.6-13h-14.2v49.7h7.7v-20.6h2c5.9,0,5.5,5,5.5,11c0,3.2-0.2,6.6,0.8,9.6h7.6
		c-0.7-2.1-0.9-11.4-0.9-14.6c0-9-5-9.5-6.7-9.8v-0.1C252.2,143.3,254.1,138.6,254.1,132.2z M242.3,140.7h-3.4v-13.8h3.4
		c2.5,0,3.9,1.8,3.9,6.5C246.2,136.6,245.4,140.7,242.3,140.7z"/>
	<path class="st0" d="M259.6,168.9h7.7v-20.6h2c5.9,0,5.5,5,5.5,11c0,3.2-0.2,6.6,0.8,9.6h7.6c-0.7-2.1-0.9-11.4-0.9-14.6
		c0-9-5-9.5-6.7-9.8v-0.1c5-1.1,6.8-5.9,6.8-12.2c0-8.5-3.4-13-8.6-13h-14.2V168.9z M267.3,126.8h3.4c2.5,0,3.9,1.8,3.9,6.5
		c0,3.2-0.9,7.3-3.9,7.3h-3.4V126.8z"/>
	<polygon class="st0" points="308.6,161.3 295.8,161.3 295.8,146.8 307.3,146.8 307.3,139.1 295.8,139.1 295.8,126.8 308.2,126.8 
		308.2,119.2 288.1,119.2 288.1,168.9 308.6,168.9 	"/>
	<path class="st0" d="M313.2,132.4c0,14.8,15.5,15.4,15.5,24.3c0,3.4-1.3,5.6-3.9,5.6c-4.2,0-4.4-4-4.4-8.7h-7.7
		c-0.4,8.6,1.4,16.2,10.9,16.2c5.9,0,12.9-1.5,12.9-14.4c0-15.6-15.5-14.8-15.5-24.2c0-3.4,1.5-5.3,4-5.3c3.1,0,3.6,3.8,3.6,7.5h7.5
		c0.5-10.4-3.2-14.9-10.7-14.9C315.9,118.4,313.2,124.6,313.2,132.4z"/>
	<polygon class="st0" points="347.7,168.9 355.4,168.9 355.4,127.5 364,127.5 364,119.2 339.1,119.2 339.1,127.5 347.7,127.5 	"/>
	<path class="st0" d="M375.1,148.3h2c5.9,0,5.5,5,5.5,11c0,3.2-0.2,6.6,0.8,9.6h7.6c-0.7-2.1-0.9-11.4-0.9-14.6c0-9-5-9.5-6.7-9.8
		v-0.1c5-1.1,6.8-5.9,6.8-12.2c0-8.5-3.4-13-8.6-13h-14.2v49.7h7.7V148.3z M375.1,126.8h3.4c2.5,0,3.9,1.8,3.9,6.5
		c0,3.2-0.9,7.3-3.9,7.3h-3.4V126.8z"/>
	<rect x="395.9" y="119.2" class="st0" width="7.7" height="49.7"/>
	<path class="st0" d="M417,157.9h10.5l2,11h8.1l-10-49.7h-10.2l-10.2,49.7h7.6L417,157.9z M422.1,128.8h0.1l3.7,21.5h-7.4
		L422.1,128.8z"/>
	<polygon class="st0" points="460.6,160.7 449.1,160.7 449.1,119.2 441.4,119.2 441.4,168.9 460.6,168.9 	"/>
	<polygon class="st0" points="200.4,194.8 200.4,187.1 180.3,187.1 180.3,236.8 200.8,236.8 200.8,229.2 188,229.2 188,214.7 
		199.4,214.7 199.4,207 188,207 188,194.8 	"/>
	<path class="st0" d="M218.2,237.7c7.2,0,11.1-4.3,11.1-17.6h-7.6c-0.1,3.9,0.1,10.1-3.5,10.1c-4.3,0-4.9-5.5-4.9-18.3
		c0-12.7,0.6-18.3,4.9-18.3c2.3,0,3.2,2.5,3.2,9.1h7.6c0.3-10.7-2.9-16.5-10.7-16.5c-12.7,0-12.7,12.5-12.7,25.7
		C205.5,225,205.5,237.7,218.2,237.7z"/>
	<path class="st0" d="M246.6,237.7c12.7,0,12.7-12.7,12.7-25.7c0-13.2,0-25.7-12.7-25.7c-12.7,0-12.7,12.5-12.7,25.7
		C233.8,225,233.8,237.7,246.6,237.7z M246.6,193.7c4.3,0,4.9,5.5,4.9,18.3c0,12.7-0.6,18.3-4.9,18.3c-4.3,0-4.9-5.5-4.9-18.3
		C241.7,199.2,242.2,193.7,246.6,193.7z"/>
	<path class="st0" d="M276.6,230.2c-4.2,0-4.4-4-4.4-8.7h-7.7c-0.4,8.6,1.4,16.2,10.9,16.2c5.9,0,12.9-1.5,12.9-14.4
		c0-15.6-15.5-14.8-15.5-24.2c0-3.4,1.5-5.3,4-5.3c3.1,0,3.6,3.8,3.6,7.5h7.5c0.5-10.4-3.2-14.9-10.7-14.9c-9.4,0-12.2,6.2-12.2,14
		c0,14.8,15.5,15.4,15.5,24.3C280.5,228,279.2,230.2,276.6,230.2z"/>
	<polygon class="st0" points="300.6,236.8 308.3,236.8 308.3,219.6 318.6,187.1 310.7,187.1 304.9,208.1 299.3,187.1 290.9,187.1 
		300.6,219.6 	"/>
	<path class="st0" d="M333.3,230.2c-4.2,0-4.4-4-4.4-8.7h-7.7c-0.4,8.6,1.4,16.2,10.9,16.2c5.9,0,12.9-1.5,12.9-14.4
		c0-15.6-15.5-14.8-15.5-24.2c0-3.4,1.5-5.3,4-5.3c3.1,0,3.6,3.8,3.6,7.5h7.5c0.5-10.4-3.2-14.9-10.7-14.9c-9.4,0-12.2,6.2-12.2,14
		c0,14.8,15.5,15.4,15.5,24.3C337.2,228,335.9,230.2,333.3,230.2z"/>
	<polygon class="st0" points="363.9,236.8 363.9,195.4 372.5,195.4 372.5,187.1 347.6,187.1 347.6,195.4 356.2,195.4 356.2,236.8 	
		"/>
	<polygon class="st0" points="383.8,214.7 395.2,214.7 395.2,207 383.8,207 383.8,194.8 396.2,194.8 396.2,187.1 376.1,187.1 
		376.1,236.8 396.6,236.8 396.6,229.2 383.8,229.2 	"/>
	<polygon class="st0" points="419.7,220.9 419.6,220.9 413.9,187.1 401.4,187.1 401.4,236.8 409,236.8 409,198.5 409.1,198.5 
		415.8,236.8 423.1,236.8 430.2,198.5 430.3,198.5 430.3,236.8 437.9,236.8 437.9,187.1 425.9,187.1 	"/>
	<path class="st0" d="M451.5,199c0-3.4,1.5-5.3,4-5.3c3.1,0,3.6,3.8,3.6,7.5h7.5c0.5-10.4-3.2-14.9-10.7-14.9
		c-9.4,0-12.2,6.2-12.2,14c0,14.8,15.5,15.4,15.5,24.3c0,3.4-1.3,5.6-3.9,5.6c-4.2,0-4.4-4-4.4-8.7h-7.7
		c-0.4,8.6,1.4,16.2,10.9,16.2c5.9,0,12.9-1.5,12.9-14.4C467,207.6,451.5,208.5,451.5,199z"/>
</g>
<g>
	<path class="st1" d="M246.6,230.2c4.3,0,4.9-5.5,4.9-18.3c0-12.7-0.6-18.3-4.9-18.3c-4.3,0-4.9,5.5-4.9,18.3
		C241.7,224.7,242.2,230.2,246.6,230.2z"/>
	<path class="st1" d="M242.3,126.8h-3.4v13.8h3.4c3.1,0,3.9-4.1,3.9-7.3C246.2,128.6,244.8,126.8,242.3,126.8z"/>
	<path class="st1" d="M274.6,133.4c0-4.8-1.5-6.5-3.9-6.5h-3.4v13.8h3.4C273.8,140.7,274.6,136.6,274.6,133.4z"/>
	<path class="st1" d="M289,94.4c4.3,0,4.9-5.5,4.9-18.3c0-12.7-0.6-18.3-4.9-18.3c-4.3,0-4.9,5.5-4.9,18.3
		C284.1,88.9,284.7,94.4,289,94.4z"/>
	<path class="st1" d="M0,1.3v596.5h593.5V1.3H0z M417.5,119.2h10.2l10,49.7h-8.1l-2-11H417l-2.1,11h-7.6L417.5,119.2z M395.9,119.2
		h7.7v49.7h-7.7V119.2z M264.9,200.3c0-7.8,2.8-14,12.2-14c7.5,0,11.2,4.5,10.7,14.9h-7.5c0-3.7-0.5-7.5-3.6-7.5c-2.5,0-4,1.9-4,5.3
		c0,9.4,15.5,8.6,15.5,24.2c0,12.9-7,14.4-12.9,14.4c-9.5,0-11.3-7.6-10.9-16.2h7.7c0,4.8,0.2,8.7,4.4,8.7c2.6,0,3.9-2.3,3.9-5.6
		C280.5,215.6,264.9,215.1,264.9,200.3z M288.1,168.9v-49.7h20.1v7.6h-12.4v12.3h11.4v7.6h-11.4v14.5h12.8v7.6H288.1z M299.3,187.1
		l5.5,21l5.9-21h7.9l-10.3,32.5v17.2h-7.7v-17.2l-9.7-32.5H299.3z M299.8,313.3c5.4-5.7,11.6-8.6,18.6-8.6c8,0,14.7,3.9,17.5,5.8
		c3.1-2.7,10.4-8.1,19.7-8.1c5.9,0,11.6,2.2,16.8,6.6c0.5,0.4,0.8,0.9,0.8,1.6l0.1,1c0.1,1-0.6,1.9-1.5,2.2
		c-0.2,0.1-0.4,0.1-0.5,0.1c-0.4,0-0.8,0-1-0.1c-0.6-0.2-1-0.4-1.4-0.7c-1-0.5-3.4-1.2-6.8-1.2c-4.8,0-14.3,1.4-23,10.6l-0.2,0.2
		c-0.5,0.6-1.2,0.9-2.1,1h-0.2c-0.7,0-1.5-0.3-2-0.8l-0.2-0.2c-7.9-6.5-15.7-7.8-20.8-7.8c-5.3,0-8.9,1.5-10,2.3
		c-0.3,0.4-0.7,0.6-1.1,0.8c-0.1,0-0.3,0.1-0.4,0.1c-0.6,0.2-1.2,0.1-1.8-0.3c-0.6-0.4-1-1-1-1.8l-0.1-1.2
		C299.1,314.3,299.4,313.7,299.8,313.3z M321.7,200.3c0-7.8,2.8-14,12.2-14c7.5,0,11.2,4.5,10.7,14.9h-7.5c0-3.7-0.5-7.5-3.6-7.5
		c-2.5,0-4,1.9-4,5.3c0,9.4,15.5,8.6,15.5,24.2c0,12.9-7,14.4-12.9,14.4c-9.5,0-11.3-7.6-10.9-16.2h7.7c0,4.8,0.2,8.7,4.4,8.7
		c2.6,0,3.9-2.3,3.9-5.6C337.2,215.6,321.7,215.1,321.7,200.3z M347.6,195.4v-8.3h24.9v8.3h-8.6v41.5h-7.7v-41.5H347.6z M326.4,381
		c0-0.6,0.3-1.2,0.7-1.6c6.4-5.9,13.4-8.9,21.1-8.9c10.7,0,19.4,6,22.7,8.5c3.4-2.7,12.1-8.5,22.7-8.5c7.8,0,14.9,3.1,21.3,9.2
		c0.4,0.4,0.7,1,0.7,1.6v1.3c0,1-0.7,1.9-1.7,2.2c-0.6,0.2-1.3,0-1.5-0.1c-0.6-0.2-1.1-0.5-1.5-0.9c-1.4-0.9-5.1-2.2-10.5-2.2
		c-5.6,0-16.5,1.5-27.1,11.3l-0.2,0.2c-0.5,0.6-1.4,0.9-2.2,0.9c-0.9,0-1.7-0.3-2.3-1l-0.2-0.2c-10.6-9.8-21.5-11.3-27.1-11.3
		c-5.4,0-9.1,1.3-10.5,2.2c-0.4,0.4-0.8,0.7-1.3,0.8c-0.2,0.1-0.3,0.1-0.5,0.1c-0.7,0.2-1.3,0-1.8-0.4c-0.5-0.4-0.7-1.1-0.7-1.8V381
		z M409.7,292.8l-0.2,0.8c-0.2,0.6-0.6,1.1-1.1,1.3c-0.3,0.2-0.7,0.3-1,0.3c-0.1,0-0.2,0-0.2,0c-0.1,0-0.3,0-0.4-0.1
		c-0.2-0.1-0.6-0.3-0.8-0.4c-0.4-0.3-0.7-0.6-0.9-1c-1-1.1-5.3-3.8-12-3.8c-3.9,0-7.9,1-11.7,2.9l-0.2,0.1c-0.3,0.2-0.8,0.3-1.3,0.3
		c-0.2,0-0.6-0.1-0.8-0.1c-0.7-0.2-1.3-0.7-1.7-1.3l-0.1-0.2c-7-11.8-17.6-12.2-18.8-12.2c-0.9,0-1.4,0.1-1.6,0.2
		c-0.4,0.2-0.8,0.3-1.3,0.3c-0.1,0-0.2,0-0.3,0c-0.6,0-1.2-0.3-1.6-0.9c-0.4-0.6-0.5-1.3-0.3-2l0.3-0.9c0.2-0.6,0.6-1.1,1.1-1.4
		c3.3-1.7,6.6-2.5,9.8-2.5c9.2,0,15.3,6.7,17.7,9.9c2-0.7,5.5-1.8,9.4-1.8c5.3,0,12.7,1.8,17.8,10.7c0.2,0.3,0.3,0.7,0.3,1.1
		C409.8,292.3,409.7,292.6,409.7,292.8z M396.6,236.8h-20.5v-49.7h20.1v7.6h-12.4V207h11.4v7.6h-11.4v14.5h12.8V236.8z M367.4,119.2
		h14.2c5.3,0,8.6,4.5,8.6,13c0,6.3-1.8,11.1-6.8,12.2v0.1c1.7,0.3,6.7,0.8,6.7,9.8c0,3.2,0.2,12.5,0.9,14.6h-7.6
		c-1-3-0.8-6.4-0.8-9.6c0-5.9,0.4-11-5.5-11h-2v20.6h-7.7V119.2z M339.1,119.2H364v8.3h-8.6v41.5h-7.7v-41.5h-8.6V119.2z
		 M336.1,133.3h-7.5c0-3.7-0.5-7.5-3.6-7.5c-2.5,0-4,1.9-4,5.3c0,9.4,15.5,8.6,15.5,24.2c0,12.9-7,14.4-12.9,14.4
		c-9.5,0-11.3-7.6-10.9-16.2h7.7c0,4.8,0.2,8.7,4.4,8.7c2.6,0,3.9-2.3,3.9-5.6c0-9-15.5-9.5-15.5-24.3c0-7.8,2.8-14,12.2-14
		C332.8,118.4,336.6,122.9,336.1,133.3z M307.7,51.3h19.1v7.6h-11.4v12.7h10.9v7.6h-10.9V101h-7.7V51.3z M289,50.5
		c12.7,0,12.7,12.5,12.7,25.7c0,13,0,25.7-12.7,25.7c-12.7,0-12.7-12.7-12.7-25.7C276.3,63,276.3,50.5,289,50.5z M282.4,132.2
		c0,6.3-1.8,11.1-6.8,12.2v0.1c1.7,0.3,6.7,0.8,6.7,9.8c0,3.2,0.2,12.5,0.9,14.6h-7.6c-1-3-0.8-6.4-0.8-9.6c0-5.9,0.4-11-5.5-11h-2
		v20.6h-7.7v-49.7h14.2C279.1,119.2,282.4,123.8,282.4,132.2z M239.8,51.3h20.1v7.6h-12.4v12.3H259v7.6h-11.4v14.5h12.8v7.6h-20.5
		V51.3z M253.9,154.3c0,3.2,0.2,12.5,0.9,14.6h-7.6c-1-3-0.8-6.4-0.8-9.6c0-5.9,0.4-11-5.5-11h-2v20.6h-7.7v-49.7h14.2
		c5.3,0,8.6,4.5,8.6,13c0,6.3-1.8,11.1-6.8,12.2v0.1C248.9,144.8,253.9,145.4,253.9,154.3z M246.6,186.3c12.7,0,12.7,12.5,12.7,25.7
		c0,13,0,25.7-12.7,25.7c-12.7,0-12.7-12.7-12.7-25.7C233.8,198.8,233.8,186.3,246.6,186.3z M217,51.3h19.1v7.6h-11.4v12.7h10.9v7.6
		h-10.9V101H217V51.3z M225,139.1v7.6h-11.4v14.5h12.8v7.6h-20.5v-49.7h20.1v7.6h-12.4v12.3H225z M218.2,186.3
		c7.9,0,11,5.9,10.7,16.5h-7.6c0-6.6-0.9-9.1-3.2-9.1c-4.3,0-4.9,5.5-4.9,18.3c0,12.7,0.6,18.3,4.9,18.3c3.6,0,3.4-6.2,3.5-10.1h7.6
		c0,13.3-3.9,17.6-11.1,17.6c-12.7,0-12.7-12.7-12.7-25.7C205.5,198.8,205.5,186.3,218.2,186.3z M203,51.3h7.7V101H203V51.3z
		 M180.3,51.3h7.7v41.5h11.5v8.3h-19.2V51.3z M177.4,119.2h24.9v8.3h-8.6v41.5H186v-41.5h-8.6V119.2z M199.4,207v7.6H188v14.5h12.8
		v7.6h-20.5v-49.7h20.1v7.6H188V207H199.4z M194.8,307.6c0.6,0,1.2,0.1,1.8,0.1c1.5-19.8,18.1-35.4,38.4-35.4
		c21.3,0,38.5,17.2,38.5,38.3c0,6-1.4,11.7-3.9,16.7c19.3,4.3,33.7,21.3,33.7,41.8c0,23.7-19.3,42.9-43,42.9
		c-1.7,0-57.4-0.3-57.4-0.3c-16.8,0-30.5-13.6-30.5-30.4c0-8,3.2-15.3,8.3-20.8c-8.5-4.9-14.3-14.1-14.3-24.6
		C166.3,320.3,179.1,307.6,194.8,307.6z M247.1,423.5v39.2c0,0.7-0.5,1.2-1.2,1.2H230c-0.7,0-1.2-0.5-1.2-1.2v-39.2
		c0-0.7,0.5-1.2,1.2-1.2h15.9C246.6,422.3,247.1,422.8,247.1,423.5z M74.1,173.7H54V82.5h-0.2L39.7,97.1h-0.2V76.2l18.5-21.6h16
		V173.7z M142.4,147.8c0,16.5-8.3,27.2-28.6,27.2c-20.5,0-27.7-11.6-27.7-29.7v-13.5h18.3v14.9c0,7,2.5,11.6,9.3,11.6
		c6.2,0,8.5-4.4,8.5-10.7v-28.8c0-6.5-2.5-10.7-8.7-10.7c-5.6,0-8.8,3.9-8.8,10.9v2.6H86.5V54.6h52.9v16.3h-34.6v29.7h0.2
		c3.2-5.5,9-8.3,16.9-8.3c10.8,0,20.5,7.5,20.5,26.3V147.8z M422.1,529.7c0,0.6-0.6,1.2-1.2,1.2H158.4c-0.7,0-1.2-0.5-1.2-1.2v-16
		c0-0.6,0.5-1.2,1.2-1.2h262.5c0.6,0,1.2,0.5,1.2,1.2V529.7z M422.1,497.9c0,0.7-0.6,1.2-1.2,1.2H158.4c-0.7,0-1.2-0.5-1.2-1.2v-16
		c0-0.7,0.5-1.2,1.2-1.2h262.5c0.6,0,1.2,0.6,1.2,1.2V497.9z M437.9,236.8h-7.5v-38.4h-0.1l-7.1,38.4h-7.4l-6.7-38.4H409v38.4h-7.5
		v-49.7h12.4l5.8,33.8h0.1l6.1-33.8h12V236.8z M441.4,119.2h7.7v41.5h11.5v8.3h-19.2V119.2z M454.1,237.7c-9.5,0-11.3-7.6-10.9-16.2
		h7.7c0,4.8,0.2,8.7,4.4,8.7c2.6,0,3.9-2.3,3.9-5.6c0-9-15.5-9.5-15.5-24.3c0-7.8,2.8-14,12.2-14c7.5,0,11.2,4.5,10.7,14.9H459
		c0-3.7-0.5-7.5-3.6-7.5c-2.5,0-4,1.9-4,5.3c0,9.4,15.5,8.6,15.5,24.2C467,236.2,460,237.7,454.1,237.7z"/>
	<path class="st1" d="M382.5,133.4c0-4.8-1.5-6.5-3.9-6.5h-3.4v13.8h3.4C381.6,140.7,382.5,136.6,382.5,133.4z"/>
	<polygon class="st1" points="422.2,128.8 422.1,128.8 418.6,150.3 425.9,150.3 	"/>
</g>
</svg>
