<svg version="1.2" xmlns="http://www.w3.org/2000/svg" viewBox="0 0 287 287" width="287" height="287">
	<style>
		tspan { white-space:pre } 
		.s0 { fill: #dc9e30 } 
		.s1 { fill: #ffffff } 
	</style>
	<g id="Carpeta 2">
	</g>
	<path id="Path 38" fill-rule="evenodd" class="s0" d="m287 0.05v286.95h-287.13v-286.95z"/>
	<path id="Path 39" fill-rule="evenodd" class="s1" d="m27.02 72.36l13.25-20.47 0.81-1.21q2.57-3.85 3.79-6.45 1.21-2.6 1.21-5.71 0-2.64-1.01-4.02-1.02-1.38-2.91-1.38-2.84 0-3.92 2.16-1.08 2.16-1.08 5.94v2.5h-10.14v-2.7q0-7.7 3.62-12.19 3.61-4.5 11.32-4.5 7.1 0 10.78 3.75 3.68 3.75 3.68 10.64 0 3.11-0.94 5.88-0.95 2.77-2.23 4.93-1.29 2.16-3.99 6.15l-10.55 15.8h16.29v8.24h-27.98zm51.71-28.92l5.61-15.83h-5.33v-2.64h9.18v1.96l-5.84 16.35h5.86v2.61h-9.48zm11.55-18.47h8.79v2.69h-4.99v6.02h3.93v2.66h-3.93v6.95h5.04v2.6h-8.84zm10.93 0h5.04q3.31 0.01 4.94 1.26 1.63 1.25 1.63 4.3 0 1.99-0.58 3.24-0.58 1.25-2.01 1.82l2.92 10.31h-3.82l-2.51-9.59h-1.81v9.59h-3.8zm5.02 8.96q1.63 0 2.31-0.75 0.69-0.75 0.69-2.46 0-1.65-0.61-2.4-0.61-0.75-2.19-0.75h-1.42v6.36zm10.42 10.5q-1.4-1.75-1.4-5.1v-7.86q0-3.33 1.4-5.03 1.39-1.71 4.65-1.71 3.23 0 4.63 1.71 1.39 1.7 1.39 5.03v7.86q0 3.33-1.41 5.08-1.41 1.76-4.61 1.76-3.26 0-4.65-1.74zm6.35-1.88q0.44-0.8 0.44-2.32v-9.64q0.01-1.52-0.42-2.29-0.43-0.78-1.72-0.78-1.29 0-1.73 0.79-0.44 0.79-0.44 2.28v9.64q0 1.52 0.44 2.32 0.44 0.8 1.73 0.8 1.27 0 1.7-0.8z"/>
	<path id="Path 40" fill-rule="evenodd" class="s1" d="m75.48 80.06h3.8v-9.45h4.26v9.45h3.83v-20.92h-3.83v8.73h-4.26v-8.73h-3.8zm20.7 0.28q2.27 0 3.57-0.82 1.29-0.83 1.81-2.37 0.51-1.53 0.51-3.86v-14.15h-3.69v14.59q0 1.81-0.43 2.79-0.43 0.98-1.77 0.98-1.32 0-1.74-0.98-0.43-0.98-0.43-2.79v-14.59h-3.72v14.15q0 2.35 0.51 3.88 0.52 1.52 1.81 2.35 1.3 0.82 3.57 0.82zm8.76-0.28h3.26v-12.5l5.12 12.5h2.53v-20.92h-3.15v11.93l-5.1-11.93h-2.66zm19.2 0.29q2.56-0.01 3.54-2.33l0.26 2.04h2.48v-10.61h-5.68v2.4h2.25v1.96q0 1.86-0.51 2.79-0.5 0.93-1.79 0.93-1.32 0-1.8-0.88-0.48-0.88-0.48-2.66v-8.75q0-1.17 0.14-1.89 0.15-0.72 0.61-1.19 0.47-0.46 1.42-0.46 0.91 0 1.36 0.36 0.45 0.36 0.6 1.03 0.14 0.67 0.14 1.81v1.19h3.64v-1.09q0-3.02-1.34-4.56-1.35-1.53-4.45-1.53-3.28 0-4.62 1.82-1.35 1.82-1.35 5.41v7.02q0 3.49 1.31 5.34 1.3 1.84 4.27 1.85zm9.07-0.29h8.84v-2.61h-5.04v-6.95h3.93v-2.66h-3.93v-6.01h4.99v-2.69h-8.79zm10.94 0h3.8v-9.58h1.8l2.51 9.58h3.83l-2.92-10.3q1.42-0.57 2-1.83 0.58-1.25 0.58-3.24 0-3.04-1.63-4.3-1.63-1.25-4.93-1.25h-5.04zm3.8-11.96v-6.35h1.42q1.57 0 2.18 0.75 0.61 0.75 0.61 2.4 0 1.7-0.69 2.45-0.68 0.75-2.31 0.75zm-33.68 176.24v4.05q-0.01 0.05-0.02 0.09 0.01 0.06 0.02 0.1c0.04 1 0.86 1.8 1.87 1.82q0.01 0 0.03 0.01 0.03-0.01 0.05-0.01h47.58q0.02 0 0.04 0.01 0.03-0.01 0.05-0.01c1.03-0.02 1.87-0.86 1.87-1.9q0.01-0.01 0.01-0.02 0 0-0.01-0.01v-4.59c26.79-8.77 46.85-30.47 51.27-56.91q0.01-0.08 0.02-0.16 0.03-0.13 0.03-0.26c0-1.06-0.86-1.92-1.92-1.92h-151.65c-1.07 0-1.93 0.86-1.93 1.92l0.1 0.86c4.63 26.69 25.25 48.51 52.59 56.93z"/>
	<path id="Path 41" class="s1" d="m165.71 119.94c-0.62 0.89-15.27 21.97 0.33 39.02 7.16 7.82 6.54 14.72 4.49 19.39h10.01c2.03-6.89 1.19-15.52-6.93-24.39-11.5-12.56 0.14-29.54 0.32-29.8 1.37-1.94 0.64-4.44-1.63-5.6-2.27-1.16-5.21-0.54-6.59 1.38z"/>
	<path id="Path 42" class="s1" d="m140.37 178.35h10.01c2.02-6.89 1.18-15.52-6.94-24.39-11.51-12.56 0.13-29.53 0.31-29.81 1.37-1.93 0.65-4.42-1.62-5.59-2.27-1.16-5.21-0.54-6.59 1.38-0.62 0.89-15.29 21.97 0.33 39.02 7.16 7.82 6.53 14.73 4.5 19.39z"/>
	<path id="Path 43" class="s1" d="m105.37 119.94c-0.63 0.89-15.29 21.97 0.32 39.02 7.16 7.83 6.54 14.73 4.5 19.39h10.01c2.03-6.88 1.19-15.52-6.94-24.39-11.5-12.56 0.14-29.54 0.32-29.81 1.36-1.93 0.64-4.43-1.63-5.59-2.26-1.17-5.21-0.54-6.58 1.38z"/>
	<path id="Path 38 copy" fill-rule="evenodd" class="s0" d="m280.52 13l2.31 76.85-217.32 1.6-2.31-76.85z"/>
	<path id="HAMBRE CERO" fill-rule="evenodd" class="s1" d="m83.43 48h-4.44v-22.34h4.44v7.98h2.11v-7.98h4.44v22.34h-4.44v-10.13h-2.11zm12.29 0h-4.34l2.16-22.34h7.58l2.12 22.34h-4.23l-0.32-3.61h-2.69zm1.45-18.53l-0.85 11.36h2.03l-0.98-11.36zm11.86 18.53h-4.04v-22.34h6.81l1.88 13.62 1.86-13.62h6.87v22.34h-4.09v-16.09l-2.56 16.09h-4.01l-2.72-16.09zm21.02 0h-6.06v-22.35h6.06q2.44 0 3.54 1.2 1.12 1.18 1.12 3.91v0.97q0 1.58-0.57 2.56-0.56 0.97-1.72 1.28 1.51 0.38 2.02 1.79 0.52 1.39 0.52 3.41 0 2.17-0.4 3.8-0.41 1.62-1.48 2.52-1.06 0.91-3.03 0.91zm-1.69-18.89v4.96h0.91q0.63 0 0.8-0.48 0.18-0.49 0.18-1.16v-2.25q0-1.07-0.95-1.07zm0.44 14.95q1.74 0 1.74-1.65v-2.79q0-0.96-0.29-1.5-0.28-0.56-1.07-0.56h-0.82v6.48q0.28 0.02 0.44 0.02zm11.71 3.94h-4.52v-22.35h6.86q1.71 0 2.59 0.79 0.87 0.77 1.17 2.18 0.3 1.4 0.3 3.29 0 1.83-0.47 2.92-0.46 1.09-1.74 1.51 1.05 0.22 1.47 1.06 0.44 0.82 0.44 2.14v8.46h-4.41v-8.75q0-0.98-0.41-1.21-0.39-0.24-1.28-0.24zm0.03-18.2v4.14h1.08q0.92 0 0.92-2.02 0-1.31-0.2-1.72-0.2-0.4-0.76-0.4zm17.68 18.2h-9.23v-22.34h8.94v4.31h-4.39v4.36h4.21v4.2h-4.21v5.12h4.68zm-74.02 31.2q-2.43 0-3.91-1.51-1.47-1.51-1.47-4.23v-10.31q0-3.25 1.28-4.97 1.29-1.73 4.2-1.73 1.59 0 2.82 0.58 1.24 0.59 1.95 1.76 0.71 1.15 0.71 2.92v3.86h-4.44v-3.31q0-1-0.25-1.34-0.26-0.36-0.79-0.36-0.62 0-0.84 0.46-0.21 0.44-0.21 1.19v11.19q0 0.93 0.26 1.31 0.28 0.38 0.79 0.38 0.57 0 0.8-0.47 0.24-0.47 0.24-1.22v-4.03h4.49v4.23q0 2.95-1.48 4.28-1.49 1.32-4.15 1.32zm16.02-0.2h-9.23v-22.35h8.94v4.32h-4.39v4.35h4.21v4.21h-4.21v5.11h4.68zm6.29 0h-4.52v-22.34h6.86q1.71 0 2.59 0.79 0.87 0.77 1.17 2.18 0.3 1.4 0.3 3.29 0 1.83-0.47 2.92-0.46 1.09-1.74 1.51 1.06 0.21 1.47 1.05 0.44 0.83 0.44 2.15v8.45h-4.41v-8.74q0-0.98-0.41-1.21-0.39-0.24-1.28-0.24zm0.03-18.21v4.14h1.08q0.92 0 0.92-2.02 0-1.3-0.2-1.71-0.2-0.41-0.76-0.41zm12.79 18.41q-2.68 0-4.1-1.61-1.41-1.63-1.41-4.69v-10.61q0-2.87 1.39-4.35 1.41-1.49 4.12-1.49 2.7 0 4.1 1.49 1.41 1.48 1.41 4.35v10.61q0 3.06-1.43 4.69-1.41 1.61-4.08 1.61zm0.03-4.11q1.02 0 1.02-1.97v-10.9q0-1.66-0.99-1.66-1.12 0-1.12 1.69v10.9q0 1.04 0.26 1.49 0.25 0.45 0.83 0.45z"/>
</svg>