<svg version="1.2" xmlns="http://www.w3.org/2000/svg" viewBox="0 0 287 287" width="287" height="287">
	<style>
		tspan { white-space:pre } 
		.s0 { fill: #dc9e30 } 
		.s1 { fill: #ffffff } 
	</style>
	<g id="Carpeta 2">
	</g>
	<path id="Path 38" fill-rule="evenodd" class="s0" d="m287 0.05v286.95h-287.13v-286.95z"/>
	<path id="Path 39" fill-rule="evenodd" class="s1" d="m23.02 72.36l13.25-20.47 0.81-1.21q2.57-3.85 3.79-6.45 1.21-2.6 1.21-5.71 0-2.64-1.01-4.02-1.02-1.38-2.91-1.38-2.84 0-3.92 2.16-1.08 2.16-1.08 5.94v2.5h-10.14v-2.7q0-7.7 3.62-12.19 3.61-4.5 11.32-4.5 7.1 0 10.78 3.75 3.68 3.75 3.68 10.64 0 3.11-0.94 5.88-0.95 2.77-2.23 4.93-1.29 2.16-3.99 6.15l-10.55 15.8h16.29v8.24h-27.98zm51.71-28.92l5.61-15.83h-5.33v-2.64h9.18v1.96l-5.84 16.35h5.86v2.61h-9.48zm11.55-18.47h8.79v2.69h-4.99v6.02h3.93v2.66h-3.93v6.95h5.04v2.6h-8.84zm10.93 0h5.04q3.31 0.01 4.94 1.26 1.63 1.25 1.63 4.3 0 1.99-0.58 3.24-0.58 1.25-2.01 1.82l2.92 10.31h-3.82l-2.51-9.59h-1.81v9.59h-3.8zm5.02 8.96q1.63 0 2.31-0.75 0.69-0.75 0.69-2.46 0-1.65-0.61-2.4-0.61-0.75-2.19-0.75h-1.42v6.36zm10.42 10.5q-1.4-1.75-1.4-5.1v-7.86q0-3.33 1.4-5.03 1.39-1.71 4.65-1.71 3.23 0 4.63 1.71 1.39 1.7 1.39 5.03v7.86q0 3.33-1.41 5.08-1.41 1.76-4.61 1.76-3.26 0-4.65-1.74zm6.35-1.88q0.44-0.8 0.44-2.32v-9.64q0.01-1.52-0.42-2.29-0.43-0.78-1.72-0.78-1.29 0-1.73 0.79-0.44 0.79-0.44 2.28v9.64q0 1.52 0.44 2.32 0.44 0.8 1.73 0.8 1.27 0 1.7-0.8z"/>
	<path id="Path 40" fill-rule="evenodd" class="s1" d="m75.48 80.06h3.8v-9.45h4.26v9.45h3.83v-20.92h-3.83v8.73h-4.26v-8.73h-3.8zm20.7 0.28q2.27 0 3.57-0.82 1.29-0.83 1.81-2.37 0.51-1.53 0.51-3.86v-14.15h-3.69v14.59q0 1.81-0.43 2.79-0.43 0.98-1.77 0.98-1.32 0-1.74-0.98-0.43-0.98-0.43-2.79v-14.59h-3.72v14.15q0 2.35 0.51 3.88 0.52 1.52 1.81 2.35 1.3 0.82 3.57 0.82zm8.76-0.28h3.26v-12.5l5.12 12.5h2.53v-20.92h-3.15v11.93l-5.1-11.93h-2.66zm19.2 0.29q2.56-0.01 3.54-2.33l0.26 2.04h2.48v-10.61h-5.68v2.4h2.25v1.96q0 1.86-0.51 2.79-0.5 0.93-1.79 0.93-1.32 0-1.8-0.88-0.48-0.88-0.48-2.66v-8.75q0-1.17 0.14-1.89 0.15-0.72 0.61-1.19 0.47-0.46 1.42-0.46 0.91 0 1.36 0.36 0.45 0.36 0.6 1.03 0.14 0.67 0.14 1.81v1.19h3.64v-1.09q0-3.02-1.34-4.56-1.35-1.53-4.45-1.53-3.28 0-4.62 1.82-1.35 1.82-1.35 5.41v7.02q0 3.49 1.31 5.34 1.3 1.84 4.27 1.85zm9.07-0.29h8.84v-2.61h-5.04v-6.95h3.93v-2.66h-3.93v-6.01h4.99v-2.69h-8.79zm10.94 0h3.8v-9.58h1.8l2.51 9.58h3.83l-2.92-10.3q1.42-0.57 2-1.83 0.58-1.25 0.58-3.24 0-3.04-1.63-4.3-1.63-1.25-4.93-1.25h-5.04zm3.8-11.96v-6.35h1.42q1.57 0 2.18 0.75 0.61 0.75 0.61 2.4 0 1.7-0.69 2.45-0.68 0.75-2.31 0.75zm-33.68 176.24v4.05q-0.01 0.05-0.02 0.09 0.01 0.06 0.02 0.1c0.04 1 0.86 1.8 1.87 1.82q0.01 0 0.03 0.01 0.03-0.01 0.05-0.01h47.58q0.02 0 0.04 0.01 0.03-0.01 0.05-0.01c1.03-0.02 1.87-0.86 1.87-1.9q0.01-0.01 0.01-0.02 0 0-0.01-0.01v-4.59c26.79-8.77 46.85-30.47 51.27-56.91q0.01-0.08 0.02-0.16 0.03-0.13 0.03-0.26c0-1.06-0.86-1.92-1.92-1.92h-151.65c-1.07 0-1.93 0.86-1.93 1.92l0.1 0.86c4.63 26.69 25.25 48.51 52.59 56.93z"/>
	<path id="Path 41" class="s1" d="m165.71 119.94c-0.62 0.89-15.27 21.97 0.33 39.02 7.16 7.82 6.54 14.72 4.49 19.39h10.01c2.03-6.89 1.19-15.52-6.93-24.39-11.5-12.56 0.14-29.54 0.32-29.8 1.37-1.94 0.64-4.44-1.63-5.6-2.27-1.16-5.21-0.54-6.59 1.38z"/>
	<path id="Path 42" class="s1" d="m140.37 178.35h10.01c2.02-6.89 1.18-15.52-6.94-24.39-11.51-12.56 0.13-29.53 0.31-29.81 1.37-1.93 0.65-4.42-1.62-5.59-2.27-1.16-5.21-0.54-6.59 1.38-0.62 0.89-15.29 21.97 0.33 39.02 7.16 7.82 6.53 14.73 4.5 19.39z"/>
	<path id="Path 43" class="s1" d="m105.37 119.94c-0.63 0.89-15.29 21.97 0.32 39.02 7.16 7.83 6.54 14.73 4.5 19.39h10.01c2.03-6.88 1.19-15.52-6.94-24.39-11.5-12.56 0.14-29.54 0.32-29.81 1.36-1.93 0.64-4.43-1.63-5.59-2.26-1.17-5.21-0.54-6.58 1.38z"/>
</svg>