<svg version="1.2" xmlns="http://www.w3.org/2000/svg" viewBox="0 0 287 287" width="287" height="287">
	<style>
		.s0 { fill: #d4292a } 
		.s1 { fill: #ffffff } 
	</style>
	<g id="Carpeta 1">
		<path id="Path 43" fill-rule="evenodd" class="s0" d="m287 0v287h-287.04v-287z"/>
		<path id="Path 44" fill-rule="evenodd" class="s1" d="m38.38 66.72h-16.49v-8.25l14.26-33.51h11.69v33.85h5.47v7.91h-5.47v12.97h-9.46zm0-7.91v-23.24l-8.31 23.24zm45.23-10.35q-1.16-1.14-1.96-2.35l-0.44 0.02q-3.26 0-4.65-1.74-1.4-1.75-1.4-5.11v-7.85q0-3.33 1.4-5.04 1.39-1.7 4.65-1.7 3.23 0 4.62 1.7 1.4 1.71 1.4 5.04v7.85q0 4.84-2.9 6.2 1.22 1.48 2.09 2.02l-0.72 2.53q-0.93-0.44-2.09-1.57zm-0.67-5.96q0.44-0.81 0.44-2.31v-9.64q0-1.49-0.44-2.28-0.44-0.79-1.73-0.79-1.3 0-1.73 0.78-0.44 0.77-0.44 2.29v9.64q0 1.52 0.44 2.32 0.43 0.81 1.73 0.8 1.29 0 1.73-0.81zm9.17 2.8q-1.29-0.82-1.81-2.35-0.52-1.52-0.52-3.87v-14.16h3.72v14.6q0 1.81 0.43 2.79 0.43 0.98 1.75 0.98 1.34 0 1.76-0.98 0.43-0.98 0.43-2.79v-14.6h3.69v14.16q0 2.32-0.51 3.86-0.52 1.54-1.81 2.36-1.29 0.83-3.56 0.83-2.28 0-3.57-0.83zm15.45-20.38h4.08l4.19 20.93h-3.54l-0.83-4.83h-3.64l-0.86 4.83h-3.59zm3.49 13.66l-1.42-8.78-1.42 8.78zm6.74-13.66h3.8v18.31h5.09v2.61h-8.89zm14.63 0v20.93h-3.78v-20.93zm5.15 2.82h-3.49v-2.82h10.72v2.82h-3.44v18.11h-3.79zm11.7 10.12l-4.24-12.94h3.57l2.58 8.29 2.43-8.29h3.49l-4.19 12.94v7.98h-3.64z"/>
		<path id="Path 45" fill-rule="evenodd" class="s1" d="m75.5 59.1h8.78v2.69h-4.98v6.02h3.92v2.66h-3.92v6.94h5.03v2.61h-8.83zm10.93 0h4.93q2.53 0 3.98 0.69 1.45 0.68 2.05 2.09 0.61 1.41 0.61 3.73v7.62q0 2.38-0.61 3.85-0.6 1.48-2.02 2.21-1.43 0.74-3.85 0.74h-5.09zm4.98 18.26q1.27 0 1.84-0.44 0.56-0.44 0.72-1.22 0.15-0.79 0.15-2.34v-8.01q0-1.4-0.18-2.12-0.18-0.72-0.76-1.07-0.58-0.35-1.82-0.35h-1.14v15.55zm11.45 2.12q-1.29-0.83-1.81-2.35-0.52-1.52-0.52-3.87v-14.16h3.72v14.59q0 1.81 0.43 2.79 0.43 0.99 1.74 0.98 1.35 0.01 1.77-0.98 0.43-0.98 0.43-2.79v-14.59h3.69v14.16q0 2.32-0.51 3.86-0.52 1.53-1.81 2.36-1.29 0.83-3.57 0.83-2.27 0-3.56-0.83zm13.34-0.99q-1.35-1.83-1.35-5.16v-7.46q0-3.44 1.34-5.22 1.34-1.78 4.63-1.78 3.07 0 4.36 1.55 1.29 1.55 1.29 4.46v1.76h-3.67v-1.81q0-1.11-0.1-1.74-0.1-0.63-0.53-1.03-0.42-0.4-1.33-0.4-0.93 0-1.39 0.42-0.47 0.43-0.61 1.14-0.14 0.71-0.14 1.85v9.06q0 1.79 0.46 2.57 0.47 0.79 1.68 0.79 0.88 0 1.31-0.41 0.42-0.41 0.54-1.1 0.11-0.69 0.11-1.82v-1.89h3.67v1.68q0 3.02-1.26 4.69-1.27 1.67-4.39 1.67-3.26 0-4.62-1.82zm15.93-19.39h4.08l4.19 20.92h-3.54l-0.83-4.83h-3.64l-0.85 4.83h-3.59zm3.48 13.67l-1.42-8.78-1.42 8.78z"/>
		<path id="Path 46" fill-rule="evenodd" class="s1" d="m143.73 80.02h3.8v-18.1h3.43v-2.82h-10.72v2.82h3.49zm8.89-20.93v20.92h3.77v-20.92zm12.58 21.21q3.2 0 4.61-1.76 1.41-1.75 1.41-5.09v-7.85q0-3.33-1.4-5.04-1.39-1.7-4.62-1.7-3.25 0-4.65 1.7-1.39 1.71-1.39 5.04v7.85q0 3.36 1.39 5.11 1.4 1.74 4.65 1.74zm0-2.82q-1.29 0-1.73-0.8-0.44-0.8-0.44-2.32v-9.64q0-1.5 0.44-2.28 0.44-0.79 1.73-0.79 1.29 0 1.72 0.77 0.42 0.78 0.42 2.3v9.64q0 1.52-0.43 2.32-0.44 0.8-1.71 0.8zm8.71 2.54h3.25v-12.51l5.12 12.51h2.53v-20.93h-3.15v11.94l-5.09-11.94h-2.66zm-46.74 73.91l-51.72-29.86v96.59l51.72 15.6z"/>
		<path id="Path 47" fill-rule="evenodd" class="s1" d="m184.91 124.08v96.57l-52.06 15.65v-82.17zm28.36 94.88v-85.94h12.24v85.94l-6.11 21.38-6.12-21.38z"/>
		<path id="Path 48" fill-rule="evenodd" class="s1" d="m196.02 227.26l-5.1 1.49-57.65 18.31h-6.37l-62.49-17.3v-101.54l5.55-4.38v102.03l57.21 15.98h5.84l57.46-18.57v-99.44l5.55 4.38zm29.49-99.03h-12.24v-6.59c0-3.38 2.74-6.12 6.12-6.12 3.37 0 6.12 2.74 6.12 6.12z"/>
	</g>
</svg>