<?xml version="1.0" encoding="utf-8"?>
<!-- Generator: Adobe Illustrator 24.2.1, SVG Export Plug-In . SVG Version: 6.00 Build 0)  -->
<svg version="1.1" id="Capa_1" xmlns:serif="http://www.serif.com/"
	 xmlns="http://www.w3.org/2000/svg" xmlns:xlink="http://www.w3.org/1999/xlink" x="0px" y="0px" viewBox="0 0 595.3 595.9"
	 style="enable-background:new 0 0 595.3 595.9;" xml:space="preserve">
<style type="text/css">
	.st0{fill-rule:evenodd;clip-rule:evenodd;fill:#EF402C;}
	.st1{fill:#FFFFFF;}
</style>
<g>
	<path class="st0" d="M196.3,125.1c-3.2,0-5,2.4-5,7.5v27.3c0,4.5,2,6.8,5,6.8c3,0,5-2.4,5-6.8v-27.3
		C201.3,127.5,199.6,125.1,196.3,125.1z"/>
	<polygon class="st0" points="256.5,127.5 256.3,127.5 251.8,152.6 261,152.6 	"/>
	<path class="st0" d="M261.3,83.1V65.2c0-7.7-0.8-10.3-6.9-10.3h-2.9v39.9h3.5C260.3,94.8,261.3,92,261.3,83.1z"/>
	<path class="st0" d="M311.9,63.4c0-7.7-0.4-8.4-4.9-8.4h-3.5v17.3h1.9C311.1,72.2,311.9,71.2,311.9,63.4z"/>
	<path class="st0" d="M0,0.3v595.2h594V0.3H0z M340.7,119.9l6.3,21.9h0.1l7.2-21.9h6.3l-10,30.7v21.3h-7.2v-21.3l-9.9-30.7H340.7z
		 M307.5,125.9v-6H332v6h-8.6v45.9h-7.2v-45.9H307.5z M296.3,48.9h11.2c10.5,0,11.6,2.8,11.6,14.2c0,7-0.9,10-6.8,11.8V75
		c4.9,0.5,6.6,3,6.6,7.9v11.3c0,1.9,0,4.5,0.4,6.6h-6.8c-0.7-1.3-0.9-2.6-0.9-4.7V84.5c0-4.9-0.9-6.2-5.6-6.2h-2.4v22.6h-7.2V48.9z
		 M304.7,119.9v52h-7.2v-52H304.7z M294.3,165.8v6H275v-52h7.2v45.9H294.3z M273.6,48.9h19.6v6h-12.4v16.3h11.7v6h-11.7v17.6h12.4v6
		h-19.6V48.9z M244.3,48.9h11.6c11.7,0,12.6,3.9,12.6,19v15.5c0,13.3-2.4,17.5-13.8,17.5h-10.4V48.9z M252.6,119.9h8.4l10.6,52h-7.2
		l-2.4-13.2h-11.2l-2.4,13.2h-7.2L252.6,119.9z M227,166.7c3.7,0,5-1.8,5-5.3v-41.5h7.2v40.3c0,6-2.4,12.2-12.2,12.2
		c-9.9,0-12.2-6.1-12.2-12.2v-40.3h7.2v41.5C222,164.9,223.3,166.7,227,166.7z M213.6,48.9h9.9l8.5,43.2h0.1V48.9h6.8v52h-10.4
		l-8.5-44.4H220v44.4h-6.3V48.9z M191,48.9h19.6v6h-12.4v16.3h11.7v6h-11.7v17.6h12.4v6H191V48.9z M161.7,62.2
		c0-9.7,3-13.7,12.2-13.7c7.7,0,11.7,2.8,11.7,9.4v4.8h-7.2V60c0-3.7-1.8-5.9-4.6-5.9c-3.3,0-5,3-5,8.6v26.2c0,4.2,2,6.8,5,6.8
		c2,0,3.7-0.3,4.6-0.5V79.9h-4.8v-6h12V100c-2.8,0.6-7.8,1.3-11.9,1.3c-9.1,0-12.1-4.8-12.1-12.9V62.2z M115.2,144.1
		c0,16.6-8.3,27.4-28.6,27.4c-20.5,0-27.7-11.7-27.7-29.9V128h18.4v15c0,7.1,2.5,11.7,9.4,11.7c6.2,0,8.5-4.4,8.5-10.8v-29
		c0-6.6-2.5-10.8-8.7-10.8c-5.6,0-8.8,3.9-8.8,11v2.7H59.2V50.1h53v16.5H77.6v29.9h0.2c3.2-5.5,9-8.3,17-8.3
		c10.8,0,20.5,7.6,20.5,26.6V144.1z M181.3,125.9h-12.4v16.3h11.7v6h-11.7v17.6h12.4v6h-19.6v-52h19.6V125.9z M184.1,159.4v-26.3
		c0-7.3,2.4-13.7,12.2-13.7c9.3,0,12.2,4.8,12.2,12.9v24.6c0,4.3-1.2,8.5-3,10.5l0.1,0.1c1.3-0.6,3.7-0.9,6.8-0.9v5.2
		c-5.4,0-13,0.4-16.1,0.4C187.1,172.3,184.1,167.5,184.1,159.4z M433.6,300.5c0,0.5-0.4,0.9-1,0.9h-24.5c-0.5,0-1-0.4-1-0.9v-27.5
		L375,305.2c11.1,15.8,17.7,35,17.7,55.7c0,48.1-35.1,88.1-81,95.6v28.8h29.1c0.5,0,0.9,0.4,0.9,0.9v26.4c0,0.5-0.4,0.9-0.9,0.9
		h-29.1v27.9c0,0.5-0.4,0.9-1,0.9h-26.3c-0.5,0-0.9-0.4-0.9-0.9v-27.9h-29.1c-0.5,0-1-0.4-1-0.9v-26.4c0-0.5,0.4-0.9,1-0.9h29.1V457
		c-47.4-6.2-84.2-46.9-84.2-96c0-53.4,43.4-96.9,96.7-96.9c22.5,0,43.2,7.7,59.6,20.7l32.6-32.7h-29.4c-0.5,0-0.9-0.4-0.9-0.9v-24.6
		c0-0.5,0.4-0.9,0.9-0.9h73.8c0.5,0,1,0.4,1,0.9V300.5z"/>
	<path class="st0" d="M296,289.6c-39.2,0-71.2,32-71.2,71.3c0,39.3,31.9,71.3,71.2,71.3c39.3,0,71.2-32,71.2-71.3
		C367.1,321.6,335.2,289.6,296,289.6z M340.4,390.8c0,0.5-0.4,0.8-1,0.8h-86.3c-0.5,0-0.9-0.4-0.9-0.8v-20.9c0-0.5,0.4-0.9,0.9-0.9
		h86.3c0.5,0,1,0.4,1,0.9V390.8z M340.4,353.4c0,0.5-0.4,0.9-1,0.9h-86.3c-0.5,0-0.9-0.4-0.9-0.9v-20.9c0-0.5,0.4-0.8,0.9-0.8h86.3
		c0.5,0,1,0.4,1,0.8V353.4z"/>
</g>
<g>
	<path class="st1" d="M93.7,88.2c-7.9,0-13.8,2.8-17,8.3h-0.2V66.6h34.6V50.1h-53v67.6h18.4v-2.7c0-7.1,3.2-11,8.8-11
		c6.2,0,8.7,4.3,8.7,10.8v29c0,6.4-2.3,10.8-8.5,10.8c-6.9,0-9.4-4.6-9.4-11.7v-15H57.8v13.6c0,18.2,7.2,29.9,27.7,29.9
		c20.3,0,28.6-10.8,28.6-27.4v-29.4C114.2,95.8,104.5,88.2,93.7,88.2z"/>
	<path class="st1" d="M431.7,225.5h-73.8c-0.5,0-0.9,0.4-0.9,0.9v24.6c0,0.5,0.4,0.9,0.9,0.9h29.4l-32.6,32.7
		C338.1,271.8,317.5,264,295,264c-53.3,0-96.7,43.5-96.7,96.9c0,49.2,36.8,89.9,84.2,96v28.3h-29.1c-0.5,0-1,0.4-1,0.9v26.4
		c0,0.5,0.4,0.9,1,0.9h29.1v27.9c0,0.5,0.4,0.9,0.9,0.9h26.3c0.5,0,1-0.4,1-0.9v-27.9h29.1c0.5,0,0.9-0.4,0.9-0.9v-26.4
		c0-0.5-0.4-0.9-0.9-0.9h-29.1v-28.8c45.9-7.5,81-47.5,81-95.6c0-20.7-6.6-40-17.7-55.7l32.2-32.2v27.5c0,0.5,0.4,0.9,1,0.9h24.5
		c0.5,0,1-0.4,1-0.9v-74C432.6,226,432.2,225.5,431.7,225.5z M295,432.2c-39.2,0-71.2-32-71.2-71.3c0-39.3,31.9-71.3,71.2-71.3
		c39.3,0,71.2,32,71.2,71.3C366.1,400.2,334.2,432.2,295,432.2z"/>
	<path class="st1" d="M338.4,331.6h-86.3c-0.5,0-0.9,0.4-0.9,0.8v20.9c0,0.5,0.4,0.9,0.9,0.9h86.3c0.5,0,1-0.4,1-0.9v-20.9
		C339.4,332,339,331.6,338.4,331.6z"/>
	<path class="st1" d="M338.4,369h-86.3c-0.5,0-0.9,0.4-0.9,0.9v20.9c0,0.5,0.4,0.8,0.9,0.8h86.3c0.5,0,1-0.4,1-0.8v-20.9
		C339.4,369.4,339,369,338.4,369z"/>
	<path class="st1" d="M172.8,101.3c4.1,0,9.1-0.6,11.9-1.3V73.9h-12v6h4.8v15.3c-0.9,0.2-2.6,0.5-4.6,0.5c-3,0-5-2.7-5-6.8V62.7
		c0-5.5,1.7-8.6,5-8.6c2.8,0,4.6,2.2,4.6,5.9v2.7h7.2v-4.8c0-6.6-4-9.4-11.7-9.4c-9.3,0-12.2,4-12.2,13.7v26.3
		C160.7,96.5,163.6,101.3,172.8,101.3z"/>
	<polygon class="st1" points="209.6,94.8 197.2,94.8 197.2,77.3 208.8,77.3 208.8,71.2 197.2,71.2 197.2,54.9 209.6,54.9 
		209.6,48.9 190,48.9 190,100.9 209.6,100.9 	"/>
	<polygon class="st1" points="219,56.5 219.1,56.5 227.6,100.9 238,100.9 238,48.9 231.2,48.9 231.2,92.1 231.1,92.1 222.6,48.9 
		212.6,48.9 212.6,100.9 219,100.9 	"/>
	<path class="st1" d="M267.5,83.4V67.9c0-15.1-0.9-19-12.6-19h-11.6v52h10.4C265.1,100.9,267.5,96.7,267.5,83.4z M250.5,54.9h2.9
		c6.1,0,6.9,2.6,6.9,10.3v17.9c0,8.9-1,11.7-6.3,11.7h-3.5V54.9z"/>
	<polygon class="st1" points="292.2,94.8 279.8,94.8 279.8,77.3 291.5,77.3 291.5,71.2 279.8,71.2 279.8,54.9 292.2,54.9 
		292.2,48.9 272.6,48.9 272.6,100.9 292.2,100.9 	"/>
	<path class="st1" d="M302.5,78.3h2.4c4.8,0,5.6,1.3,5.6,6.2v11.7c0,2.1,0.1,3.4,0.9,4.7h6.8c-0.4-2.2-0.4-4.8-0.4-6.6V83
		c0-4.9-1.7-7.4-6.6-7.9v-0.1c5.9-1.8,6.8-4.8,6.8-11.8c0-11.4-1.1-14.2-11.6-14.2h-11.2v52h7.2V78.3z M302.5,54.9h3.5
		c4.5,0,4.9,0.7,4.9,8.4c0,7.8-0.8,8.9-6.5,8.9h-1.9V54.9z"/>
	<polygon class="st1" points="160.7,171.9 180.3,171.9 180.3,165.8 167.9,165.8 167.9,148.3 179.5,148.3 179.5,142.2 167.9,142.2 
		167.9,125.9 180.3,125.9 180.3,119.9 160.7,119.9 	"/>
	<path class="st1" d="M211.4,166.7c-3.1,0-5.5,0.2-6.8,0.9l-0.1-0.1c1.8-2,3-6.2,3-10.5v-24.6c0-8.1-3-12.9-12.2-12.9
		c-9.8,0-12.2,6.4-12.2,13.7v26.3c0,8.1,3,12.9,12.2,12.9c3.2,0,10.7-0.4,16.1-0.4V166.7z M200.3,159.9c0,4.5-2,6.8-5,6.8
		c-3,0-5-2.4-5-6.8v-27.3c0-5.1,1.7-7.5,5-7.5c3.3,0,5,2.4,5,7.5V159.9z"/>
	<path class="st1" d="M213.8,119.9v40.3c0,6,2.4,12.2,12.2,12.2c9.8,0,12.2-6.1,12.2-12.2v-40.3H231v41.5c0,3.5-1.3,5.3-5,5.3
		c-3.7,0-5-1.8-5-5.3v-41.5H213.8z"/>
	<path class="st1" d="M249.7,158.6H261l2.4,13.2h7.2l-10.6-52h-8.4l-11.4,52h7.2L249.7,158.6z M255.3,127.5h0.1l4.5,25.1h-9.1
		L255.3,127.5z"/>
	<polygon class="st1" points="274,119.9 274,171.9 293.3,171.9 293.3,165.8 281.2,165.8 281.2,119.9 	"/>
	<rect x="296.5" y="119.9" class="st1" width="7.2" height="52"/>
	<polygon class="st1" points="322.4,171.9 322.4,125.9 331,125.9 331,119.9 306.5,119.9 306.5,125.9 315.2,125.9 315.2,171.9 	"/>
	<polygon class="st1" points="342.5,171.9 349.7,171.9 349.7,150.6 359.7,119.9 353.3,119.9 346.1,141.8 346,141.8 339.7,119.9 
		332.5,119.9 342.5,150.6 	"/>
</g>
</svg>
