<?xml version="1.0" encoding="UTF-8" standalone="no"?>
<!DOCTYPE svg PUBLIC "-//W3C//DTD SVG 1.1//EN" "http://www.w3.org/Graphics/SVG/1.1/DTD/svg11.dtd">
<svg width="100%" height="100%" viewBox="0 0 287 287" version="1.1" xmlns="http://www.w3.org/2000/svg" xmlns:xlink="http://www.w3.org/1999/xlink" xml:space="preserve" xmlns:serif="http://www.serif.com/" style="fill-rule:evenodd;clip-rule:evenodd;stroke-linejoin:round;stroke-miterlimit:2;">
    <g transform="matrix(-4.16667,0,0,4.16667,435.938,-3035.67)">
        <rect x="35.893" y="728.562" width="68.732" height="68.875" style="fill:rgb(239,64,44);"/>
    </g>
    <g transform="matrix(4.16667,0,0,4.16667,45.6621,64.2154)">
        <path d="M0,-5.243C-0.919,-5.243 -1.594,-4.916 -1.962,-4.28L-1.983,-4.28L-1.983,-7.742L2.024,-7.742L2.024,-9.647L-4.108,-9.647L-4.108,-1.822L-1.983,-1.822L-1.983,-2.13C-1.983,-2.95 -1.614,-3.4 -0.961,-3.4C-0.245,-3.4 0.041,-2.908 0.041,-2.15L0.041,1.209C0.041,1.947 -0.225,2.458 -0.94,2.458C-1.738,2.458 -2.023,1.926 -2.023,1.107L-2.023,-0.634L-4.15,-0.634L-4.15,0.943C-4.15,3.052 -3.312,4.404 -0.94,4.404C1.411,4.404 2.371,3.155 2.371,1.229L2.371,-2.17C2.371,-4.362 1.247,-5.243 0,-5.243" style="fill:white;fill-rule:nonzero;"/>
    </g>
    <g transform="matrix(4.16667,0,0,4.16667,142.695,161.67)">
        <path d="M0,11.178C-4.541,11.178 -8.234,7.476 -8.234,2.926C-8.234,-1.625 -4.541,-5.326 0,-5.326C4.542,-5.326 8.236,-1.625 8.236,2.926C8.236,7.476 4.542,11.178 0,11.178M15.816,-12.74L7.274,-12.74C7.215,-12.74 7.165,-12.691 7.165,-12.631L7.165,-9.786C7.165,-9.725 7.215,-9.677 7.274,-9.677L10.675,-9.677L6.898,-5.891C4.996,-7.389 2.602,-8.285 0,-8.285C-6.168,-8.285 -11.188,-3.256 -11.188,2.926C-11.188,8.618 -6.933,13.328 -1.444,14.04L-1.444,17.318L-4.813,17.318C-4.876,17.318 -4.923,17.366 -4.923,17.426L-4.923,20.475C-4.923,20.535 -4.876,20.584 -4.813,20.584L-1.444,20.584L-1.444,23.809C-1.444,23.869 -1.396,23.918 -1.336,23.918L1.706,23.918C1.766,23.918 1.816,23.869 1.816,23.809L1.816,20.584L5.185,20.584C5.245,20.584 5.293,20.535 5.293,20.475L5.293,17.426C5.293,17.366 5.245,17.318 5.185,17.318L1.816,17.318L1.816,13.987C7.124,13.115 11.188,8.488 11.188,2.926C11.188,0.526 10.43,-1.697 9.145,-3.523L12.868,-7.254L12.868,-4.07C12.868,-4.01 12.918,-3.962 12.978,-3.962L15.816,-3.962C15.877,-3.962 15.927,-4.01 15.927,-4.07L15.927,-12.631C15.927,-12.691 15.877,-12.74 15.816,-12.74" style="fill:white;fill-rule:nonzero;"/>
    </g>
    <g transform="matrix(4.16667,0,0,4.16667,163.655,170.664)">
        <path d="M0,-2.62L-9.989,-2.62C-10.049,-2.62 -10.098,-2.576 -10.098,-2.522L-10.098,-0.099C-10.098,-0.042 -10.049,0 -9.989,0L0,0C0.062,0 0.111,-0.042 0.111,-0.099L0.111,-2.522C0.111,-2.576 0.062,-2.62 0,-2.62" style="fill:white;fill-rule:nonzero;"/>
    </g>
    <g transform="matrix(4.16667,0,0,4.16667,163.655,188.7)">
        <path d="M0,-2.622L-9.989,-2.622C-10.049,-2.622 -10.098,-2.576 -10.098,-2.521L-10.098,-0.098C-10.098,-0.044 -10.049,0 -9.989,0L0,0C0.062,0 0.111,-0.044 0.111,-0.098L0.111,-2.521C0.111,-2.576 0.062,-2.622 0,-2.622" style="fill:white;fill-rule:nonzero;"/>
    </g>
    <g transform="matrix(4.16667,0,0,4.16667,-149.554,-3251.74)">
        <rect x="54.563" y="786.025" width="0.974" height="5.805" style="fill:white;"/>
    </g>
    <g transform="matrix(4.16667,0,0,4.16667,90.3204,36.2758)">
        <path d="M0,-0.394L1.384,-0.394L1.384,2.705L0.684,2.705L0.684,2.072C0.556,2.508 0.282,2.774 -0.248,2.774C-1.085,2.774 -1.47,2.106 -1.47,1.207L-1.47,-1.601C-1.47,-2.509 -1.034,-3.168 -0.008,-3.168C1.068,-3.168 1.384,-2.569 1.384,-1.713L1.384,-1.199L0.496,-1.199L0.496,-1.79C0.496,-2.149 0.359,-2.355 0.009,-2.355C-0.341,-2.355 -0.496,-2.106 -0.496,-1.755L-0.496,1.361C-0.496,1.712 -0.35,1.961 -0.017,1.961C0.299,1.961 0.462,1.781 0.462,1.404L0.462,0.377L0,0.377L0,-0.394Z" style="fill:white;fill-rule:nonzero;"/>
    </g>
    <g transform="matrix(4.16667,0,0,4.16667,110.182,47.8321)">
        <path d="M0,-5.873L0,-1.481C0,-0.582 -0.384,0 -1.376,0C-2.401,0 -2.828,-0.582 -2.828,-1.481L-2.828,-5.873L-1.854,-5.873L-1.854,-1.387C-1.854,-1.044 -1.717,-0.813 -1.376,-0.813C-1.034,-0.813 -0.897,-1.044 -0.897,-1.387L-0.897,-5.873L0,-5.873Z" style="fill:white;fill-rule:nonzero;"/>
    </g>
    <g transform="matrix(4.16667,0,0,4.16667,116.413,31.0329)">
        <path d="M0,2.123L0.777,2.123L0.393,-0.206L0.384,-0.206L0,2.123ZM-1.222,3.964L-0.129,-1.841L0.982,-1.841L2.085,3.964L1.085,3.964L0.905,2.902L-0.129,2.902L-0.299,3.964L-1.222,3.964Z" style="fill:white;fill-rule:nonzero;"/>
    </g>
    <g transform="matrix(4.16667,0,0,4.16667,126.766,47.5487)">
        <path d="M0,-5.805L0.974,-5.805L0.974,-0.797L2.136,-0.797L2.136,0L0,0L0,-5.805Z" style="fill:white;fill-rule:nonzero;"/>
    </g>
    <g transform="matrix(4.16667,0,0,4.16667,143.284,26.68)">
        <path d="M0,4.212C0.401,4.212 0.555,3.972 0.555,3.621L0.555,0.582C0.555,0.239 0.401,0 0,0L-0.41,0L-0.41,4.212L0,4.212ZM1.529,0.762L1.529,3.45C1.529,4.34 1.162,5.008 0.12,5.008L-1.384,5.008L-1.384,-0.796L0.12,-0.796C1.162,-0.796 1.529,-0.137 1.529,0.762" style="fill:white;fill-rule:nonzero;"/>
    </g>
    <g transform="matrix(4.16667,0,0,4.16667,155.885,31.0329)">
        <path d="M0,2.123L0.777,2.123L0.393,-0.206L0.384,-0.206L0,2.123ZM-1.223,3.964L-0.128,-1.841L0.982,-1.841L2.085,3.964L1.085,3.964L0.906,2.902L-0.128,2.902L-0.299,3.964L-1.223,3.964Z" style="fill:white;fill-rule:nonzero;"/>
    </g>
    <g transform="matrix(4.16667,0,0,4.16667,172.007,26.68)">
        <path d="M0,4.212C0.401,4.212 0.555,3.972 0.555,3.621L0.555,0.582C0.555,0.239 0.401,0 0,0L-0.41,0L-0.41,4.212L0,4.212ZM1.529,0.762L1.529,3.45C1.529,4.34 1.162,5.008 0.12,5.008L-1.384,5.008L-1.384,-0.796L0.12,-0.796C1.162,-0.796 1.529,-0.137 1.529,0.762" style="fill:white;fill-rule:nonzero;"/>
    </g>
    <g transform="matrix(4.16667,0,0,4.16667,83.5592,60.5583)">
        <path d="M0,4.213C0.401,4.213 0.555,3.973 0.555,3.622L0.555,0.583C0.555,0.24 0.401,0.001 0,0.001L-0.41,0.001L-0.41,4.213L0,4.213ZM1.529,0.763L1.529,3.451C1.529,4.341 1.162,5.009 0.119,5.009L-1.384,5.009L-1.384,-0.796L0.119,-0.796C1.162,-0.796 1.529,-0.136 1.529,0.763" style="fill:white;fill-rule:nonzero;"/>
    </g>
    <g transform="matrix(4.16667,0,0,4.16667,92.2433,81.4312)">
        <path d="M0,-5.805L2.324,-5.805L2.324,-5.009L0.974,-5.009L0.974,-3.348L1.939,-3.348L1.939,-2.56L0.974,-2.56L0.974,-0.796L2.324,-0.796L2.324,0L0,0L0,-5.805Z" style="fill:white;fill-rule:nonzero;"/>
    </g>
    <g transform="matrix(4.16667,0,0,4.16667,113.955,70.1583)">
        <path d="M0,-0.394L1.384,-0.394L1.384,2.705L0.684,2.705L0.684,2.072C0.556,2.508 0.282,2.774 -0.248,2.774C-1.085,2.774 -1.47,2.106 -1.47,1.207L-1.47,-1.601C-1.47,-2.509 -1.034,-3.168 -0.008,-3.168C1.068,-3.168 1.384,-2.569 1.384,-1.712L1.384,-1.199L0.496,-1.199L0.496,-1.79C0.496,-2.149 0.359,-2.355 0.009,-2.355C-0.342,-2.355 -0.496,-2.106 -0.496,-1.755L-0.496,1.361C-0.496,1.712 -0.35,1.961 -0.017,1.961C0.299,1.961 0.462,1.781 0.462,1.404L0.462,0.377L0,0.377L0,-0.394Z" style="fill:white;fill-rule:nonzero;"/>
    </g>
    <g transform="matrix(4.16667,0,0,4.16667,130.471,78.615)">
        <path d="M0,-5.54L-1.53,-5.343L-1.53,-5.891L0,-6.216L0,-5.54ZM-2.025,-5.129L0.299,-5.129L0.299,-4.333L-1.051,-4.333L-1.051,-2.672L-0.086,-2.672L-0.086,-1.884L-1.051,-1.884L-1.051,-0.121L0.299,-0.121L0.299,0.676L-2.025,0.676L-2.025,-5.129Z" style="fill:white;fill-rule:nonzero;"/>
    </g>
    <g transform="matrix(4.16667,0,0,4.16667,137.305,72.4375)">
        <path d="M0,-1.489L0,2.158L-0.821,2.158L-0.821,-3.647L0.136,-3.647L1.187,-0.316L1.187,-3.647L1.999,-3.647L1.999,2.158L1.145,2.158L0,-1.489Z" style="fill:white;fill-rule:nonzero;"/>
    </g>
    <g transform="matrix(4.16667,0,0,4.16667,147.945,81.4312)">
        <path d="M0,-5.805L2.324,-5.805L2.324,-5.009L0.974,-5.009L0.974,-3.348L1.94,-3.348L1.94,-2.56L0.974,-2.56L0.974,-0.796L2.324,-0.796L2.324,0L0,0L0,-5.805Z" style="fill:white;fill-rule:nonzero;"/>
    </g>
    <g transform="matrix(4.16667,0,0,4.16667,163.853,78.1117)">
        <path d="M0,-4.212L0,-2.405L0.325,-2.405C0.658,-2.405 0.803,-2.577 0.803,-2.885L0.803,-3.741C0.803,-4.058 0.658,-4.212 0.325,-4.212L0,-4.212ZM0,-1.866L0,0.796L-0.974,0.796L-0.974,-5.008L0.445,-5.008C1.427,-5.008 1.786,-4.52 1.786,-3.707L1.786,-2.962C1.786,-2.337 1.564,-1.969 1.008,-1.84L1.94,0.796L0.914,0.796L0,-1.866Z" style="fill:white;fill-rule:nonzero;"/>
    </g>
    <g transform="matrix(4.16667,0,0,4.16667,181.725,62.8462)">
        <path d="M0,3.116L0,-0.001C0,-0.351 -0.154,-0.6 -0.504,-0.6C-0.846,-0.6 -1,-0.351 -1,-0.001L-1,3.116C-1,3.467 -0.846,3.715 -0.504,3.715C-0.154,3.715 0,3.467 0,3.116M-1.974,2.962L-1.974,0.154C-1.974,-0.754 -1.529,-1.413 -0.504,-1.413C0.53,-1.413 0.974,-0.754 0.974,0.154L0.974,2.962C0.974,3.861 0.53,4.529 -0.504,4.529C-1.529,4.529 -1.974,3.861 -1.974,2.962" style="fill:white;fill-rule:nonzero;"/>
    </g>
</svg>
