<?xml version="1.0" encoding="utf-8"?>
<!-- Generator: Adobe Illustrator 24.2.1, SVG Export Plug-In . SVG Version: 6.00 Build 0)  -->
<svg version="1.1" id="Capa_1" xmlns:serif="http://www.serif.com/"
	 xmlns="http://www.w3.org/2000/svg" xmlns:xlink="http://www.w3.org/1999/xlink" x="0px" y="0px" viewBox="0 0 595.3 594.9"
	 style="enable-background:new 0 0 595.3 594.9;" xml:space="preserve">
<style type="text/css">
	.st0{fill-rule:evenodd;clip-rule:evenodd;fill:#8F1737;}
	.st1{fill:#FFFFFF;}
</style>
<g>
	<path class="st0" d="M166.8,81.1c0-9.2,0-17.3-6.3-17.3h-4.7v34.6h4.4C165.8,98.4,166.8,93.6,166.8,81.1z"/>
	<path class="st0" d="M88.8,100.6c6.7,0,9.1-4.2,9.1-11.4v-8.1c0-7.2-2.5-11.4-9.1-11.4c-6.5,0-9,4.2-9,11.4v8.1
		C79.9,96.3,82.3,100.6,88.8,100.6z"/>
	<path class="st0" d="M88.8,115.3c-7,0-9.7,5.1-9.7,12.3v19.3c0,7.2,2.6,12.3,9.7,12.3c7.2,0,9.8-5.1,9.8-12.3v-19.3
		C98.6,120.4,96,115.3,88.8,115.3z"/>
	<polygon class="st0" points="160.8,130.1 160.7,130.1 156.5,151.7 165.2,151.7 	"/>
	<path class="st0" d="M468.1,70.3c0-4.8-1.7-6.6-4.6-6.6h-4v13.9h4C467.1,77.7,468.1,73.5,468.1,70.3z"/>
	<path class="st0" d="M351.5,163.8c5.1,0,5.8-5.5,5.8-18.3c0-12.8-0.7-18.3-5.8-18.3c-5.1,0-5.8,5.5-5.8,18.3
		C345.8,158.3,346.4,163.8,351.5,163.8z"/>
	<path class="st0" d="M237.4,128.2h-4.7v34.6h4.4c5.5,0,6.6-4.8,6.6-17.3C243.7,136.3,243.7,128.2,237.4,128.2z"/>
	<ellipse class="st0" cx="231.3" cy="209.9" rx="5.8" ry="18.3"/>
	<path class="st0" d="M200.9,199.1c0-4.8-1.7-6.6-4.6-6.6h-4v13.9h4C199.9,206.5,200.9,202.3,200.9,199.1z"/>
	<path class="st0" d="M428.4,127.1c-5.1,0-5.8,5.5-5.8,18.3c0,12.8,0.7,18.3,5.8,18.3c5.1,0,5.8-5.5,5.8-18.3
		C434.1,132.7,433.5,127.1,428.4,127.1z"/>
	<path class="st0" d="M428.4,62.7c-5.1,0-5.8,5.5-5.8,18.3s0.7,18.3,5.8,18.3c5.1,0,5.8-5.5,5.8-18.3S433.5,62.7,428.4,62.7z"/>
	<path class="st0" d="M0,1.3v594h594V1.3H0z M450.4,56.1h16.8c6.2,0,10.2,4.6,10.2,13.1c0,6.4-2.2,11.1-8.1,12.2v0.1
		c2,0.3,7.9,0.8,7.9,9.8c0,3.2,0.2,12.6,1,14.7h-8.9c-1.2-3-1-6.4-1-9.7c0-6,0.5-11-6.5-11h-2.3v20.7h-9.1V56.1z M365.9,56.1
		l5.7,35.1h0.1l6.9-35.1h10.7l6.5,35.1h0.1l5.4-35.1h8.9l-9.6,50h-10l-6.8-36.5h-0.1l-7.5,36.5h-9.9l-9.6-50H365.9z M406.2,120.5v50
		h-12l-11.8-36.5h-0.1v36.5h-8.5v-50h12.3l11.5,34.6h0.1v-34.6H406.2z M366.5,145.5c0,13.1,0,25.8-15,25.8s-15-12.7-15-25.8
		c0-13.2,0-25.8,15-25.8S366.5,132.2,366.5,145.5z M346.4,212.6v22.3h-9.1v-50h9.1v20h10.4v-20h9.1v50h-9.1v-22.3H346.4z
		 M313.5,56.1h29.3v8.3h-10.1v41.7h-9.1V64.4h-10.1V56.1z M303.5,193.2v-8.3h29.3v8.3h-10.1v41.7h-9.1v-41.7H303.5z M318.1,163.8
		c4.2,0,4-6.2,4.1-10.2h9c0,13.4-4.6,17.6-13.1,17.6c-15,0-15-12.7-15-25.8c0-13.2,0-25.8,15-25.8c9.3,0,13,5.9,12.6,16.6h-8.9
		c0-6.6-1-9.1-3.7-9.1c-5.1,0-5.8,5.5-5.8,18.3C312.3,158.3,313,163.8,318.1,163.8z M276.9,56.1h12.3l11.5,34.6h0.1V56.1h8.5v50h-12
		l-11.8-36.5h-0.1v36.5h-8.5V56.1z M273.5,120.5h23.7v7.7h-14.6v12.3H296v7.7h-13.5v14.6h15.1v7.7h-24.2V120.5z M282.3,184.9
		l6.5,35.1h0.1l5.4-35.1h8.9l-9.6,50h-10l-6.8-36.5h-0.1l-7.5,36.5h-9.9l-9.6-50h9.3l5.7,35.1h0.1l6.9-35.1H282.3z M238.4,170.4
		h-14.8v-50h15.2c11.9,0,14.1,9.1,14.1,24.7C252.9,152.9,253.9,170.4,238.4,170.4z M246.3,209.9c0,13.1,0,25.8-15,25.8
		s-15-12.7-15-25.8c0-13.2,0-25.8,15-25.8S246.3,196.6,246.3,209.9z M246.8,56.1h23.7v7.7h-14.6v12.3h13.5v7.7h-13.5v14.6H271v7.7
		h-24.2V56.1z M227.9,55.3c9.3,0,13,5.9,12.6,16.6h-8.9c0-6.6-1-9.1-3.7-9.1c-5.1,0-5.8,5.5-5.8,18.3s0.7,18.3,5.8,18.3
		c4.2,0,4-6.2,4.1-10.2h9c0,13.4-4.6,17.6-13.1,17.6c-15,0-15-12.7-15-25.8C213,67.9,213,55.3,227.9,55.3z M215.8,120.5v50h-12
		L192,133.9h-0.1v36.5h-8.5v-50h12.3l11.5,34.6h0.1v-34.6H215.8z M183.3,56.1H207v7.7h-14.6v12.3h13.5v7.7h-13.5v14.6h15.1v7.7
		h-24.2V56.1z M183.1,184.9h16.8c6.2,0,10.2,4.6,10.2,13.1c0,6.4-2.2,11.1-8.1,12.2v0.1c2,0.3,7.9,0.8,7.9,9.8
		c0,3.2,0.2,12.6,1,14.7H202c-1.2-3-1-6.4-1-9.7c0-6,0.5-11-6.5-11h-2.3v20.7h-9.1V184.9z M146.8,56.1h15.2
		c11.9,0,14.1,9.1,14.1,24.7c0,7.7,1,25.3-14.5,25.3h-14.8V56.1z M118.6,144.8c0,18.1-8.6,30.7-29.8,30.7
		c-21.1,0-29.7-12.6-29.7-30.7v-13c0-11.4,3.9-19.6,13.2-23.9c-7.7-3.8-11.2-11-11.2-20.7v-4.9c0-18.6,9.5-28.6,27.7-28.6
		c18.4,0,28.1,10,28.1,28.6v4.9c0,9.8-3.7,16.8-11.6,20.7c9.3,4.2,13.3,12.5,13.3,23.9V144.8z M155.3,120.5h12l11.8,50h-9.6
		l-2.4-11.1h-12.4l-2.5,11.1h-9L155.3,120.5z M161,191.5c-5.7,0-5.7,8.8-5.7,18.5c0,15.6,1.3,18.4,6.5,18.4c1.5,0,3.1-0.4,4.5-1
		v-11.1h-4.9v-7.7h14V234c-2.5,0.6-8.7,1.7-12.3,1.7c-15.3,0-17-7.3-17-26.2c0-12.6,0.5-25.4,15.4-25.4c8.9,0,14.4,5.7,13.9,16.2h-9
		C166.5,195.6,165.8,191.5,161,191.5z M230,538.7c0,1.8-1.5,3.2-3.2,3.2h-58.7c-1.8,0-3.2-1.5-3.2-3.2v-81.1c0-4.4,1.1-6,3.2-8.1
		l56.8-54.1c3.7-3.7,5.1-0.4,5.1,1.4V538.7z M312.6,538.7c0,1.8-1.5,3.2-3.2,3.2h-58.7c-1.8,0-3.2-1.5-3.2-3.2V408.1
		c0-1.8,1-5.5,5.5-0.9l24.9,25.4c0.5,0.5,1.2,0.5,1.8,0.1l27.5-27.7c4-4,5.4-0.8,5.4,1V538.7z M393.8,538.7c0,1.8-1.4,3.2-3.2,3.2
		h-58.7c-1.8,0-3.2-1.5-3.2-3.2V387.2c0-4.4,1.1-6,3.2-8.1l56.8-54.1c3.7-3.7,5.1-0.4,5.1,1.4V538.7z M414.5,259.9l-9.6,44.4l0,0.1
		c0,0.4-0.2,0.8-0.5,1.1c-0.6,0.6-1.7,0.6-2.3,0l-10.4-10.4L279.8,407.1c-0.5,0.5-1.3,0.5-1.9,0l-12.4-12.4c-0.1,0-0.1-0.1-0.1-0.1
		l-33.1-33.1l-72.1,72.1c-0.5,0.5-1.3,0.5-1.8,0L146,421.2c-0.5-0.5-0.5-1.3,0-1.9l73-73c0,0,0,0,0,0l12.4-12.4
		c0.5-0.5,1.3-0.5,1.9,0l45.6,45.5l98.6-98.6l-9.9-9.9l-0.5-0.5c-0.6-0.6-0.6-1.7,0-2.3c0.2-0.2,0.5-0.4,0.8-0.4l0.8-0.1l43.5-9.8
		l0.8,0c0.4,0,0.8,0.2,1.1,0.5c0.4,0.3,0.5,0.8,0.5,1.2L414.5,259.9z M428.4,171.3c-15,0-15-12.7-15-25.8c0-13.2,0-25.8,15-25.8
		s15,12.6,15,25.8C443.3,158.5,443.3,171.3,428.4,171.3z M428.4,106.9c-15,0-15-12.7-15-25.8c0-13.2,0-25.8,15-25.8
		c15,0,15,12.6,15,25.8C443.3,94.2,443.3,106.9,428.4,106.9z M493.2,170.4h-8.8v-38.5h-0.1l-8.4,38.5h-8.7l-7.9-38.5h-0.1v38.5h-8.8
		v-50H465l6.8,34h0.1l7.2-34h14.1V170.4z M509.7,170.4h-9.1v-50h9.1V170.4z M513.3,106.1h-10.2l-10.4-25.6h-0.1v25.6h-9.1v-50h9.1
		v21.4h0.1l10.6-21.4h10l-12.1,22.4L513.3,106.1z M531.9,171.3c-15,0-15-12.7-15-25.8c0-13.2,0-25.8,15-25.8c9.3,0,13,5.9,12.6,16.6
		h-8.9c0-6.6-1-9.1-3.7-9.1c-5.1,0-5.8,5.5-5.8,18.3c0,12.8,0.7,18.3,5.8,18.3c4.2,0,4-6.2,4.1-10.2h9
		C545,167,540.4,171.3,531.9,171.3z"/>
</g>
<g>
	<path class="st1" d="M388.7,325l-56.8,54.1c-2.1,2.1-3.2,3.7-3.2,8.1v151.5c0,1.8,1.5,3.2,3.2,3.2h58.7c1.8,0,3.2-1.5,3.2-3.2
		V326.4C393.8,324.6,392.4,321.3,388.7,325z"/>
	<path class="st1" d="M224.9,395.5l-56.8,54.1c-2.1,2.1-3.2,3.7-3.2,8.1v81.1c0,1.8,1.5,3.2,3.2,3.2h58.7c1.8,0,3.2-1.5,3.2-3.2
		V396.8C230,395,228.6,391.7,224.9,395.5z"/>
	<path class="st1" d="M413,257.7l-0.8,0l-43.5,9.8l-0.8,0.1c-0.3,0.1-0.6,0.2-0.8,0.4c-0.6,0.7-0.6,1.7,0,2.3l0.5,0.5l9.9,9.9
		l-98.6,98.6L233.3,334c-0.5-0.5-1.3-0.5-1.9,0l-12.4,12.4c0,0,0,0,0,0l-73,73c-0.5,0.5-0.5,1.3,0,1.9l12.4,12.4
		c0.5,0.5,1.3,0.5,1.8,0l72.1-72.1l33.1,33.1c0,0,0,0.1,0.1,0.1l12.4,12.4c0.5,0.5,1.3,0.5,1.9,0l111.9-111.9l10.4,10.4
		c0.6,0.6,1.7,0.6,2.3,0c0.3-0.3,0.5-0.7,0.5-1.1l0-0.1l9.6-44.4l0-0.5c0-0.4-0.1-0.9-0.5-1.2C413.7,257.9,413.3,257.8,413,257.7z"
		/>
	<path class="st1" d="M307.1,404.9l-27.5,27.7c-0.5,0.4-1.3,0.4-1.8-0.1l-24.9-25.4c-4.6-4.5-5.5-0.9-5.5,0.9v130.6
		c0,1.8,1.4,3.2,3.2,3.2h58.7c1.8,0,3.2-1.5,3.2-3.2V406C312.6,404.2,311.1,400.9,307.1,404.9z"/>
	<path class="st1" d="M105.3,107.9c7.9-3.8,11.6-10.9,11.6-20.7v-4.9c0-18.6-9.6-28.6-28.1-28.6c-18.2,0-27.7,10-27.7,28.6v4.9
		c0,9.7,3.5,16.8,11.2,20.7c-9.3,4.2-13.2,12.5-13.2,23.9v13c0,18.1,8.6,30.7,29.7,30.7c21.2,0,29.8-12.6,29.8-30.7v-13
		C118.6,120.4,114.6,112.1,105.3,107.9z M79.9,81.1c0-7.2,2.5-11.4,9-11.4c6.7,0,9.1,4.2,9.1,11.4v8.1c0,7.2-2.5,11.4-9.1,11.4
		c-6.5,0-9-4.2-9-11.4V81.1z M98.6,146.9c0,7.2-2.6,12.3-9.8,12.3c-7,0-9.7-5.1-9.7-12.3v-19.3c0-7.2,2.6-12.3,9.7-12.3
		c7.2,0,9.8,5.1,9.8,12.3V146.9z"/>
	<path class="st1" d="M176,80.8c0-15.6-2.2-24.7-14.1-24.7h-15.2v50h14.8C177.1,106.1,176,88.5,176,80.8z M155.8,98.4V63.8h4.7
		c6.3,0,6.3,8.1,6.3,17.3c0,12.5-1.1,17.3-6.6,17.3H155.8z"/>
	<polygon class="st1" points="207.5,98.4 192.4,98.4 192.4,83.8 205.9,83.8 205.9,76.1 192.4,76.1 192.4,63.8 207,63.8 207,56.1 
		183.3,56.1 183.3,106.1 207.5,106.1 	"/>
	<path class="st1" d="M227.9,106.9c8.5,0,13.1-4.3,13.1-17.6h-9c-0.1,3.9,0.1,10.2-4.1,10.2c-5.1,0-5.8-5.5-5.8-18.3
		s0.7-18.3,5.8-18.3c2.7,0,3.7,2.5,3.7,9.1h8.9c0.4-10.7-3.4-16.6-12.6-16.6c-15,0-15,12.6-15,25.8C213,94.2,213,106.9,227.9,106.9z
		"/>
	<polygon class="st1" points="271,98.4 255.9,98.4 255.9,83.8 269.4,83.8 269.4,76.1 255.9,76.1 255.9,63.8 270.5,63.8 270.5,56.1 
		246.8,56.1 246.8,106.1 271,106.1 	"/>
	<polygon class="st1" points="285.4,69.5 285.5,69.5 297.4,106.1 309.3,106.1 309.3,56.1 300.9,56.1 300.9,90.7 300.7,90.7 
		289.2,56.1 276.9,56.1 276.9,106.1 285.4,106.1 	"/>
	<polygon class="st1" points="323.6,106.1 332.7,106.1 332.7,64.4 342.8,64.4 342.8,56.1 313.5,56.1 313.5,64.4 323.6,64.4 	"/>
	<polygon class="st1" points="376,106.1 383.5,69.5 383.6,69.5 390.4,106.1 400.5,106.1 410.1,56.1 401.2,56.1 395.8,91.2 
		395.7,91.2 389.2,56.1 378.5,56.1 371.6,91.2 371.5,91.2 365.9,56.1 356.5,56.1 366.2,106.1 	"/>
	<path class="st1" d="M428.4,55.3c-15,0-15,12.6-15,25.8c0,13.1,0,25.8,15,25.8c15,0,15-12.7,15-25.8
		C443.3,67.9,443.3,55.3,428.4,55.3z M428.4,99.4c-5.1,0-5.8-5.5-5.8-18.3s0.7-18.3,5.8-18.3c5.1,0,5.8,5.5,5.8,18.3
		S433.5,99.4,428.4,99.4z"/>
	<path class="st1" d="M459.5,85.4h2.3c7,0,6.5,5.1,6.5,11c0,3.3-0.2,6.6,1,9.7h8.9c-0.8-2.1-1-11.5-1-14.7c0-9-5.9-9.5-7.9-9.8v-0.1
		c5.9-1.1,8.1-5.9,8.1-12.2c0-8.5-4-13.1-10.2-13.1h-16.8v50h9.1V85.4z M459.5,63.8h4c2.9,0,4.6,1.8,4.6,6.6c0,3.2-1,7.3-4.6,7.3h-4
		V63.8z"/>
	<polygon class="st1" points="503.3,56.1 492.6,77.5 492.5,77.5 492.5,56.1 483.5,56.1 483.5,106.1 492.5,106.1 492.5,80.5 
		492.6,80.5 503.1,106.1 513.3,106.1 501.1,78.5 513.3,56.1 	"/>
	<path class="st1" d="M154.7,159.4h12.4l2.4,11.1h9.6l-11.8-50h-12l-12,50h9L154.7,159.4z M160.7,130.1h0.1l4.4,21.6h-8.7
		L160.7,130.1z"/>
	<polygon class="st1" points="207.3,155.1 207.2,155.1 195.6,120.5 183.4,120.5 183.4,170.4 191.9,170.4 191.9,133.9 192,133.9 
		203.8,170.4 215.8,170.4 215.8,120.5 207.3,120.5 	"/>
	<path class="st1" d="M252.9,145.2c0-15.6-2.2-24.7-14.1-24.7h-15.2v50h14.8C253.9,170.4,252.9,152.9,252.9,145.2z M237.1,162.8
		h-4.4v-34.6h4.7c6.3,0,6.3,8.1,6.3,17.3C243.7,158,242.6,162.8,237.1,162.8z"/>
	<polygon class="st1" points="297.7,162.8 282.6,162.8 282.6,148.2 296,148.2 296,140.5 282.6,140.5 282.6,128.2 297.2,128.2 
		297.2,120.5 273.5,120.5 273.5,170.4 297.7,170.4 	"/>
	<path class="st1" d="M318.1,127.1c2.7,0,3.7,2.5,3.7,9.1h8.9c0.4-10.7-3.4-16.6-12.6-16.6c-15,0-15,12.6-15,25.8
		c0,13.1,0,25.8,15,25.8c8.5,0,13.1-4.3,13.1-17.6h-9c-0.1,3.9,0.1,10.2-4.1,10.2c-5.1,0-5.8-5.5-5.8-18.3
		C312.3,132.7,313,127.1,318.1,127.1z"/>
	<path class="st1" d="M336.6,145.5c0,13.1,0,25.8,15,25.8s15-12.7,15-25.8c0-13.2,0-25.8-15-25.8S336.6,132.2,336.6,145.5z
		 M351.5,127.1c5.1,0,5.8,5.5,5.8,18.3c0,12.8-0.7,18.3-5.8,18.3c-5.1,0-5.8-5.5-5.8-18.3C345.8,132.7,346.4,127.1,351.5,127.1z"/>
	<polygon class="st1" points="397.7,155.1 397.6,155.1 386.1,120.5 373.8,120.5 373.8,170.4 382.3,170.4 382.3,133.9 382.4,133.9 
		394.2,170.4 406.2,170.4 406.2,120.5 397.7,120.5 	"/>
	<path class="st1" d="M428.4,119.7c-15,0-15,12.6-15,25.8c0,13.1,0,25.8,15,25.8s15-12.7,15-25.8
		C443.3,132.2,443.3,119.7,428.4,119.7z M428.4,163.8c-5.1,0-5.8-5.5-5.8-18.3c0-12.8,0.7-18.3,5.8-18.3c5.1,0,5.8,5.5,5.8,18.3
		C434.1,158.3,433.5,163.8,428.4,163.8z"/>
	<polygon class="st1" points="471.9,154.5 471.8,154.5 465,120.5 450.4,120.5 450.4,170.4 459.2,170.4 459.2,131.9 459.3,131.9 
		467.3,170.4 475.9,170.4 484.3,131.9 484.4,131.9 484.4,170.4 493.2,170.4 493.2,120.5 479.1,120.5 	"/>
	<rect x="500.6" y="120.5" class="st1" width="9.1" height="50"/>
	<path class="st1" d="M536.1,153.6c-0.1,3.9,0.1,10.2-4.1,10.2c-5.1,0-5.8-5.5-5.8-18.3c0-12.8,0.7-18.3,5.8-18.3
		c2.7,0,3.7,2.5,3.7,9.1h8.9c0.4-10.7-3.4-16.6-12.6-16.6c-15,0-15,12.6-15,25.8c0,13.1,0,25.8,15,25.8c8.5,0,13.1-4.3,13.1-17.6
		H536.1z"/>
	<path class="st1" d="M175.4,200.2c0.5-10.4-5-16.2-13.9-16.2c-14.8,0-15.4,12.8-15.4,25.4c0,19,1.7,26.2,17,26.2
		c3.6,0,9.8-1.1,12.3-1.7v-25.3h-14v7.7h4.9v11.1c-1.4,0.6-3,1-4.5,1c-5.2,0-6.5-2.8-6.5-18.4c0-9.7,0-18.5,5.7-18.5
		c4.8,0,5.5,4.1,5.4,8.7H175.4z"/>
	<path class="st1" d="M192.2,214.1h2.3c7,0,6.5,5.1,6.5,11c0,3.3-0.2,6.6,1,9.7h8.9c-0.8-2.1-1-11.5-1-14.7c0-9-5.9-9.5-7.9-9.8
		v-0.1c5.9-1.1,8.1-5.9,8.1-12.2c0-8.5-4-13.1-10.2-13.1h-16.8v50h9.1V214.1z M192.2,192.6h4c2.9,0,4.6,1.8,4.6,6.6
		c0,3.2-1,7.3-4.6,7.3h-4V192.6z"/>
	<path class="st1" d="M216.3,209.9c0,13.1,0,25.8,15,25.8s15-12.7,15-25.8c0-13.2,0-25.8-15-25.8S216.3,196.6,216.3,209.9z
		 M237.1,209.9c0,12.8-0.7,18.3-5.8,18.3s-5.8-5.5-5.8-18.3c0-12.8,0.7-18.3,5.8-18.3S237.1,197.1,237.1,209.9z"/>
	<polygon class="st1" points="264.6,220 259,184.9 249.6,184.9 259.3,234.8 269.1,234.8 276.6,198.3 276.8,198.3 283.5,234.8 
		293.6,234.8 303.2,184.9 294.3,184.9 288.9,220 288.8,220 282.3,184.9 271.6,184.9 264.7,220 	"/>
	<polygon class="st1" points="322.7,234.8 322.7,193.2 332.8,193.2 332.8,184.9 303.5,184.9 303.5,193.2 313.6,193.2 313.6,234.8 	
		"/>
	<polygon class="st1" points="365.9,234.8 365.9,184.9 356.8,184.9 356.8,204.9 346.4,204.9 346.4,184.9 337.3,184.9 337.3,234.8 
		346.4,234.8 346.4,212.6 356.8,212.6 356.8,234.8 	"/>
</g>
</svg>
