<?xml version="1.0" encoding="UTF-8" standalone="no"?>
<!DOCTYPE svg PUBLIC "-//W3C//DTD SVG 1.1//EN" "http://www.w3.org/Graphics/SVG/1.1/DTD/svg11.dtd">
<svg width="100%" height="100%" viewBox="0 0 290 290" version="1.1" xmlns="http://www.w3.org/2000/svg" xmlns:xlink="http://www.w3.org/1999/xlink" xml:space="preserve" xmlns:serif="http://www.serif.com/" style="fill-rule:evenodd;clip-rule:evenodd;stroke-linejoin:round;stroke-miterlimit:2;">
    <g transform="matrix(4.16667,0,0,4.16667,30.3375,72.8196)">
        <path d="M0,-6.695C0,-7.174 -0.076,-7.552 -0.229,-7.83C-0.381,-8.108 -0.615,-8.247 -0.931,-8.247C-1.247,-8.247 -1.486,-8.108 -1.649,-7.83C-1.813,-7.552 -1.894,-7.174 -1.894,-6.695C-1.894,-5.334 -1.573,-4.654 -0.931,-4.654C-0.31,-4.654 0,-5.334 0,-6.695M-0.074,0.988C0.074,0.602 0.147,0.115 0.147,-0.473C0.147,-1.126 0.074,-1.643 -0.074,-2.025C-0.22,-2.406 -0.506,-2.596 -0.931,-2.596C-1.355,-2.596 -1.641,-2.403 -1.788,-2.016C-1.935,-1.63 -2.009,-1.115 -2.009,-0.473C-2.009,0.115 -1.935,0.602 -1.788,0.988C-1.641,1.375 -1.355,1.568 -0.931,1.568C-0.506,1.568 -0.22,1.375 -0.074,0.988M-4.475,-0.571C-4.475,-1.311 -4.344,-1.954 -4.083,-2.498C-3.821,-3.042 -3.435,-3.445 -2.923,-3.707C-3.326,-4 -3.653,-4.395 -3.903,-4.89C-4.154,-5.386 -4.279,-5.987 -4.279,-6.695C-4.279,-7.784 -3.99,-8.63 -3.413,-9.234C-2.836,-9.839 -2.009,-10.141 -0.931,-10.141C0.147,-10.141 0.969,-9.841 1.535,-9.243C2.101,-8.644 2.384,-7.811 2.384,-6.744C2.384,-6.004 2.264,-5.383 2.025,-4.882C1.785,-4.382 1.464,-3.989 1.062,-3.707C1.573,-3.445 1.96,-3.031 2.221,-2.465C2.482,-1.899 2.613,-1.23 2.613,-0.457C2.613,0.774 2.33,1.732 1.764,2.417C1.197,3.103 0.299,3.446 -0.931,3.446C-3.293,3.446 -4.475,2.107 -4.475,-0.571" style="fill:white;fill-rule:nonzero;"/>
    </g>
    <g transform="matrix(4.16667,0,0,4.16667,66.9463,33.8863)">
        <path d="M0,3.771C0.204,3.771 0.352,3.736 0.443,3.665C0.535,3.594 0.593,3.495 0.618,3.368C0.643,3.241 0.656,3.053 0.656,2.803L0.656,0.867C0.656,0.643 0.641,0.472 0.612,0.355C0.583,0.239 0.521,0.153 0.428,0.096C0.334,0.04 0.187,0.012 -0.012,0.012L-0.287,0.012L-0.287,3.771L0,3.771ZM-1.205,-0.643L-0.012,-0.643C0.395,-0.643 0.716,-0.588 0.949,-0.478C1.182,-0.368 1.348,-0.199 1.445,0.028C1.543,0.255 1.592,0.555 1.592,0.93L1.592,2.772C1.592,3.155 1.543,3.465 1.445,3.702C1.348,3.94 1.184,4.117 0.955,4.236C0.726,4.355 0.416,4.414 0.025,4.414L-1.205,4.414L-1.205,-0.643Z" style="fill:white;fill-rule:nonzero;"/>
    </g>
    <g transform="matrix(4.16667,0,0,4.16667,75.74,52.28)">
        <path d="M0,-5.058L2.123,-5.058L2.123,-4.409L0.918,-4.409L0.918,-2.954L1.867,-2.954L1.867,-2.311L0.918,-2.311L0.918,-0.631L2.135,-0.631L2.135,0L0,0L0,-5.058Z" style="fill:white;fill-rule:nonzero;"/>
    </g>
    <g transform="matrix(4.16667,0,0,4.16667,87.2263,32.8054)">
        <path d="M0,4.302C-0.219,4.008 -0.328,3.593 -0.328,3.056L-0.328,1.252C-0.328,0.698 -0.22,0.278 -0.003,-0.01C0.213,-0.297 0.586,-0.44 1.115,-0.44C1.61,-0.44 1.962,-0.316 2.17,-0.066C2.378,0.184 2.482,0.544 2.482,1.014L2.482,1.439L1.595,1.439L1.595,1.002C1.595,0.823 1.587,0.683 1.57,0.581C1.554,0.479 1.511,0.395 1.442,0.331C1.374,0.266 1.266,0.234 1.121,0.234C0.971,0.234 0.858,0.268 0.784,0.337C0.709,0.406 0.66,0.497 0.637,0.612C0.614,0.726 0.602,0.875 0.602,1.058L0.602,3.25C0.602,3.537 0.64,3.744 0.715,3.871C0.79,3.998 0.925,4.062 1.121,4.062C1.262,4.062 1.367,4.028 1.436,3.962C1.505,3.895 1.548,3.807 1.567,3.696C1.586,3.586 1.595,3.439 1.595,3.256L1.595,2.8L2.482,2.8L2.482,3.206C2.482,3.693 2.38,4.071 2.176,4.339C1.972,4.608 1.618,4.742 1.115,4.742C0.59,4.742 0.218,4.595 0,4.302" style="fill:white;fill-rule:nonzero;"/>
    </g>
    <g transform="matrix(4.16667,0,0,4.16667,99.5708,52.28)">
        <path d="M0,-5.058L2.123,-5.058L2.123,-4.409L0.918,-4.409L0.918,-2.954L1.867,-2.954L1.867,-2.311L0.918,-2.311L0.918,-0.631L2.135,-0.631L2.135,0L0,0L0,-5.058Z" style="fill:white;fill-rule:nonzero;"/>
    </g>
    <g transform="matrix(4.16667,0,0,4.16667,110.029,52.28)">
        <path d="M0,-5.058L0.643,-5.058L1.873,-2.173L1.873,-5.058L2.635,-5.058L2.635,0L2.023,0L0.787,-3.023L0.787,0L0,0L0,-5.058Z" style="fill:white;fill-rule:nonzero;"/>
    </g>
    <g transform="matrix(4.16667,0,0,4.16667,125.588,49.4408)">
        <path d="M0,-3.696L-0.843,-3.696L-0.843,-4.377L1.748,-4.377L1.748,-3.696L0.918,-3.696L0.918,0.681L0,0.681L0,-3.696Z" style="fill:white;fill-rule:nonzero;"/>
    </g>
    <g transform="matrix(4.16667,0,0,4.16667,138.778,52.28)">
        <path d="M0,-5.058L0.768,-5.058L1.186,-1.78L1.711,-5.046L2.335,-5.046L2.878,-1.78L3.291,-5.058L4.052,-5.058L3.347,0L2.598,0L2.036,-3.391L1.48,0L0.712,0L0,-5.058Z" style="fill:white;fill-rule:nonzero;"/>
    </g>
    <g transform="matrix(4.16667,0,0,4.16667,164.743,34.6142)">
        <path d="M0,3.434C0.071,3.305 0.106,3.118 0.106,2.872L0.106,0.543C0.106,0.297 0.072,0.112 0.003,-0.013C-0.065,-0.138 -0.204,-0.2 -0.412,-0.2C-0.62,-0.2 -0.76,-0.137 -0.83,-0.01C-0.901,0.117 -0.937,0.302 -0.937,0.543L-0.937,2.872C-0.937,3.118 -0.901,3.305 -0.83,3.434C-0.76,3.563 -0.62,3.627 -0.412,3.627C-0.208,3.627 -0.071,3.563 0,3.434M-1.536,3.887C-1.761,3.606 -1.873,3.195 -1.873,2.653L-1.873,0.755C-1.873,0.218 -1.761,-0.188 -1.536,-0.462C-1.311,-0.737 -0.937,-0.874 -0.412,-0.874C0.108,-0.874 0.481,-0.737 0.706,-0.462C0.93,-0.188 1.043,0.218 1.043,0.755L1.043,2.653C1.043,3.19 0.929,3.601 0.702,3.883C0.476,4.167 0.104,4.308 -0.412,4.308C-0.937,4.308 -1.311,4.168 -1.536,3.887" style="fill:white;fill-rule:nonzero;"/>
    </g>
    <g transform="matrix(4.16667,0,0,4.16667,176.294,43.2492)">
        <path d="M0,-0.724C0.262,-0.724 0.449,-0.784 0.559,-0.905C0.669,-1.026 0.724,-1.224 0.724,-1.498C0.724,-1.765 0.675,-1.958 0.578,-2.079C0.48,-2.2 0.304,-2.26 0.05,-2.26L-0.293,-2.26L-0.293,-0.724L0,-0.724ZM-1.211,-2.891L0.006,-2.891C0.539,-2.891 0.937,-2.79 1.199,-2.588C1.461,-2.386 1.592,-2.039 1.592,-1.548C1.592,-1.228 1.545,-0.966 1.452,-0.765C1.358,-0.563 1.197,-0.416 0.968,-0.324L1.673,2.167L0.749,2.167L0.144,-0.149L-0.293,-0.149L-0.293,2.167L-1.211,2.167L-1.211,-2.891Z" style="fill:white;fill-rule:nonzero;"/>
    </g>
    <g transform="matrix(4.16667,0,0,4.16667,185.165,52.28)">
        <path d="M0,-5.058L0.918,-5.058L0.918,-2.835L1.923,-5.058L2.804,-5.058L1.836,-2.804L2.904,0L1.986,0L1.143,-2.298L0.918,-1.917L0.918,0L0,0L0,-5.058Z" style="fill:white;fill-rule:nonzero;"/>
    </g>
    <g transform="matrix(4.16667,0,0,4.16667,210.635,38.5175)">
        <path d="M0,1.548L-0.343,-0.575L-0.687,1.548L0,1.548ZM-0.843,-1.755L0.144,-1.755L1.155,3.303L0.3,3.303L0.1,2.135L-0.781,2.135L-0.986,3.303L-1.854,3.303L-0.843,-1.755Z" style="fill:white;fill-rule:nonzero;"/>
    </g>
    <g transform="matrix(4.16667,0,0,4.16667,216.879,52.28)">
        <path d="M0,-5.058L0.643,-5.058L1.873,-2.173L1.873,-5.058L2.635,-5.058L2.635,0L2.023,0L0.787,-3.023L0.787,0L0,0L0,-5.058Z" style="fill:white;fill-rule:nonzero;"/>
    </g>
    <g transform="matrix(4.16667,0,0,4.16667,235.403,33.8863)">
        <path d="M0,3.771C0.204,3.771 0.352,3.736 0.443,3.665C0.535,3.594 0.593,3.495 0.618,3.368C0.643,3.241 0.656,3.053 0.656,2.803L0.656,0.867C0.656,0.643 0.641,0.472 0.612,0.355C0.583,0.239 0.521,0.153 0.428,0.096C0.334,0.04 0.187,0.012 -0.012,0.012L-0.287,0.012L-0.287,3.771L0,3.771ZM-1.205,-0.643L-0.012,-0.643C0.395,-0.643 0.716,-0.588 0.949,-0.478C1.182,-0.368 1.348,-0.199 1.445,0.028C1.543,0.255 1.592,0.555 1.592,0.93L1.592,2.772C1.592,3.155 1.543,3.465 1.445,3.702C1.348,3.94 1.184,4.117 0.955,4.236C0.726,4.355 0.416,4.414 0.025,4.414L-1.205,4.414L-1.205,-0.643Z" style="fill:white;fill-rule:nonzero;"/>
    </g>
    <g transform="matrix(4.16667,0,0,4.16667,61.925,86.7021)">
        <path d="M0,-5.058L2.123,-5.058L2.123,-4.409L0.918,-4.409L0.918,-2.954L1.867,-2.954L1.867,-2.311L0.918,-2.311L0.918,-0.631L2.135,-0.631L2.135,0L0,0L0,-5.058Z" style="fill:white;fill-rule:nonzero;"/>
    </g>
    <g transform="matrix(4.16667,0,0,4.16667,73.5675,67.2275)">
        <path d="M0,4.302C-0.219,4.009 -0.328,3.593 -0.328,3.056L-0.328,1.252C-0.328,0.698 -0.22,0.278 -0.003,-0.01C0.213,-0.297 0.586,-0.44 1.115,-0.44C1.61,-0.44 1.962,-0.315 2.17,-0.066C2.378,0.184 2.482,0.544 2.482,1.014L2.482,1.439L1.595,1.439L1.595,1.002C1.595,0.823 1.587,0.683 1.57,0.581C1.554,0.479 1.511,0.395 1.442,0.331C1.374,0.266 1.267,0.234 1.121,0.234C0.971,0.234 0.859,0.268 0.784,0.337C0.709,0.406 0.66,0.497 0.637,0.612C0.614,0.726 0.603,0.875 0.603,1.058L0.603,3.25C0.603,3.537 0.64,3.744 0.715,3.871C0.79,3.998 0.925,4.062 1.121,4.062C1.262,4.062 1.367,4.028 1.436,3.962C1.505,3.895 1.549,3.807 1.567,3.696C1.586,3.586 1.595,3.439 1.595,3.256L1.595,2.8L2.482,2.8L2.482,3.206C2.482,3.693 2.38,4.071 2.176,4.339C1.972,4.608 1.618,4.742 1.115,4.742C0.59,4.742 0.219,4.595 0,4.302" style="fill:white;fill-rule:nonzero;"/>
    </g>
    <g transform="matrix(4.16667,0,0,4.16667,93.5354,69.0363)">
        <path d="M0,3.434C0.071,3.305 0.106,3.118 0.106,2.872L0.106,0.543C0.106,0.297 0.072,0.112 0.003,-0.013C-0.066,-0.138 -0.204,-0.2 -0.412,-0.2C-0.62,-0.2 -0.76,-0.136 -0.83,-0.01C-0.901,0.117 -0.937,0.302 -0.937,0.543L-0.937,2.872C-0.937,3.118 -0.901,3.305 -0.83,3.434C-0.76,3.563 -0.62,3.627 -0.412,3.627C-0.208,3.627 -0.071,3.563 0,3.434M-1.536,3.887C-1.761,3.606 -1.873,3.195 -1.873,2.653L-1.873,0.755C-1.873,0.218 -1.761,-0.188 -1.536,-0.462C-1.311,-0.737 -0.937,-0.874 -0.412,-0.874C0.108,-0.874 0.481,-0.737 0.706,-0.462C0.93,-0.188 1.043,0.218 1.043,0.755L1.043,2.653C1.043,3.19 0.929,3.601 0.702,3.883C0.476,4.167 0.104,4.308 -0.412,4.308C-0.937,4.308 -1.311,4.168 -1.536,3.887" style="fill:white;fill-rule:nonzero;"/>
    </g>
    <g transform="matrix(4.16667,0,0,4.16667,100.195,86.7021)">
        <path d="M0,-5.058L0.643,-5.058L1.873,-2.173L1.873,-5.058L2.635,-5.058L2.635,0L2.023,0L0.787,-3.023L0.787,0L0,0L0,-5.058Z" style="fill:white;fill-rule:nonzero;"/>
    </g>
    <g transform="matrix(4.16667,0,0,4.16667,121.321,69.0363)">
        <path d="M0,3.434C0.071,3.305 0.106,3.118 0.106,2.872L0.106,0.543C0.106,0.297 0.072,0.112 0.003,-0.013C-0.066,-0.138 -0.204,-0.2 -0.412,-0.2C-0.62,-0.2 -0.76,-0.136 -0.83,-0.01C-0.901,0.117 -0.937,0.302 -0.937,0.543L-0.937,2.872C-0.937,3.118 -0.901,3.305 -0.83,3.434C-0.76,3.563 -0.62,3.627 -0.412,3.627C-0.208,3.627 -0.071,3.563 0,3.434M-1.536,3.887C-1.761,3.606 -1.873,3.195 -1.873,2.653L-1.873,0.755C-1.873,0.218 -1.761,-0.188 -1.536,-0.462C-1.311,-0.737 -0.937,-0.874 -0.412,-0.874C0.108,-0.874 0.481,-0.737 0.706,-0.462C0.93,-0.188 1.043,0.218 1.043,0.755L1.043,2.653C1.043,3.19 0.929,3.601 0.702,3.883C0.476,4.167 0.104,4.308 -0.412,4.308C-0.937,4.308 -1.311,4.168 -1.536,3.887" style="fill:white;fill-rule:nonzero;"/>
    </g>
    <g transform="matrix(4.16667,0,0,4.16667,128.293,86.7021)">
        <path d="M0,-5.058L0.955,-5.058L1.673,-1.555L2.416,-5.058L3.347,-5.058L3.44,0L2.754,0L2.679,-3.516L1.961,0L1.405,0L0.674,-3.528L0.606,0L-0.087,0L0,-5.058Z" style="fill:white;fill-rule:nonzero;"/>
    </g>
    <g transform="matrix(4.16667,0,0,4.16667,-160.942,-3171.52)">
        <rect x="73.506" y="776.916" width="0.912" height="5.058" style="fill:white;"/>
    </g>
    <g transform="matrix(4.16667,0,0,4.16667,152.892,67.2275)">
        <path d="M0,4.302C-0.219,4.009 -0.328,3.593 -0.328,3.056L-0.328,1.252C-0.328,0.698 -0.22,0.278 -0.003,-0.01C0.213,-0.297 0.586,-0.44 1.115,-0.44C1.61,-0.44 1.962,-0.315 2.17,-0.066C2.378,0.184 2.482,0.544 2.482,1.014L2.482,1.439L1.595,1.439L1.595,1.002C1.595,0.823 1.587,0.683 1.57,0.581C1.554,0.479 1.511,0.395 1.442,0.331C1.374,0.266 1.266,0.234 1.121,0.234C0.971,0.234 0.859,0.268 0.784,0.337C0.709,0.406 0.66,0.497 0.637,0.612C0.614,0.726 0.603,0.875 0.603,1.058L0.603,3.25C0.603,3.537 0.64,3.744 0.715,3.871C0.79,3.998 0.925,4.062 1.121,4.062C1.262,4.062 1.367,4.028 1.436,3.962C1.505,3.895 1.549,3.807 1.567,3.696C1.586,3.586 1.595,3.439 1.595,3.256L1.595,2.8L2.482,2.8L2.482,3.206C2.482,3.693 2.38,4.071 2.176,4.339C1.972,4.608 1.618,4.742 1.115,4.742C0.59,4.742 0.219,4.595 0,4.302" style="fill:white;fill-rule:nonzero;"/>
    </g>
    <g transform="matrix(4.16667,0,0,4.16667,172.17,67.2517)">
        <path d="M0,4.29C-0.21,3.992 -0.315,3.563 -0.315,3.001L-0.315,1.302C-0.315,0.724 -0.207,0.287 0.009,-0.006C0.226,-0.299 0.598,-0.446 1.127,-0.446C1.627,-0.446 1.985,-0.322 2.201,-0.075C2.417,0.173 2.526,0.54 2.526,1.027L2.526,1.29L1.645,1.29L1.645,1.003C1.645,0.819 1.634,0.674 1.611,0.565C1.588,0.457 1.54,0.374 1.467,0.316C1.395,0.257 1.285,0.228 1.14,0.228C0.986,0.228 0.871,0.266 0.796,0.341C0.721,0.415 0.672,0.511 0.649,0.628C0.626,0.744 0.615,0.896 0.615,1.084L0.615,3.2C0.615,3.488 0.654,3.702 0.731,3.844C0.807,3.985 0.952,4.056 1.165,4.056C1.373,4.056 1.517,3.981 1.598,3.831C1.68,3.681 1.72,3.456 1.72,3.157L1.72,2.682L1.177,2.682L1.177,2.101L2.551,2.101L2.551,4.668L1.951,4.668L1.889,4.175C1.731,4.549 1.445,4.736 1.033,4.736C0.555,4.736 0.21,4.588 0,4.29" style="fill:white;fill-rule:nonzero;"/>
    </g>
    <g transform="matrix(4.16667,0,0,4.16667,190.264,77.6713)">
        <path d="M0,-0.724C0.262,-0.724 0.449,-0.784 0.559,-0.905C0.669,-1.026 0.724,-1.224 0.724,-1.498C0.724,-1.765 0.675,-1.958 0.577,-2.079C0.48,-2.2 0.304,-2.26 0.05,-2.26L-0.294,-2.26L-0.294,-0.724L0,-0.724ZM-1.211,-2.891L0.006,-2.891C0.539,-2.891 0.937,-2.79 1.199,-2.588C1.461,-2.386 1.592,-2.039 1.592,-1.548C1.592,-1.228 1.545,-0.966 1.452,-0.764C1.358,-0.563 1.197,-0.416 0.968,-0.324L1.673,2.167L0.749,2.167L0.144,-0.149L-0.294,-0.149L-0.294,2.167L-1.211,2.167L-1.211,-2.891Z" style="fill:white;fill-rule:nonzero;"/>
    </g>
    <g transform="matrix(4.16667,0,0,4.16667,206.759,69.0363)">
        <path d="M0,3.434C0.071,3.305 0.106,3.118 0.106,2.872L0.106,0.543C0.106,0.297 0.072,0.112 0.003,-0.013C-0.066,-0.138 -0.204,-0.2 -0.412,-0.2C-0.62,-0.2 -0.76,-0.136 -0.83,-0.01C-0.901,0.117 -0.937,0.302 -0.937,0.543L-0.937,2.872C-0.937,3.118 -0.901,3.305 -0.83,3.434C-0.76,3.563 -0.62,3.627 -0.412,3.627C-0.208,3.627 -0.071,3.563 0,3.434M-1.536,3.887C-1.761,3.606 -1.873,3.195 -1.873,2.653L-1.873,0.755C-1.873,0.218 -1.761,-0.188 -1.536,-0.462C-1.311,-0.737 -0.937,-0.874 -0.412,-0.874C0.108,-0.874 0.481,-0.737 0.706,-0.462C0.93,-0.188 1.043,0.218 1.043,0.755L1.043,2.653C1.043,3.19 0.929,3.601 0.702,3.883C0.476,4.167 0.104,4.308 -0.412,4.308C-0.937,4.308 -1.311,4.168 -1.536,3.887" style="fill:white;fill-rule:nonzero;"/>
    </g>
    <g transform="matrix(4.16667,0,0,4.16667,212.664,86.7021)">
        <path d="M0,-5.058L0.768,-5.058L1.186,-1.78L1.711,-5.046L2.335,-5.046L2.878,-1.78L3.291,-5.058L4.052,-5.058L3.347,0L2.598,0L2.036,-3.391L1.48,0L0.712,0L0,-5.058Z" style="fill:white;fill-rule:nonzero;"/>
    </g>
    <g transform="matrix(4.16667,0,0,4.16667,233.503,83.8629)">
        <path d="M0,-3.696L-0.843,-3.696L-0.843,-4.377L1.748,-4.377L1.748,-3.696L0.918,-3.696L0.918,0.681L0,0.681L0,-3.696Z" style="fill:white;fill-rule:nonzero;"/>
    </g>
    <g transform="matrix(4.16667,0,0,4.16667,242.011,86.7021)">
        <path d="M0,-5.058L0.918,-5.058L0.918,-2.948L1.948,-2.948L1.948,-5.058L2.872,-5.058L2.872,0L1.948,0L1.948,-2.286L0.918,-2.286L0.918,0L0,0L0,-5.058Z" style="fill:white;fill-rule:nonzero;"/>
    </g>
    <g transform="matrix(4.16667,0,0,4.16667,188.685,259.047)">
        <path d="M0,-26.579L-7.083,-19.841C-7.351,-19.575 -7.488,-19.379 -7.488,-18.829L-7.488,0.057C-7.488,0.278 -7.307,0.46 -7.083,0.46L0.233,0.46C0.456,0.46 0.637,0.278 0.637,0.057L0.637,-26.409C0.637,-26.632 0.462,-27.039 0,-26.579" style="fill:white;fill-rule:nonzero;"/>
    </g>
    <g transform="matrix(4.16667,0,0,4.16667,103.658,259.034)">
        <path d="M0,-17.797L-7.084,-11.06C-7.351,-10.793 -7.488,-10.598 -7.488,-10.048L-7.488,0.06C-7.488,0.281 -7.307,0.462 -7.084,0.462L0.233,0.462C0.456,0.462 0.637,0.281 0.637,0.06L0.637,-17.628C0.637,-17.851 0.46,-18.259 0,-17.797" style="fill:white;fill-rule:nonzero;"/>
    </g>
    <g transform="matrix(4.16667,0,0,4.16667,202.101,204.065)">
        <path d="M0,-21.555C0.003,-21.609 -0.016,-21.666 -0.06,-21.709C-0.097,-21.745 -0.145,-21.762 -0.191,-21.766L-0.23,-21.763L-0.288,-21.76L-5.712,-20.537L-5.811,-20.526C-5.849,-20.519 -5.886,-20.499 -5.916,-20.471C-5.996,-20.39 -5.996,-20.26 -5.916,-20.179L-5.855,-20.118L-4.616,-18.88L-16.907,-6.589L-22.583,-12.266C-22.647,-12.331 -22.749,-12.331 -22.814,-12.266L-24.354,-10.725C-24.355,-10.725 -24.355,-10.724 -24.355,-10.724L-33.455,-1.626C-33.518,-1.561 -33.518,-1.457 -33.455,-1.394L-31.913,0.147C-31.85,0.211 -31.747,0.211 -31.683,0.147L-22.697,-8.837L-18.578,-4.717C-18.574,-4.711 -18.572,-4.704 -18.565,-4.698L-17.024,-3.159C-16.96,-3.094 -16.858,-3.094 -16.793,-3.159L-2.844,-17.107L-1.544,-15.807C-1.464,-15.727 -1.333,-15.727 -1.254,-15.807C-1.216,-15.846 -1.198,-15.892 -1.195,-15.941L-1.194,-15.958L-0.003,-21.495L0,-21.555Z" style="fill:white;fill-rule:nonzero;"/>
    </g>
    <g transform="matrix(4.16667,0,0,4.16667,146.339,258.865)">
        <path d="M0,-16.574L-3.427,-13.118C-3.493,-13.065 -3.588,-13.066 -3.648,-13.127L-6.753,-16.292C-7.322,-16.858 -7.444,-16.399 -7.444,-16.176L-7.444,0.1C-7.444,0.321 -7.266,0.503 -7.043,0.503L0.276,0.503C0.497,0.503 0.678,0.321 0.678,0.1L0.678,-16.446C0.678,-16.669 0.503,-17.077 0,-16.574" style="fill:white;fill-rule:nonzero;"/>
    </g>
    <g transform="matrix(-4.16667,0,0,4.16667,450.304,-3034.48)">
        <rect x="38.626" y="728.275" width="69.447" height="69.45" style="fill:rgb(143,23,55);"/>
    </g>
    <g transform="matrix(4.16667,0,0,4.16667,48.0492,39.4671)">
        <path d="M0,7.548C0,8.389 -0.307,8.984 -1.148,8.984C-1.969,8.984 -2.277,8.389 -2.277,7.548L-2.277,5.291C-2.277,4.451 -1.969,3.856 -1.148,3.856C-0.307,3.856 0,4.451 0,5.291L0,7.548ZM-2.195,-0.143C-2.195,-0.986 -1.907,-1.478 -1.148,-1.478C-0.369,-1.478 -0.081,-0.986 -0.081,-0.143L-0.081,0.799C-0.081,1.64 -0.369,2.134 -1.148,2.134C-1.907,2.134 -2.195,1.64 -2.195,0.799L-2.195,-0.143ZM2.339,7.302L2.339,5.784C2.339,4.451 1.868,3.487 0.78,2.994C1.702,2.544 2.134,1.723 2.134,0.574L2.134,-0.001C2.134,-2.175 1.006,-3.344 -1.148,-3.344C-3.281,-3.344 -4.39,-2.175 -4.39,-0.001L-4.39,0.574C-4.39,1.703 -3.979,2.544 -3.077,2.994C-4.164,3.487 -4.616,4.451 -4.616,5.784L-4.616,7.302C-4.616,9.415 -3.61,10.892 -1.148,10.892C1.333,10.892 2.339,9.415 2.339,7.302" style="fill:white;fill-rule:nonzero;"/>
    </g>
    <g transform="matrix(4.16667,0,0,4.16667,184.058,253.289)">
        <path d="M0,-22.908L-6.106,-17.1C-6.336,-16.871 -6.454,-16.702 -6.454,-16.228L-6.454,0.049C-6.454,0.24 -6.298,0.396 -6.106,0.396L0.201,0.396C0.393,0.396 0.548,0.24 0.548,0.049L0.548,-22.761C0.548,-22.953 0.398,-23.304 0,-22.908" style="fill:white;fill-rule:nonzero;"/>
    </g>
    <g transform="matrix(4.16667,0,0,4.16667,110.769,253.278)">
        <path d="M0,-15.339L-6.106,-9.532C-6.336,-9.303 -6.454,-9.134 -6.454,-8.661L-6.454,0.051C-6.454,0.241 -6.298,0.398 -6.106,0.398L0.201,0.398C0.393,0.398 0.549,0.241 0.549,0.051L0.549,-15.193C0.549,-15.386 0.397,-15.737 0,-15.339" style="fill:white;fill-rule:nonzero;"/>
    </g>
    <g transform="matrix(4.16667,0,0,4.16667,195.621,205.898)">
        <path d="M0,-18.577C0.002,-18.623 -0.014,-18.673 -0.052,-18.709C-0.084,-18.741 -0.125,-18.755 -0.165,-18.759L-0.248,-18.754L-4.923,-17.699L-5.008,-17.691C-5.042,-17.684 -5.074,-17.667 -5.099,-17.643C-5.168,-17.573 -5.168,-17.461 -5.099,-17.392L-5.046,-17.338L-3.979,-16.271L-14.572,-5.679L-19.465,-10.571C-19.52,-10.627 -19.608,-10.627 -19.664,-10.571L-20.991,-9.243C-20.993,-9.243 -20.993,-9.242 -20.993,-9.242L-28.836,-1.401C-28.89,-1.345 -28.89,-1.256 -28.836,-1.201L-27.507,0.127C-27.452,0.182 -27.363,0.182 -27.309,0.127L-19.564,-7.616L-16.013,-4.065C-16.009,-4.06 -16.008,-4.054 -16.002,-4.049L-14.673,-2.722C-14.618,-2.666 -14.53,-2.666 -14.474,-2.722L-2.452,-14.744L-1.33,-13.623C-1.262,-13.554 -1.15,-13.554 -1.081,-13.623C-1.049,-13.656 -1.032,-13.696 -1.03,-13.739L-1.029,-13.754L-0.002,-18.526L0,-18.577Z" style="fill:white;fill-rule:nonzero;"/>
    </g>
    <g transform="matrix(4.16667,0,0,4.16667,147.558,253.129)">
        <path d="M0,-14.284L-2.954,-11.306C-3.01,-11.26 -3.092,-11.261 -3.144,-11.313L-5.821,-14.041C-6.31,-14.529 -6.416,-14.133 -6.416,-13.942L-6.416,0.086C-6.416,0.277 -6.262,0.434 -6.071,0.434L0.238,0.434C0.429,0.434 0.585,0.277 0.585,0.086L0.585,-14.174C0.585,-14.366 0.433,-14.718 0,-14.284" style="fill:white;fill-rule:nonzero;"/>
    </g>
    <g transform="matrix(4.16667,0,0,4.16667,72.845,50.4013)">
        <path d="M0,-5.813L2.598,-5.813L2.598,-5.016L1.792,-5.016L1.792,0L0.806,0L0.806,-5.016L0,-5.016L0,-5.813Z" style="fill:white;fill-rule:nonzero;"/>
    </g>
    <g transform="matrix(4.16667,0,0,4.16667,89.6325,47.0821)">
        <path d="M0,-4.219L0,-2.41L0.326,-2.41C0.661,-2.41 0.806,-2.581 0.806,-2.89L0.806,-3.747C0.806,-4.065 0.661,-4.219 0.326,-4.219L0,-4.219ZM0,-1.87L0,0.797L-0.977,0.797L-0.977,-5.016L0.446,-5.016C1.432,-5.016 1.793,-4.528 1.793,-3.713L1.793,-2.967C1.793,-2.341 1.569,-1.973 1.012,-1.844L1.947,0.797L0.918,0.797L0,-1.87Z" style="fill:white;fill-rule:nonzero;"/>
    </g>
    <g transform="matrix(4.16667,0,0,4.16667,103.778,33.8592)">
        <path d="M0,2.127L0.78,2.127L0.394,-0.205L0.386,-0.205L0,2.127ZM-1.226,3.97L-0.129,-1.843L0.986,-1.843L2.092,3.97L1.089,3.97L0.909,2.907L-0.129,2.907L-0.3,3.97L-1.226,3.97Z" style="fill:white;fill-rule:nonzero;"/>
    </g>
    <g transform="matrix(4.16667,0,0,4.16667,118.245,37.0775)">
        <path d="M0,0.583L0,2.401L0.429,2.401C0.755,2.401 0.909,2.238 0.909,1.929L0.909,1.055C0.909,0.746 0.763,0.583 0.42,0.583L0,0.583ZM0,-0.163L0.343,-0.163C0.661,-0.163 0.806,-0.326 0.806,-0.635L0.806,-1.346C0.806,-1.664 0.661,-1.818 0.334,-1.818L0,-1.818L0,-0.163ZM-0.978,-2.615L0.437,-2.615C1.415,-2.615 1.741,-2.161 1.741,-1.338L1.741,-0.746C1.741,-0.257 1.56,0.051 1.158,0.18C1.646,0.292 1.887,0.617 1.887,1.149L1.887,1.921C1.887,2.744 1.518,3.198 0.54,3.198L-0.978,3.198L-0.978,-2.615Z" style="fill:white;fill-rule:nonzero;"/>
    </g>
    <g transform="matrix(4.16667,0,0,4.16667,132.427,33.8592)">
        <path d="M0,2.127L0.78,2.127L0.394,-0.205L0.386,-0.205L0,2.127ZM-1.227,3.97L-0.129,-1.843L0.986,-1.843L2.092,3.97L1.089,3.97L0.909,2.907L-0.129,2.907L-0.3,3.97L-1.227,3.97Z" style="fill:white;fill-rule:nonzero;"/>
    </g>
    <g transform="matrix(4.16667,0,0,4.16667,153.288,50.6888)">
        <path d="M0,-5.882L0,-1.389C0,-0.549 -0.369,0 -1.346,0C-2.358,0 -2.633,-0.557 -2.633,-1.295L-2.633,-2.452L-1.707,-2.452L-1.707,-1.278C-1.707,-0.986 -1.604,-0.814 -1.346,-0.814C-1.081,-0.814 -0.978,-0.986 -0.978,-1.286L-0.978,-5.882L0,-5.882Z" style="fill:white;fill-rule:nonzero;"/>
    </g>
    <g transform="matrix(4.16667,0,0,4.16667,163.824,31.79)">
        <path d="M0,3.121L0,0C0,-0.351 -0.154,-0.6 -0.506,-0.6C-0.849,-0.6 -1.003,-0.351 -1.003,0L-1.003,3.121C-1.003,3.473 -0.849,3.721 -0.506,3.721C-0.154,3.721 0,3.473 0,3.121M-1.981,2.966L-1.981,0.154C-1.981,-0.755 -1.535,-1.415 -0.506,-1.415C0.532,-1.415 0.978,-0.755 0.978,0.154L0.978,2.966C0.978,3.867 0.532,4.536 -0.506,4.536C-1.535,4.536 -1.981,3.867 -1.981,2.966" style="fill:white;fill-rule:nonzero;"/>
    </g>
    <g transform="matrix(4.16667,0,0,4.16667,179.755,29.5008)">
        <path d="M0,4.219C0.403,4.219 0.557,3.979 0.557,3.627L0.557,0.584C0.557,0.241 0.403,-0 0,-0L-0.412,-0L-0.412,4.219L0,4.219ZM1.535,0.764L1.535,3.456C1.535,4.348 1.166,5.016 0.12,5.016L-1.389,5.016L-1.389,-0.797L0.12,-0.797C1.166,-0.797 1.535,-0.137 1.535,0.764" style="fill:white;fill-rule:nonzero;"/>
    </g>
    <g transform="matrix(4.16667,0,0,4.16667,188.468,50.4013)">
        <path d="M0,-5.813L2.332,-5.813L2.332,-5.016L0.977,-5.016L0.977,-3.352L1.946,-3.352L1.946,-2.563L0.977,-2.563L0.977,-0.797L2.332,-0.797L2.332,0L0,0L0,-5.813Z" style="fill:white;fill-rule:nonzero;"/>
    </g>
    <g transform="matrix(4.16667,0,0,4.16667,200.004,32.4333)">
        <path d="M0,2.812L0,0C0,-0.909 0.429,-1.569 1.457,-1.569C2.538,-1.569 2.838,-0.969 2.838,-0.112L2.838,0.574L1.946,0.574L1.946,-0.189C1.946,-0.549 1.826,-0.755 1.475,-0.755C1.123,-0.755 0.977,-0.506 0.977,-0.155L0.977,2.967C0.977,3.318 1.123,3.567 1.475,3.567C1.826,3.567 1.946,3.344 1.946,3.001L1.946,1.929L2.838,1.929L2.838,2.932C2.838,3.764 2.495,4.381 1.457,4.381C0.429,4.381 0,3.712 0,2.812" style="fill:white;fill-rule:nonzero;"/>
    </g>
    <g transform="matrix(4.16667,0,0,4.16667,214.042,50.4013)">
        <path d="M0,-5.813L2.332,-5.813L2.332,-5.016L0.977,-5.016L0.977,-3.352L1.947,-3.352L1.947,-2.563L0.977,-2.563L0.977,-0.797L2.332,-0.797L2.332,0L0,0L0,-5.813Z" style="fill:white;fill-rule:nonzero;"/>
    </g>
    <g transform="matrix(4.16667,0,0,4.16667,229.368,41.3996)">
        <path d="M0,-1.492L0,2.161L-0.823,2.161L-0.823,-3.653L0.137,-3.653L1.192,-0.317L1.192,-3.653L2.006,-3.653L2.006,2.161L1.149,2.161L0,-1.492Z" style="fill:white;fill-rule:nonzero;"/>
    </g>
    <g transform="matrix(4.16667,0,0,4.16667,239.583,50.4013)">
        <path d="M0,-5.813L2.598,-5.813L2.598,-5.016L1.792,-5.016L1.792,0L0.806,0L0.806,-5.016L0,-5.016L0,-5.813Z" style="fill:white;fill-rule:nonzero;"/>
    </g>
    <g transform="matrix(4.16667,0,0,4.16667,252.298,50.4013)">
        <path d="M0,-5.813L2.332,-5.813L2.332,-5.016L0.978,-5.016L0.978,-3.352L1.947,-3.352L1.947,-2.563L0.978,-2.563L0.978,-0.797L2.332,-0.797L2.332,0L0,0L0,-5.813Z" style="fill:white;fill-rule:nonzero;"/>
    </g>
    <g transform="matrix(4.16667,0,0,4.16667,81.2417,67.5446)">
        <path d="M0,1.389L0,3.601L-0.978,3.601L-0.978,1.389L-2.067,-2.212L-1.046,-2.212L-0.455,-0.009L-0.446,-0.009L0.146,-2.212L1.08,-2.212L0,1.389Z" style="fill:white;fill-rule:nonzero;"/>
    </g>
    <g transform="matrix(4.16667,0,0,4.16667,91.1329,64.58)">
        <path d="M0,2.812L0,0C0,-0.909 0.429,-1.569 1.457,-1.569C2.538,-1.569 2.838,-0.969 2.838,-0.112L2.838,0.574L1.947,0.574L1.947,-0.189C1.947,-0.549 1.826,-0.755 1.475,-0.755C1.124,-0.755 0.978,-0.506 0.978,-0.155L0.978,2.967C0.978,3.318 1.124,3.567 1.475,3.567C1.826,3.567 1.947,3.344 1.947,3.001L1.947,1.929L2.838,1.929L2.838,2.932C2.838,3.764 2.495,4.381 1.457,4.381C0.429,4.381 0,3.712 0,2.812" style="fill:white;fill-rule:nonzero;"/>
    </g>
    <g transform="matrix(4.16667,0,0,4.16667,109.245,79.2288)">
        <path d="M0,-4.219L0,-2.41L0.326,-2.41C0.661,-2.41 0.806,-2.581 0.806,-2.89L0.806,-3.747C0.806,-4.065 0.661,-4.219 0.326,-4.219L0,-4.219ZM0,-1.869L0,0.797L-0.978,0.797L-0.978,-5.016L0.446,-5.016C1.432,-5.016 1.792,-4.528 1.792,-3.713L1.792,-2.967C1.792,-2.341 1.569,-1.972 1.012,-1.844L1.947,0.797L0.917,0.797L0,-1.869Z" style="fill:white;fill-rule:nonzero;"/>
    </g>
    <g transform="matrix(4.16667,0,0,4.16667,118.925,82.5517)">
        <path d="M0,-5.814L2.332,-5.814L2.332,-5.017L0.977,-5.017L0.977,-3.353L1.946,-3.353L1.946,-2.564L0.977,-2.564L0.977,-0.798L2.332,-0.798L2.332,0L0,0L0,-5.814Z" style="fill:white;fill-rule:nonzero;"/>
    </g>
    <g transform="matrix(4.16667,0,0,4.16667,130.461,64.58)">
        <path d="M0,2.812L0,0C0,-0.909 0.429,-1.569 1.458,-1.569C2.538,-1.569 2.838,-0.969 2.838,-0.112L2.838,0.574L1.947,0.574L1.947,-0.189C1.947,-0.549 1.826,-0.755 1.475,-0.755C1.124,-0.755 0.978,-0.506 0.978,-0.155L0.978,2.967C0.978,3.318 1.124,3.567 1.475,3.567C1.826,3.567 1.947,3.344 1.947,3.001L1.947,1.929L2.838,1.929L2.838,2.932C2.838,3.764 2.495,4.381 1.458,4.381C0.429,4.381 0,3.712 0,2.812" style="fill:white;fill-rule:nonzero;"/>
    </g>
    <g transform="matrix(4.16667,0,0,4.16667,-160.942,-3182.98)">
        <rect x="73.306" y="777.913" width="0.978" height="5.814" style="fill:white;"/>
    </g>
    <g transform="matrix(4.16667,0,0,4.16667,162.146,74.0471)">
        <path d="M0,-1.732L-0.026,-1.732L-0.686,2.041L-1.14,2.041L-1.869,-1.732L-1.886,-1.732L-1.886,2.041L-2.693,2.041L-2.693,-3.773L-1.552,-3.773L-0.918,-0.498L-0.909,-0.498L-0.343,-3.773L0.892,-3.773L0.892,2.041L0,2.041L0,-1.732Z" style="fill:white;fill-rule:nonzero;"/>
    </g>
    <g transform="matrix(4.16667,0,0,4.16667,-160.942,-3182.98)">
        <rect x="78.989" y="777.913" width="0.977" height="5.814" style="fill:white;"/>
    </g>
    <g transform="matrix(4.16667,0,0,4.16667,174.61,82.5517)">
        <path d="M0,-5.814L2.332,-5.814L2.332,-5.017L0.977,-5.017L0.977,-3.353L1.947,-3.353L1.947,-2.564L0.977,-2.564L0.977,-0.798L2.332,-0.798L2.332,0L0,0L0,-5.814Z" style="fill:white;fill-rule:nonzero;"/>
    </g>
    <g transform="matrix(4.16667,0,0,4.16667,189.936,73.5463)">
        <path d="M0,-1.492L0,2.161L-0.823,2.161L-0.823,-3.653L0.137,-3.653L1.192,-0.317L1.192,-3.653L2.007,-3.653L2.007,2.161L1.149,2.161L0,-1.492Z" style="fill:white;fill-rule:nonzero;"/>
    </g>
    <g transform="matrix(4.16667,0,0,4.16667,200.151,82.5517)">
        <path d="M0,-5.814L2.598,-5.814L2.598,-5.017L1.792,-5.017L1.792,0L0.806,0L0.806,-5.017L0,-5.017L0,-5.814Z" style="fill:white;fill-rule:nonzero;"/>
    </g>
    <g transform="matrix(4.16667,0,0,4.16667,220.583,63.9367)">
        <path d="M0,3.121L0,0C0,-0.352 -0.154,-0.6 -0.506,-0.6C-0.849,-0.6 -1.003,-0.352 -1.003,0L-1.003,3.121C-1.003,3.473 -0.849,3.721 -0.506,3.721C-0.154,3.721 0,3.473 0,3.121M-1.981,2.966L-1.981,0.154C-1.981,-0.755 -1.535,-1.415 -0.506,-1.415C0.532,-1.415 0.978,-0.755 0.978,0.154L0.978,2.966C0.978,3.867 0.532,4.536 -0.506,4.536C-1.535,4.536 -1.981,3.867 -1.981,2.966" style="fill:white;fill-rule:nonzero;"/>
    </g>
    <g transform="matrix(4.16667,0,0,4.16667,73.3088,114.694)">
        <path d="M0,-5.813L2.332,-5.813L2.332,-5.016L0.978,-5.016L0.978,-3.352L1.947,-3.352L1.947,-2.563L0.978,-2.563L0.978,-0.797L2.332,-0.797L2.332,0L0,0L0,-5.813Z" style="fill:white;fill-rule:nonzero;"/>
    </g>
    <g transform="matrix(4.16667,0,0,4.16667,84.8454,96.7267)">
        <path d="M0,2.812L0,0C0,-0.909 0.429,-1.569 1.457,-1.569C2.538,-1.569 2.838,-0.969 2.838,-0.112L2.838,0.574L1.947,0.574L1.947,-0.189C1.947,-0.549 1.826,-0.755 1.475,-0.755C1.124,-0.755 0.977,-0.506 0.977,-0.155L0.977,2.967C0.977,3.318 1.124,3.567 1.475,3.567C1.826,3.567 1.947,3.344 1.947,3.001L1.947,1.929L2.838,1.929L2.838,2.932C2.838,3.764 2.495,4.381 1.457,4.381C0.429,4.381 0,3.712 0,2.812" style="fill:white;fill-rule:nonzero;"/>
    </g>
    <g transform="matrix(4.16667,0,0,4.16667,107.136,96.0829)">
        <path d="M0,3.121L0,0C0,-0.351 -0.155,-0.6 -0.506,-0.6C-0.849,-0.6 -1.003,-0.351 -1.003,0L-1.003,3.121C-1.003,3.473 -0.849,3.721 -0.506,3.721C-0.155,3.721 0,3.473 0,3.121M-1.981,2.966L-1.981,0.154C-1.981,-0.755 -1.535,-1.415 -0.506,-1.415C0.532,-1.415 0.978,-0.755 0.978,0.154L0.978,2.966C0.978,3.867 0.532,4.536 -0.506,4.536C-1.535,4.536 -1.981,3.867 -1.981,2.966" style="fill:white;fill-rule:nonzero;"/>
    </g>
    <g transform="matrix(4.16667,0,0,4.16667,116.96,105.693)">
        <path d="M0,-1.492L0,2.161L-0.823,2.161L-0.823,-3.653L0.137,-3.653L1.192,-0.317L1.192,-3.653L2.006,-3.653L2.006,2.161L1.149,2.161L0,-1.492Z" style="fill:white;fill-rule:nonzero;"/>
    </g>
    <g transform="matrix(4.16667,0,0,4.16667,135.891,91.8329)">
        <path d="M0,4.141L0,1.02C0,0.669 -0.155,0.42 -0.506,0.42C-0.849,0.42 -1.003,0.669 -1.003,1.02L-1.003,4.141C-1.003,4.493 -0.849,4.741 -0.506,4.741C-0.155,4.741 0,4.493 0,4.141M0.291,-0.738L-1.243,-0.541L-1.243,-1.089L0.291,-1.415L0.291,-0.738ZM-1.981,3.986L-1.981,1.174C-1.981,0.265 -1.535,-0.395 -0.506,-0.395C0.532,-0.395 0.978,0.265 0.978,1.174L0.978,3.986C0.978,4.887 0.532,5.556 -0.506,5.556C-1.535,5.556 -1.981,4.887 -1.981,3.986" style="fill:white;fill-rule:nonzero;"/>
    </g>
    <g transform="matrix(4.16667,0,0,4.16667,153.5,106.193)">
        <path d="M0,-1.732L-0.026,-1.732L-0.686,2.041L-1.14,2.041L-1.869,-1.732L-1.886,-1.732L-1.886,2.041L-2.692,2.041L-2.692,-3.773L-1.552,-3.773L-0.918,-0.498L-0.909,-0.498L-0.343,-3.773L0.892,-3.773L0.892,2.041L0,2.041L0,-1.732Z" style="fill:white;fill-rule:nonzero;"/>
    </g>
    <g transform="matrix(4.16667,0,0,4.16667,-160.942,-3118.68)">
        <rect x="76.914" y="770.198" width="0.978" height="5.813" style="fill:white;"/>
    </g>
    <g transform="matrix(4.16667,0,0,4.16667,165.962,96.7267)">
        <path d="M0,2.812L0,0C0,-0.909 0.429,-1.569 1.458,-1.569C2.538,-1.569 2.838,-0.969 2.838,-0.112L2.838,0.574L1.947,0.574L1.947,-0.189C1.947,-0.549 1.827,-0.755 1.475,-0.755C1.124,-0.755 0.978,-0.506 0.978,-0.155L0.978,2.967C0.978,3.318 1.124,3.567 1.475,3.567C1.827,3.567 1.947,3.344 1.947,3.001L1.947,1.929L2.838,1.929L2.838,2.932C2.838,3.764 2.495,4.381 1.458,4.381C0.429,4.381 0,3.712 0,2.812" style="fill:white;fill-rule:nonzero;"/>
    </g>
    <g transform="matrix(4.16667,0,0,4.16667,188.255,96.0829)">
        <path d="M0,3.121L0,0C0,-0.351 -0.154,-0.6 -0.506,-0.6C-0.849,-0.6 -1.003,-0.351 -1.003,0L-1.003,3.121C-1.003,3.473 -0.849,3.721 -0.506,3.721C-0.154,3.721 0,3.473 0,3.121M-1.981,2.966L-1.981,0.154C-1.981,-0.755 -1.535,-1.415 -0.506,-1.415C0.532,-1.415 0.978,-0.755 0.978,0.154L0.978,2.966C0.978,3.867 0.532,4.536 -0.506,4.536C-1.535,4.536 -1.981,3.867 -1.981,2.966" style="fill:white;fill-rule:nonzero;"/>
    </g>
</svg>
